<svg xmlns="http://www.w3.org/2000/svg" viewBox="0 0 120 216" width="120" height="216" shape-rendering="crispEdges"><style>@keyframes f0{0%{visibility:visible}20.000%{visibility:hidden}100%{visibility:hidden}}.f0{animation:f0 1500ms steps(1,end) infinite}@keyframes f1{0%{visibility:hidden}20.000%{visibility:visible}40.000%{visibility:hidden}100%{visibility:hidden}}.f1{animation:f1 1500ms steps(1,end) infinite}@keyframes f2{0%{visibility:hidden}40.000%{visibility:visible}60.000%{visibility:hidden}100%{visibility:hidden}}.f2{animation:f2 1500ms steps(1,end) infinite}@keyframes f3{0%{visibility:hidden}60.000%{visibility:visible}80.000%{visibility:hidden}100%{visibility:hidden}}.f3{animation:f3 1500ms steps(1,end) infinite}@keyframes f4{0%{visibility:hidden}80.000%{visibility:visible}100%{visibility:visible}}.f4{animation:f4 1500ms steps(1,end) infinite}</style><g class="f0"><rect x="56" y="40" width="24" height="8" fill="#FF8FB3"/><rect x="48" y="48" width="8" height="8" fill="#FF8FB3"/><rect x="56" y="48" width="8" height="8" fill="#F2F0FF"/><rect x="64" y="48" width="24" height="8" fill="#FF8FB3"/><rect x="48" y="56" width="40" height="8" fill="#FF8FB3"/><rect x="56" y="64" width="24" height="8" fill="#FF8FB3"/><rect x="64" y="72" width="8" height="8" fill="#FF8FB3"/><rect x="64" y="80" width="8" height="8" fill="#8E88A8"/><rect x="64" y="88" width="8" height="8" fill="#8E88A8"/><rect x="56" y="112" width="16" height="8" fill="#3DF2C8"/><rect x="56" y="120" width="16" height="8" fill="#5A3FD1"/><rect x="32" y="128" width="64" height="8" fill="#7C5CFF"/><rect x="24" y="136" width="8" height="8" fill="#A892FF"/><rect x="32" y="136" width="72" height="8" fill="#7C5CFF"/><rect x="24" y="144" width="80" height="8" fill="#7C5CFF"/><rect x="8" y="152" width="8" height="8" fill="#5A3FD1"/><rect x="16" y="152" width="24" height="8" fill="#7C5CFF"/><rect x="40" y="152" width="8" height="8" fill="#1B1530"/><rect x="48" y="152" width="32" height="8" fill="#7C5CFF"/><rect x="80" y="152" width="8" height="8" fill="#1B1530"/><rect x="88" y="152" width="24" height="8" fill="#7C5CFF"/><rect x="8" y="160" width="32" height="8" fill="#7C5CFF"/><rect x="40" y="160" width="8" height="8" fill="#1B1530"/><rect x="48" y="160" width="32" height="8" fill="#7C5CFF"/><rect x="80" y="160" width="8" height="8" fill="#1B1530"/><rect x="88" y="160" width="24" height="8" fill="#7C5CFF"/><rect x="8" y="168" width="104" height="8" fill="#7C5CFF"/><rect x="8" y="176" width="40" height="8" fill="#7C5CFF"/><rect x="48" y="176" width="8" height="8" fill="#1B1530"/><rect x="56" y="176" width="16" height="8" fill="#7C5CFF"/><rect x="72" y="176" width="8" height="8" fill="#1B1530"/><rect x="80" y="176" width="32" height="8" fill="#7C5CFF"/><rect x="16" y="184" width="8" height="8" fill="#5A3FD1"/><rect x="24" y="184" width="32" height="8" fill="#7C5CFF"/><rect x="56" y="184" width="16" height="8" fill="#1B1530"/><rect x="72" y="184" width="32" height="8" fill="#7C5CFF"/><rect x="104" y="184" width="8" height="8" fill="#5A3FD1"/><rect x="16" y="192" width="16" height="8" fill="#7C5CFF"/><rect x="40" y="192" width="16" height="8" fill="#7C5CFF"/><rect x="72" y="192" width="16" height="8" fill="#7C5CFF"/><rect x="96" y="192" width="16" height="8" fill="#7C5CFF"/><rect x="16" y="200" width="8" height="8" fill="#7C5CFF"/><rect x="32" y="200" width="16" height="8" fill="#7C5CFF"/><rect x="80" y="200" width="16" height="8" fill="#7C5CFF"/><rect x="104" y="200" width="8" height="8" fill="#7C5CFF"/></g><g class="f1"><rect x="56" y="24" width="24" height="8" fill="#FF8FB3"/><rect x="48" y="32" width="8" height="8" fill="#FF8FB3"/><rect x="56" y="32" width="8" height="8" fill="#F2F0FF"/><rect x="64" y="32" width="24" height="8" fill="#FF8FB3"/><rect x="48" y="40" width="40" height="8" fill="#FF8FB3"/><rect x="56" y="48" width="24" height="8" fill="#FF8FB3"/><rect x="64" y="56" width="8" height="8" fill="#FF8FB3"/><rect x="64" y="64" width="8" height="8" fill="#8E88A8"/><rect x="64" y="72" width="8" height="8" fill="#8E88A8"/><rect x="56" y="96" width="16" height="8" fill="#3DF2C8"/><rect x="56" y="104" width="16" height="8" fill="#5A3FD1"/><rect x="32" y="112" width="64" height="8" fill="#7C5CFF"/><rect x="24" y="120" width="8" height="8" fill="#A892FF"/><rect x="32" y="120" width="72" height="8" fill="#7C5CFF"/><rect x="24" y="128" width="80" height="8" fill="#7C5CFF"/><rect x="8" y="136" width="8" height="8" fill="#5A3FD1"/><rect x="16" y="136" width="24" height="8" fill="#7C5CFF"/><rect x="40" y="136" width="8" height="8" fill="#1B1530"/><rect x="48" y="136" width="32" height="8" fill="#7C5CFF"/><rect x="80" y="136" width="8" height="8" fill="#1B1530"/><rect x="88" y="136" width="24" height="8" fill="#7C5CFF"/><rect x="8" y="144" width="32" height="8" fill="#7C5CFF"/><rect x="40" y="144" width="8" height="8" fill="#1B1530"/><rect x="48" y="144" width="32" height="8" fill="#7C5CFF"/><rect x="80" y="144" width="8" height="8" fill="#1B1530"/><rect x="88" y="144" width="24" height="8" fill="#7C5CFF"/><rect x="8" y="152" width="104" height="8" fill="#7C5CFF"/><rect x="8" y="160" width="40" height="8" fill="#7C5CFF"/><rect x="48" y="160" width="8" height="8" fill="#1B1530"/><rect x="56" y="160" width="16" height="8" fill="#7C5CFF"/><rect x="72" y="160" width="8" height="8" fill="#1B1530"/><rect x="80" y="160" width="32" height="8" fill="#7C5CFF"/><rect x="16" y="168" width="8" height="8" fill="#5A3FD1"/><rect x="24" y="168" width="32" height="8" fill="#7C5CFF"/><rect x="56" y="168" width="16" height="8" fill="#1B1530"/><rect x="72" y="168" width="32" height="8" fill="#7C5CFF"/><rect x="104" y="168" width="8" height="8" fill="#5A3FD1"/><rect x="16" y="176" width="16" height="8" fill="#7C5CFF"/><rect x="40" y="176" width="16" height="8" fill="#7C5CFF"/><rect x="72" y="176" width="16" height="8" fill="#7C5CFF"/><rect x="96" y="176" width="16" height="8" fill="#7C5CFF"/><rect x="24" y="184" width="8" height="8" fill="#7C5CFF"/><rect x="40" y="184" width="16" height="8" fill="#7C5CFF"/><rect x="72" y="184" width="16" height="8" fill="#7C5CFF"/><rect x="96" y="184" width="8" height="8" fill="#7C5CFF"/></g><g class="f2"><rect x="56" y="8" width="24" height="8" fill="#FF8FB3"/><rect x="48" y="16" width="8" height="8" fill="#FF8FB3"/><rect x="56" y="16" width="8" height="8" fill="#F2F0FF"/><rect x="64" y="16" width="24" height="8" fill="#FF8FB3"/><rect x="48" y="24" width="40" height="8" fill="#FF8FB3"/><rect x="56" y="32" width="24" height="8" fill="#FF8FB3"/><rect x="64" y="40" width="8" height="8" fill="#FF8FB3"/><rect x="64" y="48" width="8" height="8" fill="#8E88A8"/><rect x="64" y="56" width="8" height="8" fill="#8E88A8"/><rect x="56" y="80" width="16" height="8" fill="#3DF2C8"/><rect x="56" y="88" width="16" height="8" fill="#5A3FD1"/><rect x="32" y="96" width="64" height="8" fill="#7C5CFF"/><rect x="24" y="104" width="8" height="8" fill="#A892FF"/><rect x="32" y="104" width="72" height="8" fill="#7C5CFF"/><rect x="24" y="112" width="80" height="8" fill="#7C5CFF"/><rect x="8" y="120" width="8" height="8" fill="#5A3FD1"/><rect x="16" y="120" width="24" height="8" fill="#7C5CFF"/><rect x="40" y="120" width="8" height="8" fill="#1B1530"/><rect x="48" y="120" width="32" height="8" fill="#7C5CFF"/><rect x="80" y="120" width="8" height="8" fill="#1B1530"/><rect x="88" y="120" width="24" height="8" fill="#7C5CFF"/><rect x="8" y="128" width="32" height="8" fill="#7C5CFF"/><rect x="40" y="128" width="8" height="8" fill="#1B1530"/><rect x="48" y="128" width="32" height="8" fill="#7C5CFF"/><rect x="80" y="128" width="8" height="8" fill="#1B1530"/><rect x="88" y="128" width="24" height="8" fill="#7C5CFF"/><rect x="8" y="136" width="104" height="8" fill="#7C5CFF"/><rect x="8" y="144" width="40" height="8" fill="#7C5CFF"/><rect x="48" y="144" width="8" height="8" fill="#1B1530"/><rect x="56" y="144" width="16" height="8" fill="#7C5CFF"/><rect x="72" y="144" width="8" height="8" fill="#1B1530"/><rect x="80" y="144" width="32" height="8" fill="#7C5CFF"/><rect x="16" y="152" width="8" height="8" fill="#5A3FD1"/><rect x="24" y="152" width="32" height="8" fill="#7C5CFF"/><rect x="56" y="152" width="16" height="8" fill="#1B1530"/><rect x="72" y="152" width="32" height="8" fill="#7C5CFF"/><rect x="104" y="152" width="8" height="8" fill="#5A3FD1"/><rect x="16" y="160" width="16" height="8" fill="#7C5CFF"/><rect x="40" y="160" width="16" height="8" fill="#7C5CFF"/><rect x="72" y="160" width="16" height="8" fill="#7C5CFF"/><rect x="96" y="160" width="16" height="8" fill="#7C5CFF"/><rect x="16" y="168" width="8" height="8" fill="#7C5CFF"/><rect x="32" y="168" width="16" height="8" fill="#7C5CFF"/><rect x="80" y="168" width="16" height="8" fill="#7C5CFF"/><rect x="104" y="168" width="8" height="8" fill="#7C5CFF"/></g><g class="f3"><rect x="48" y="0" width="8" height="8" fill="#FF8FB3"/><rect x="56" y="0" width="8" height="8" fill="#F2F0FF"/><rect x="64" y="0" width="24" height="8" fill="#FF8FB3"/><rect x="48" y="8" width="40" height="8" fill="#FF8FB3"/><rect x="56" y="16" width="24" height="8" fill="#FF8FB3"/><rect x="64" y="24" width="8" height="8" fill="#FF8FB3"/><rect x="64" y="32" width="8" height="8" fill="#8E88A8"/><rect x="64" y="40" width="8" height="8" fill="#8E88A8"/><rect x="56" y="64" width="16" height="8" fill="#3DF2C8"/><rect x="56" y="72" width="16" height="8" fill="#5A3FD1"/><rect x="32" y="80" width="64" height="8" fill="#7C5CFF"/><rect x="24" y="88" width="8" height="8" fill="#A892FF"/><rect x="32" y="88" width="72" height="8" fill="#7C5CFF"/><rect x="24" y="96" width="80" height="8" fill="#7C5CFF"/><rect x="8" y="104" width="8" height="8" fill="#5A3FD1"/><rect x="16" y="104" width="24" height="8" fill="#7C5CFF"/><rect x="40" y="104" width="8" height="8" fill="#1B1530"/><rect x="48" y="104" width="32" height="8" fill="#7C5CFF"/><rect x="80" y="104" width="8" height="8" fill="#1B1530"/><rect x="88" y="104" width="24" height="8" fill="#7C5CFF"/><rect x="8" y="112" width="32" height="8" fill="#7C5CFF"/><rect x="40" y="112" width="8" height="8" fill="#1B1530"/><rect x="48" y="112" width="32" height="8" fill="#7C5CFF"/><rect x="80" y="112" width="8" height="8" fill="#1B1530"/><rect x="88" y="112" width="24" height="8" fill="#7C5CFF"/><rect x="8" y="120" width="104" height="8" fill="#7C5CFF"/><rect x="8" y="128" width="40" height="8" fill="#7C5CFF"/><rect x="48" y="128" width="8" height="8" fill="#1B1530"/><rect x="56" y="128" width="16" height="8" fill="#7C5CFF"/><rect x="72" y="128" width="8" height="8" fill="#1B1530"/><rect x="80" y="128" width="32" height="8" fill="#7C5CFF"/><rect x="16" y="136" width="8" height="8" fill="#5A3FD1"/><rect x="24" y="136" width="32" height="8" fill="#7C5CFF"/><rect x="56" y="136" width="16" height="8" fill="#1B1530"/><rect x="72" y="136" width="32" height="8" fill="#7C5CFF"/><rect x="104" y="136" width="8" height="8" fill="#5A3FD1"/><rect x="16" y="144" width="16" height="8" fill="#7C5CFF"/><rect x="40" y="144" width="16" height="8" fill="#7C5CFF"/><rect x="72" y="144" width="16" height="8" fill="#7C5CFF"/><rect x="96" y="144" width="16" height="8" fill="#7C5CFF"/><rect x="24" y="152" width="8" height="8" fill="#7C5CFF"/><rect x="40" y="152" width="16" height="8" fill="#7C5CFF"/><rect x="72" y="152" width="16" height="8" fill="#7C5CFF"/><rect x="96" y="152" width="8" height="8" fill="#7C5CFF"/></g><g class="f4"><rect x="56" y="0" width="24" height="8" fill="#FF8FB3"/><rect x="64" y="8" width="8" height="8" fill="#FF8FB3"/><rect x="64" y="16" width="8" height="8" fill="#8E88A8"/><rect x="64" y="24" width="8" height="8" fill="#8E88A8"/><rect x="56" y="48" width="16" height="8" fill="#3DF2C8"/><rect x="56" y="56" width="16" height="8" fill="#5A3FD1"/><rect x="32" y="64" width="64" height="8" fill="#7C5CFF"/><rect x="24" y="72" width="8" height="8" fill="#A892FF"/><rect x="32" y="72" width="72" height="8" fill="#7C5CFF"/><rect x="24" y="80" width="80" height="8" fill="#7C5CFF"/><rect x="8" y="88" width="8" height="8" fill="#5A3FD1"/><rect x="16" y="88" width="24" height="8" fill="#7C5CFF"/><rect x="40" y="88" width="8" height="8" fill="#1B1530"/><rect x="48" y="88" width="32" height="8" fill="#7C5CFF"/><rect x="80" y="88" width="8" height="8" fill="#1B1530"/><rect x="88" y="88" width="24" height="8" fill="#7C5CFF"/><rect x="8" y="96" width="32" height="8" fill="#7C5CFF"/><rect x="40" y="96" width="8" height="8" fill="#1B1530"/><rect x="48" y="96" width="32" height="8" fill="#7C5CFF"/><rect x="80" y="96" width="8" height="8" fill="#1B1530"/><rect x="88" y="96" width="24" height="8" fill="#7C5CFF"/><rect x="8" y="104" width="104" height="8" fill="#7C5CFF"/><rect x="8" y="112" width="40" height="8" fill="#7C5CFF"/><rect x="48" y="112" width="8" height="8" fill="#1B1530"/><rect x="56" y="112" width="16" height="8" fill="#7C5CFF"/><rect x="72" y="112" width="8" height="8" fill="#1B1530"/><rect x="80" y="112" width="32" height="8" fill="#7C5CFF"/><rect x="16" y="120" width="8" height="8" fill="#5A3FD1"/><rect x="24" y="120" width="32" height="8" fill="#7C5CFF"/><rect x="56" y="120" width="16" height="8" fill="#1B1530"/><rect x="72" y="120" width="32" height="8" fill="#7C5CFF"/><rect x="104" y="120" width="8" height="8" fill="#5A3FD1"/><rect x="16" y="128" width="16" height="8" fill="#7C5CFF"/><rect x="40" y="128" width="16" height="8" fill="#7C5CFF"/><rect x="72" y="128" width="16" height="8" fill="#7C5CFF"/><rect x="96" y="128" width="16" height="8" fill="#7C5CFF"/><rect x="16" y="136" width="8" height="8" fill="#7C5CFF"/><rect x="32" y="136" width="16" height="8" fill="#7C5CFF"/><rect x="80" y="136" width="16" height="8" fill="#7C5CFF"/><rect x="104" y="136" width="8" height="8" fill="#7C5CFF"/></g></svg>
