<svg xmlns="http://www.w3.org/2000/svg" viewBox="0 0 112 136" width="112" height="136" shape-rendering="crispEdges"><style>@keyframes f0{0%{visibility:visible}34.286%{visibility:hidden}100%{visibility:hidden}}.f0{animation:f0 350ms steps(1,end) infinite}@keyframes f1{0%{visibility:hidden}34.286%{visibility:visible}65.714%{visibility:hidden}100%{visibility:hidden}}.f1{animation:f1 350ms steps(1,end) infinite}@keyframes f2{0%{visibility:hidden}65.714%{visibility:visible}100%{visibility:visible}}.f2{animation:f2 350ms steps(1,end) infinite}</style><g class="f0"><rect x="48" y="32" width="16" height="8" fill="#3DF2C8"/><rect x="48" y="40" width="16" height="8" fill="#5A3FD1"/><rect x="24" y="48" width="64" height="8" fill="#7C5CFF"/><rect x="16" y="56" width="8" height="8" fill="#A892FF"/><rect x="24" y="56" width="72" height="8" fill="#7C5CFF"/><rect x="16" y="64" width="80" height="8" fill="#7C5CFF"/><rect x="8" y="72" width="96" height="8" fill="#7C5CFF"/><rect x="8" y="80" width="24" height="8" fill="#7C5CFF"/><rect x="32" y="80" width="8" height="8" fill="#1B1530"/><rect x="40" y="80" width="32" height="8" fill="#7C5CFF"/><rect x="72" y="80" width="8" height="8" fill="#1B1530"/><rect x="80" y="80" width="24" height="8" fill="#7C5CFF"/><rect x="8" y="88" width="16" height="8" fill="#7C5CFF"/><rect x="24" y="88" width="8" height="8" fill="#1B1530"/><rect x="32" y="88" width="8" height="8" fill="#7C5CFF"/><rect x="40" y="88" width="8" height="8" fill="#1B1530"/><rect x="48" y="88" width="16" height="8" fill="#7C5CFF"/><rect x="64" y="88" width="8" height="8" fill="#1B1530"/><rect x="72" y="88" width="8" height="8" fill="#7C5CFF"/><rect x="80" y="88" width="8" height="8" fill="#1B1530"/><rect x="88" y="88" width="16" height="8" fill="#7C5CFF"/><rect x="8" y="96" width="32" height="8" fill="#7C5CFF"/><rect x="40" y="96" width="8" height="8" fill="#1B1530"/><rect x="48" y="96" width="16" height="8" fill="#7C5CFF"/><rect x="64" y="96" width="8" height="8" fill="#1B1530"/><rect x="72" y="96" width="32" height="8" fill="#7C5CFF"/><rect x="8" y="104" width="8" height="8" fill="#5A3FD1"/><rect x="16" y="104" width="32" height="8" fill="#7C5CFF"/><rect x="48" y="104" width="16" height="8" fill="#1B1530"/><rect x="64" y="104" width="32" height="8" fill="#7C5CFF"/><rect x="96" y="104" width="8" height="8" fill="#5A3FD1"/><rect x="8" y="112" width="16" height="8" fill="#7C5CFF"/><rect x="32" y="112" width="16" height="8" fill="#7C5CFF"/><rect x="64" y="112" width="16" height="8" fill="#7C5CFF"/><rect x="88" y="112" width="16" height="8" fill="#7C5CFF"/><rect x="8" y="120" width="8" height="8" fill="#7C5CFF"/><rect x="24" y="120" width="16" height="8" fill="#7C5CFF"/><rect x="72" y="120" width="16" height="8" fill="#7C5CFF"/><rect x="96" y="120" width="8" height="8" fill="#7C5CFF"/></g><g class="f1"><rect x="48" y="8" width="16" height="8" fill="#3DF2C8"/><rect x="48" y="16" width="16" height="8" fill="#5A3FD1"/><rect x="24" y="24" width="64" height="8" fill="#7C5CFF"/><rect x="16" y="32" width="8" height="8" fill="#A892FF"/><rect x="24" y="32" width="72" height="8" fill="#7C5CFF"/><rect x="16" y="40" width="80" height="8" fill="#7C5CFF"/><rect x="8" y="48" width="96" height="8" fill="#7C5CFF"/><rect x="8" y="56" width="24" height="8" fill="#7C5CFF"/><rect x="32" y="56" width="8" height="8" fill="#1B1530"/><rect x="40" y="56" width="32" height="8" fill="#7C5CFF"/><rect x="72" y="56" width="8" height="8" fill="#1B1530"/><rect x="80" y="56" width="24" height="8" fill="#7C5CFF"/><rect x="8" y="64" width="16" height="8" fill="#7C5CFF"/><rect x="24" y="64" width="8" height="8" fill="#1B1530"/><rect x="32" y="64" width="8" height="8" fill="#7C5CFF"/><rect x="40" y="64" width="8" height="8" fill="#1B1530"/><rect x="48" y="64" width="16" height="8" fill="#7C5CFF"/><rect x="64" y="64" width="8" height="8" fill="#1B1530"/><rect x="72" y="64" width="8" height="8" fill="#7C5CFF"/><rect x="80" y="64" width="8" height="8" fill="#1B1530"/><rect x="88" y="64" width="16" height="8" fill="#7C5CFF"/><rect x="8" y="72" width="32" height="8" fill="#7C5CFF"/><rect x="40" y="72" width="32" height="8" fill="#1B1530"/><rect x="72" y="72" width="32" height="8" fill="#7C5CFF"/><rect x="8" y="80" width="8" height="8" fill="#5A3FD1"/><rect x="16" y="80" width="32" height="8" fill="#7C5CFF"/><rect x="48" y="80" width="16" height="8" fill="#1B1530"/><rect x="64" y="80" width="32" height="8" fill="#7C5CFF"/><rect x="96" y="80" width="8" height="8" fill="#5A3FD1"/><rect x="8" y="88" width="16" height="8" fill="#7C5CFF"/><rect x="32" y="88" width="48" height="8" fill="#7C5CFF"/><rect x="88" y="88" width="16" height="8" fill="#7C5CFF"/><rect x="16" y="96" width="8" height="8" fill="#7C5CFF"/><rect x="88" y="96" width="8" height="8" fill="#7C5CFF"/></g><g class="f2"><rect x="48" y="32" width="16" height="8" fill="#3DF2C8"/><rect x="48" y="40" width="16" height="8" fill="#5A3FD1"/><rect x="24" y="48" width="64" height="8" fill="#7C5CFF"/><rect x="16" y="56" width="8" height="8" fill="#A892FF"/><rect x="24" y="56" width="72" height="8" fill="#7C5CFF"/><rect x="16" y="64" width="80" height="8" fill="#7C5CFF"/><rect x="8" y="72" width="96" height="8" fill="#7C5CFF"/><rect x="8" y="80" width="24" height="8" fill="#7C5CFF"/><rect x="32" y="80" width="8" height="8" fill="#1B1530"/><rect x="40" y="80" width="32" height="8" fill="#7C5CFF"/><rect x="72" y="80" width="8" height="8" fill="#1B1530"/><rect x="80" y="80" width="24" height="8" fill="#7C5CFF"/><rect x="8" y="88" width="16" height="8" fill="#7C5CFF"/><rect x="24" y="88" width="8" height="8" fill="#1B1530"/><rect x="32" y="88" width="8" height="8" fill="#7C5CFF"/><rect x="40" y="88" width="8" height="8" fill="#1B1530"/><rect x="48" y="88" width="16" height="8" fill="#7C5CFF"/><rect x="64" y="88" width="8" height="8" fill="#1B1530"/><rect x="72" y="88" width="8" height="8" fill="#7C5CFF"/><rect x="80" y="88" width="8" height="8" fill="#1B1530"/><rect x="88" y="88" width="16" height="8" fill="#7C5CFF"/><rect x="8" y="96" width="32" height="8" fill="#7C5CFF"/><rect x="40" y="96" width="8" height="8" fill="#1B1530"/><rect x="48" y="96" width="16" height="8" fill="#7C5CFF"/><rect x="64" y="96" width="8" height="8" fill="#1B1530"/><rect x="72" y="96" width="32" height="8" fill="#7C5CFF"/><rect x="8" y="104" width="8" height="8" fill="#5A3FD1"/><rect x="16" y="104" width="32" height="8" fill="#7C5CFF"/><rect x="48" y="104" width="16" height="8" fill="#1B1530"/><rect x="64" y="104" width="32" height="8" fill="#7C5CFF"/><rect x="96" y="104" width="8" height="8" fill="#5A3FD1"/><rect x="8" y="112" width="16" height="8" fill="#7C5CFF"/><rect x="32" y="112" width="16" height="8" fill="#7C5CFF"/><rect x="64" y="112" width="16" height="8" fill="#7C5CFF"/><rect x="88" y="112" width="16" height="8" fill="#7C5CFF"/><rect x="8" y="120" width="8" height="8" fill="#7C5CFF"/><rect x="24" y="120" width="16" height="8" fill="#7C5CFF"/><rect x="72" y="120" width="16" height="8" fill="#7C5CFF"/><rect x="96" y="120" width="8" height="8" fill="#7C5CFF"/></g></svg>
