<svg xmlns="http://www.w3.org/2000/svg" viewBox="0 0 232 112" width="232" height="112" shape-rendering="crispEdges"><style>@keyframes f0{0%{visibility:visible}44.643%{visibility:hidden}100%{visibility:hidden}}.f0{animation:f0 1120ms steps(1,end) infinite}@keyframes f1{0%{visibility:hidden}44.643%{visibility:visible}55.357%{visibility:hidden}100%{visibility:hidden}}.f1{animation:f1 1120ms steps(1,end) infinite}@keyframes f2{0%{visibility:hidden}55.357%{visibility:visible}100%{visibility:visible}}.f2{animation:f2 1120ms steps(1,end) infinite}</style><g class="f0"><rect x="48" y="8" width="16" height="8" fill="#3DF2C8"/><rect x="48" y="16" width="16" height="8" fill="#5A3FD1"/><rect x="24" y="24" width="64" height="8" fill="#7C5CFF"/><rect x="16" y="32" width="8" height="8" fill="#A892FF"/><rect x="24" y="32" width="72" height="8" fill="#7C5CFF"/><rect x="16" y="40" width="80" height="8" fill="#7C5CFF"/><rect x="8" y="48" width="96" height="8" fill="#7C5CFF"/><rect x="8" y="56" width="32" height="8" fill="#7C5CFF"/><rect x="40" y="56" width="8" height="8" fill="#1B1530"/><rect x="48" y="56" width="32" height="8" fill="#7C5CFF"/><rect x="80" y="56" width="8" height="8" fill="#1B1530"/><rect x="88" y="56" width="16" height="8" fill="#7C5CFF"/><rect x="136" y="56" width="88" height="8" fill="#2E2850"/><rect x="8" y="64" width="32" height="8" fill="#7C5CFF"/><rect x="40" y="64" width="8" height="8" fill="#1B1530"/><rect x="48" y="64" width="32" height="8" fill="#7C5CFF"/><rect x="80" y="64" width="8" height="8" fill="#1B1530"/><rect x="88" y="64" width="16" height="8" fill="#7C5CFF"/><rect x="136" y="64" width="8" height="8" fill="#2E2850"/><rect x="144" y="64" width="24" height="8" fill="#4ADE80"/><rect x="168" y="64" width="8" height="8" fill="#0A0714"/><rect x="176" y="64" width="32" height="8" fill="#5AA9FF"/><rect x="208" y="64" width="8" height="8" fill="#0A0714"/><rect x="216" y="64" width="8" height="8" fill="#2E2850"/><rect x="8" y="72" width="40" height="8" fill="#7C5CFF"/><rect x="48" y="72" width="16" height="8" fill="#1B1530"/><rect x="64" y="72" width="40" height="8" fill="#7C5CFF"/><rect x="136" y="72" width="8" height="8" fill="#2E2850"/><rect x="144" y="72" width="16" height="8" fill="#0A0714"/><rect x="160" y="72" width="32" height="8" fill="#FFD166"/><rect x="192" y="72" width="8" height="8" fill="#0A0714"/><rect x="200" y="72" width="8" height="8" fill="#F2F0FF"/><rect x="208" y="72" width="8" height="8" fill="#0A0714"/><rect x="216" y="72" width="8" height="8" fill="#2E2850"/><rect x="8" y="80" width="8" height="8" fill="#5A3FD1"/><rect x="16" y="80" width="80" height="8" fill="#7C5CFF"/><rect x="96" y="80" width="8" height="8" fill="#5A3FD1"/><rect x="136" y="80" width="8" height="8" fill="#2E2850"/><rect x="144" y="80" width="16" height="8" fill="#0A0714"/><rect x="160" y="80" width="32" height="8" fill="#F2F0FF"/><rect x="192" y="80" width="24" height="8" fill="#0A0714"/><rect x="216" y="80" width="8" height="8" fill="#2E2850"/><rect x="8" y="88" width="16" height="8" fill="#7C5CFF"/><rect x="32" y="88" width="16" height="8" fill="#7C5CFF"/><rect x="64" y="88" width="16" height="8" fill="#7C5CFF"/><rect x="88" y="88" width="16" height="8" fill="#7C5CFF"/><rect x="136" y="88" width="88" height="8" fill="#2E2850"/><rect x="8" y="96" width="8" height="8" fill="#7C5CFF"/><rect x="24" y="96" width="16" height="8" fill="#7C5CFF"/><rect x="72" y="96" width="16" height="8" fill="#7C5CFF"/><rect x="96" y="96" width="8" height="8" fill="#7C5CFF"/><rect x="144" y="96" width="72" height="8" fill="#3A3556"/></g><g class="f1"><rect x="48" y="8" width="16" height="8" fill="#3DF2C8"/><rect x="48" y="16" width="16" height="8" fill="#5A3FD1"/><rect x="24" y="24" width="64" height="8" fill="#7C5CFF"/><rect x="16" y="32" width="8" height="8" fill="#A892FF"/><rect x="24" y="32" width="72" height="8" fill="#7C5CFF"/><rect x="16" y="40" width="80" height="8" fill="#7C5CFF"/><rect x="8" y="48" width="16" height="8" fill="#7C5CFF"/><rect x="24" y="48" width="24" height="8" fill="#1B1530"/><rect x="48" y="48" width="16" height="8" fill="#7C5CFF"/><rect x="64" y="48" width="24" height="8" fill="#1B1530"/><rect x="88" y="48" width="16" height="8" fill="#7C5CFF"/><rect x="8" y="56" width="16" height="8" fill="#7C5CFF"/><rect x="24" y="56" width="8" height="8" fill="#1B1530"/><rect x="32" y="56" width="8" height="8" fill="#7C5CFF"/><rect x="40" y="56" width="8" height="8" fill="#1B1530"/><rect x="48" y="56" width="16" height="8" fill="#7C5CFF"/><rect x="64" y="56" width="8" height="8" fill="#1B1530"/><rect x="72" y="56" width="8" height="8" fill="#7C5CFF"/><rect x="80" y="56" width="8" height="8" fill="#1B1530"/><rect x="88" y="56" width="16" height="8" fill="#7C5CFF"/><rect x="136" y="56" width="88" height="8" fill="#2E2850"/><rect x="8" y="64" width="16" height="8" fill="#7C5CFF"/><rect x="24" y="64" width="24" height="8" fill="#1B1530"/><rect x="48" y="64" width="16" height="8" fill="#7C5CFF"/><rect x="64" y="64" width="24" height="8" fill="#1B1530"/><rect x="88" y="64" width="16" height="8" fill="#7C5CFF"/><rect x="136" y="64" width="8" height="8" fill="#2E2850"/><rect x="144" y="64" width="24" height="8" fill="#4ADE80"/><rect x="168" y="64" width="8" height="8" fill="#0A0714"/><rect x="176" y="64" width="32" height="8" fill="#5AA9FF"/><rect x="208" y="64" width="8" height="8" fill="#0A0714"/><rect x="216" y="64" width="8" height="8" fill="#2E2850"/><rect x="8" y="72" width="40" height="8" fill="#7C5CFF"/><rect x="48" y="72" width="16" height="8" fill="#1B1530"/><rect x="64" y="72" width="40" height="8" fill="#7C5CFF"/><rect x="136" y="72" width="8" height="8" fill="#2E2850"/><rect x="144" y="72" width="16" height="8" fill="#0A0714"/><rect x="160" y="72" width="32" height="8" fill="#FFD166"/><rect x="192" y="72" width="8" height="8" fill="#0A0714"/><rect x="200" y="72" width="8" height="8" fill="#F2F0FF"/><rect x="208" y="72" width="8" height="8" fill="#0A0714"/><rect x="216" y="72" width="8" height="8" fill="#2E2850"/><rect x="8" y="80" width="8" height="8" fill="#5A3FD1"/><rect x="16" y="80" width="32" height="8" fill="#7C5CFF"/><rect x="48" y="80" width="16" height="8" fill="#1B1530"/><rect x="64" y="80" width="32" height="8" fill="#7C5CFF"/><rect x="96" y="80" width="8" height="8" fill="#5A3FD1"/><rect x="136" y="80" width="8" height="8" fill="#2E2850"/><rect x="144" y="80" width="16" height="8" fill="#0A0714"/><rect x="160" y="80" width="32" height="8" fill="#F2F0FF"/><rect x="192" y="80" width="24" height="8" fill="#0A0714"/><rect x="216" y="80" width="8" height="8" fill="#2E2850"/><rect x="8" y="88" width="16" height="8" fill="#7C5CFF"/><rect x="32" y="88" width="16" height="8" fill="#7C5CFF"/><rect x="64" y="88" width="16" height="8" fill="#7C5CFF"/><rect x="88" y="88" width="16" height="8" fill="#7C5CFF"/><rect x="136" y="88" width="88" height="8" fill="#2E2850"/><rect x="16" y="96" width="8" height="8" fill="#7C5CFF"/><rect x="32" y="96" width="16" height="8" fill="#7C5CFF"/><rect x="64" y="96" width="16" height="8" fill="#7C5CFF"/><rect x="88" y="96" width="8" height="8" fill="#7C5CFF"/><rect x="144" y="96" width="72" height="8" fill="#3A3556"/></g><g class="f2"><rect x="48" y="8" width="16" height="8" fill="#3DF2C8"/><rect x="48" y="16" width="16" height="8" fill="#5A3FD1"/><rect x="24" y="24" width="64" height="8" fill="#7C5CFF"/><rect x="16" y="32" width="8" height="8" fill="#A892FF"/><rect x="24" y="32" width="72" height="8" fill="#7C5CFF"/><rect x="16" y="40" width="80" height="8" fill="#7C5CFF"/><rect x="8" y="48" width="96" height="8" fill="#7C5CFF"/><rect x="8" y="56" width="8" height="8" fill="#7C5CFF"/><rect x="16" y="56" width="8" height="8" fill="#0A0714"/><rect x="24" y="56" width="8" height="8" fill="#F2F0FF"/><rect x="32" y="56" width="64" height="8" fill="#0A0714"/><rect x="96" y="56" width="8" height="8" fill="#7C5CFF"/><rect x="136" y="56" width="88" height="8" fill="#2E2850"/><rect x="8" y="64" width="16" height="8" fill="#7C5CFF"/><rect x="24" y="64" width="24" height="8" fill="#0A0714"/><rect x="48" y="64" width="16" height="8" fill="#7C5CFF"/><rect x="64" y="64" width="24" height="8" fill="#0A0714"/><rect x="88" y="64" width="16" height="8" fill="#7C5CFF"/><rect x="136" y="64" width="8" height="8" fill="#2E2850"/><rect x="144" y="64" width="16" height="8" fill="#0A0714"/><rect x="160" y="64" width="32" height="8" fill="#FFD166"/><rect x="192" y="64" width="8" height="8" fill="#0A0714"/><rect x="200" y="64" width="8" height="8" fill="#F2F0FF"/><rect x="208" y="64" width="8" height="8" fill="#0A0714"/><rect x="216" y="64" width="8" height="8" fill="#2E2850"/><rect x="8" y="72" width="32" height="8" fill="#7C5CFF"/><rect x="40" y="72" width="8" height="8" fill="#1B1530"/><rect x="48" y="72" width="16" height="8" fill="#7C5CFF"/><rect x="64" y="72" width="8" height="8" fill="#1B1530"/><rect x="72" y="72" width="32" height="8" fill="#7C5CFF"/><rect x="136" y="72" width="8" height="8" fill="#2E2850"/><rect x="144" y="72" width="16" height="8" fill="#0A0714"/><rect x="160" y="72" width="32" height="8" fill="#F2F0FF"/><rect x="192" y="72" width="24" height="8" fill="#0A0714"/><rect x="216" y="72" width="8" height="8" fill="#2E2850"/><rect x="8" y="80" width="8" height="8" fill="#5A3FD1"/><rect x="16" y="80" width="32" height="8" fill="#7C5CFF"/><rect x="48" y="80" width="16" height="8" fill="#1B1530"/><rect x="64" y="80" width="32" height="8" fill="#7C5CFF"/><rect x="96" y="80" width="8" height="8" fill="#5A3FD1"/><rect x="136" y="80" width="8" height="8" fill="#2E2850"/><rect x="144" y="80" width="16" height="8" fill="#4ADE80"/><rect x="160" y="80" width="8" height="8" fill="#0A0714"/><rect x="168" y="80" width="24" height="8" fill="#5AA9FF"/><rect x="192" y="80" width="8" height="8" fill="#0A0714"/><rect x="200" y="80" width="16" height="8" fill="#FFD166"/><rect x="216" y="80" width="8" height="8" fill="#2E2850"/><rect x="8" y="88" width="16" height="8" fill="#7C5CFF"/><rect x="32" y="88" width="16" height="8" fill="#7C5CFF"/><rect x="64" y="88" width="16" height="8" fill="#7C5CFF"/><rect x="88" y="88" width="16" height="8" fill="#7C5CFF"/><rect x="136" y="88" width="88" height="8" fill="#2E2850"/><rect x="8" y="96" width="8" height="8" fill="#7C5CFF"/><rect x="24" y="96" width="16" height="8" fill="#7C5CFF"/><rect x="72" y="96" width="16" height="8" fill="#7C5CFF"/><rect x="96" y="96" width="8" height="8" fill="#7C5CFF"/><rect x="144" y="96" width="72" height="8" fill="#3A3556"/></g></svg>
