<svg xmlns="http://www.w3.org/2000/svg" viewBox="0 0 176 208" width="176" height="208" shape-rendering="crispEdges"><style>@keyframes f0{0%{visibility:visible}12.500%{visibility:hidden}100%{visibility:hidden}}.f0{animation:f0 1200ms steps(1,end) infinite}@keyframes f1{0%{visibility:hidden}12.500%{visibility:visible}25.000%{visibility:hidden}100%{visibility:hidden}}.f1{animation:f1 1200ms steps(1,end) infinite}@keyframes f2{0%{visibility:hidden}25.000%{visibility:visible}37.500%{visibility:hidden}100%{visibility:hidden}}.f2{animation:f2 1200ms steps(1,end) infinite}@keyframes f3{0%{visibility:hidden}37.500%{visibility:visible}50.000%{visibility:hidden}100%{visibility:hidden}}.f3{animation:f3 1200ms steps(1,end) infinite}@keyframes f4{0%{visibility:hidden}50.000%{visibility:visible}62.500%{visibility:hidden}100%{visibility:hidden}}.f4{animation:f4 1200ms steps(1,end) infinite}@keyframes f5{0%{visibility:hidden}62.500%{visibility:visible}75.000%{visibility:hidden}100%{visibility:hidden}}.f5{animation:f5 1200ms steps(1,end) infinite}@keyframes f6{0%{visibility:hidden}75.000%{visibility:visible}87.500%{visibility:hidden}100%{visibility:hidden}}.f6{animation:f6 1200ms steps(1,end) infinite}@keyframes f7{0%{visibility:hidden}87.500%{visibility:visible}100%{visibility:visible}}.f7{animation:f7 1200ms steps(1,end) infinite}</style><g class="f0"><rect x="88" y="8" width="8" height="8" fill="#8E88A8"/><rect x="80" y="16" width="8" height="8" fill="#8E88A8"/><rect x="88" y="16" width="8" height="8" fill="#F2F0FF"/><rect x="96" y="16" width="8" height="8" fill="#8E88A8"/><rect x="72" y="24" width="8" height="8" fill="#8E88A8"/><rect x="80" y="24" width="8" height="8" fill="#F2F0FF"/><rect x="88" y="24" width="8" height="8" fill="#8E88A8"/><rect x="96" y="24" width="8" height="8" fill="#F2F0FF"/><rect x="104" y="24" width="8" height="8" fill="#8E88A8"/><rect x="80" y="32" width="8" height="8" fill="#8E88A8"/><rect x="88" y="32" width="8" height="8" fill="#F2F0FF"/><rect x="96" y="32" width="8" height="8" fill="#8E88A8"/><rect x="40" y="40" width="8" height="8" fill="#FFD166"/><rect x="88" y="40" width="8" height="8" fill="#8E88A8"/><rect x="128" y="48" width="8" height="8" fill="#3DF2C8"/><rect x="8" y="80" width="8" height="8" fill="#FF8FB3"/><rect x="160" y="88" width="8" height="8" fill="#F2F0FF"/><rect x="72" y="104" width="16" height="8" fill="#3DF2C8"/><rect x="72" y="112" width="16" height="8" fill="#5A3FD1"/><rect x="48" y="120" width="64" height="8" fill="#7C5CFF"/><rect x="40" y="128" width="8" height="8" fill="#A892FF"/><rect x="48" y="128" width="72" height="8" fill="#7C5CFF"/><rect x="40" y="136" width="80" height="8" fill="#7C5CFF"/><rect x="32" y="144" width="96" height="8" fill="#7C5CFF"/><rect x="144" y="144" width="8" height="8" fill="#5A3FD1"/><rect x="32" y="152" width="24" height="8" fill="#7C5CFF"/><rect x="56" y="152" width="8" height="8" fill="#1B1530"/><rect x="64" y="152" width="32" height="8" fill="#7C5CFF"/><rect x="96" y="152" width="8" height="8" fill="#1B1530"/><rect x="104" y="152" width="24" height="8" fill="#7C5CFF"/><rect x="144" y="152" width="8" height="8" fill="#7C5CFF"/><rect x="32" y="160" width="16" height="8" fill="#7C5CFF"/><rect x="48" y="160" width="8" height="8" fill="#1B1530"/><rect x="56" y="160" width="8" height="8" fill="#7C5CFF"/><rect x="64" y="160" width="8" height="8" fill="#1B1530"/><rect x="72" y="160" width="16" height="8" fill="#7C5CFF"/><rect x="88" y="160" width="8" height="8" fill="#1B1530"/><rect x="96" y="160" width="8" height="8" fill="#7C5CFF"/><rect x="104" y="160" width="8" height="8" fill="#1B1530"/><rect x="112" y="160" width="16" height="8" fill="#7C5CFF"/><rect x="136" y="160" width="8" height="8" fill="#7C5CFF"/><rect x="32" y="168" width="32" height="8" fill="#7C5CFF"/><rect x="64" y="168" width="32" height="8" fill="#1B1530"/><rect x="96" y="168" width="40" height="8" fill="#7C5CFF"/><rect x="32" y="176" width="8" height="8" fill="#5A3FD1"/><rect x="40" y="176" width="32" height="8" fill="#7C5CFF"/><rect x="72" y="176" width="16" height="8" fill="#1B1530"/><rect x="88" y="176" width="32" height="8" fill="#7C5CFF"/><rect x="120" y="176" width="8" height="8" fill="#5A3FD1"/><rect x="32" y="184" width="16" height="8" fill="#7C5CFF"/><rect x="56" y="184" width="16" height="8" fill="#7C5CFF"/><rect x="88" y="184" width="16" height="8" fill="#7C5CFF"/><rect x="112" y="184" width="16" height="8" fill="#7C5CFF"/><rect x="32" y="192" width="8" height="8" fill="#7C5CFF"/><rect x="48" y="192" width="16" height="8" fill="#7C5CFF"/><rect x="96" y="192" width="16" height="8" fill="#7C5CFF"/><rect x="120" y="192" width="8" height="8" fill="#7C5CFF"/></g><g class="f1"><rect x="88" y="8" width="8" height="8" fill="#8E88A8"/><rect x="80" y="16" width="8" height="8" fill="#8E88A8"/><rect x="88" y="16" width="8" height="8" fill="#F2F0FF"/><rect x="96" y="16" width="8" height="8" fill="#8E88A8"/><rect x="72" y="24" width="8" height="8" fill="#8E88A8"/><rect x="80" y="24" width="8" height="8" fill="#F2F0FF"/><rect x="88" y="24" width="8" height="8" fill="#8E88A8"/><rect x="96" y="24" width="8" height="8" fill="#F2F0FF"/><rect x="104" y="24" width="8" height="8" fill="#8E88A8"/><rect x="80" y="32" width="8" height="8" fill="#8E88A8"/><rect x="88" y="32" width="8" height="8" fill="#F2F0FF"/><rect x="96" y="32" width="8" height="8" fill="#8E88A8"/><rect x="88" y="40" width="8" height="8" fill="#8E88A8"/><rect x="48" y="48" width="8" height="8" fill="#FF8FB3"/><rect x="120" y="48" width="8" height="8" fill="#F2F0FF"/><rect x="160" y="80" width="8" height="8" fill="#3DF2C8"/><rect x="8" y="88" width="8" height="8" fill="#FFD166"/><rect x="80" y="96" width="16" height="8" fill="#3DF2C8"/><rect x="80" y="104" width="16" height="8" fill="#5A3FD1"/><rect x="56" y="112" width="64" height="8" fill="#7C5CFF"/><rect x="48" y="120" width="8" height="8" fill="#A892FF"/><rect x="56" y="120" width="72" height="8" fill="#7C5CFF"/><rect x="48" y="128" width="80" height="8" fill="#7C5CFF"/><rect x="16" y="136" width="8" height="8" fill="#5A3FD1"/><rect x="40" y="136" width="96" height="8" fill="#7C5CFF"/><rect x="16" y="144" width="8" height="8" fill="#7C5CFF"/><rect x="40" y="144" width="24" height="8" fill="#7C5CFF"/><rect x="64" y="144" width="8" height="8" fill="#1B1530"/><rect x="72" y="144" width="32" height="8" fill="#7C5CFF"/><rect x="104" y="144" width="8" height="8" fill="#1B1530"/><rect x="112" y="144" width="24" height="8" fill="#7C5CFF"/><rect x="24" y="152" width="8" height="8" fill="#7C5CFF"/><rect x="40" y="152" width="16" height="8" fill="#7C5CFF"/><rect x="56" y="152" width="8" height="8" fill="#1B1530"/><rect x="64" y="152" width="8" height="8" fill="#7C5CFF"/><rect x="72" y="152" width="8" height="8" fill="#1B1530"/><rect x="80" y="152" width="16" height="8" fill="#7C5CFF"/><rect x="96" y="152" width="8" height="8" fill="#1B1530"/><rect x="104" y="152" width="8" height="8" fill="#7C5CFF"/><rect x="112" y="152" width="8" height="8" fill="#1B1530"/><rect x="120" y="152" width="16" height="8" fill="#7C5CFF"/><rect x="32" y="160" width="40" height="8" fill="#7C5CFF"/><rect x="72" y="160" width="32" height="8" fill="#1B1530"/><rect x="104" y="160" width="32" height="8" fill="#7C5CFF"/><rect x="40" y="168" width="8" height="8" fill="#5A3FD1"/><rect x="48" y="168" width="32" height="8" fill="#7C5CFF"/><rect x="80" y="168" width="16" height="8" fill="#1B1530"/><rect x="96" y="168" width="32" height="8" fill="#7C5CFF"/><rect x="128" y="168" width="8" height="8" fill="#5A3FD1"/><rect x="40" y="176" width="16" height="8" fill="#7C5CFF"/><rect x="64" y="176" width="16" height="8" fill="#7C5CFF"/><rect x="96" y="176" width="16" height="8" fill="#7C5CFF"/><rect x="120" y="176" width="16" height="8" fill="#7C5CFF"/><rect x="48" y="184" width="8" height="8" fill="#7C5CFF"/><rect x="64" y="184" width="16" height="8" fill="#7C5CFF"/><rect x="96" y="184" width="16" height="8" fill="#7C5CFF"/><rect x="120" y="184" width="8" height="8" fill="#7C5CFF"/></g><g class="f2"><rect x="88" y="8" width="8" height="8" fill="#8E88A8"/><rect x="80" y="16" width="8" height="8" fill="#8E88A8"/><rect x="88" y="16" width="8" height="8" fill="#F2F0FF"/><rect x="96" y="16" width="8" height="8" fill="#8E88A8"/><rect x="72" y="24" width="8" height="8" fill="#8E88A8"/><rect x="80" y="24" width="8" height="8" fill="#F2F0FF"/><rect x="88" y="24" width="8" height="8" fill="#8E88A8"/><rect x="96" y="24" width="8" height="8" fill="#F2F0FF"/><rect x="104" y="24" width="8" height="8" fill="#8E88A8"/><rect x="80" y="32" width="8" height="8" fill="#8E88A8"/><rect x="88" y="32" width="8" height="8" fill="#F2F0FF"/><rect x="96" y="32" width="8" height="8" fill="#8E88A8"/><rect x="56" y="40" width="8" height="8" fill="#3DF2C8"/><rect x="88" y="40" width="8" height="8" fill="#8E88A8"/><rect x="112" y="48" width="8" height="8" fill="#FFD166"/><rect x="160" y="72" width="8" height="8" fill="#FF8FB3"/><rect x="8" y="96" width="8" height="8" fill="#3DF2C8"/><rect x="88" y="104" width="16" height="8" fill="#3DF2C8"/><rect x="88" y="112" width="16" height="8" fill="#5A3FD1"/><rect x="64" y="120" width="64" height="8" fill="#7C5CFF"/><rect x="56" y="128" width="8" height="8" fill="#A892FF"/><rect x="64" y="128" width="72" height="8" fill="#7C5CFF"/><rect x="56" y="136" width="80" height="8" fill="#7C5CFF"/><rect x="48" y="144" width="96" height="8" fill="#7C5CFF"/><rect x="160" y="144" width="8" height="8" fill="#5A3FD1"/><rect x="48" y="152" width="24" height="8" fill="#7C5CFF"/><rect x="72" y="152" width="8" height="8" fill="#1B1530"/><rect x="80" y="152" width="32" height="8" fill="#7C5CFF"/><rect x="112" y="152" width="8" height="8" fill="#1B1530"/><rect x="120" y="152" width="24" height="8" fill="#7C5CFF"/><rect x="160" y="152" width="8" height="8" fill="#7C5CFF"/><rect x="48" y="160" width="16" height="8" fill="#7C5CFF"/><rect x="64" y="160" width="8" height="8" fill="#1B1530"/><rect x="72" y="160" width="8" height="8" fill="#7C5CFF"/><rect x="80" y="160" width="8" height="8" fill="#1B1530"/><rect x="88" y="160" width="16" height="8" fill="#7C5CFF"/><rect x="104" y="160" width="8" height="8" fill="#1B1530"/><rect x="112" y="160" width="8" height="8" fill="#7C5CFF"/><rect x="120" y="160" width="8" height="8" fill="#1B1530"/><rect x="128" y="160" width="16" height="8" fill="#7C5CFF"/><rect x="152" y="160" width="8" height="8" fill="#7C5CFF"/><rect x="48" y="168" width="32" height="8" fill="#7C5CFF"/><rect x="80" y="168" width="32" height="8" fill="#1B1530"/><rect x="112" y="168" width="40" height="8" fill="#7C5CFF"/><rect x="48" y="176" width="8" height="8" fill="#5A3FD1"/><rect x="56" y="176" width="32" height="8" fill="#7C5CFF"/><rect x="88" y="176" width="16" height="8" fill="#1B1530"/><rect x="104" y="176" width="32" height="8" fill="#7C5CFF"/><rect x="136" y="176" width="8" height="8" fill="#5A3FD1"/><rect x="48" y="184" width="16" height="8" fill="#7C5CFF"/><rect x="72" y="184" width="16" height="8" fill="#7C5CFF"/><rect x="104" y="184" width="16" height="8" fill="#7C5CFF"/><rect x="128" y="184" width="16" height="8" fill="#7C5CFF"/><rect x="48" y="192" width="8" height="8" fill="#7C5CFF"/><rect x="64" y="192" width="16" height="8" fill="#7C5CFF"/><rect x="112" y="192" width="16" height="8" fill="#7C5CFF"/><rect x="136" y="192" width="8" height="8" fill="#7C5CFF"/></g><g class="f3"><rect x="88" y="8" width="8" height="8" fill="#8E88A8"/><rect x="80" y="16" width="8" height="8" fill="#8E88A8"/><rect x="88" y="16" width="8" height="8" fill="#F2F0FF"/><rect x="96" y="16" width="8" height="8" fill="#8E88A8"/><rect x="72" y="24" width="8" height="8" fill="#8E88A8"/><rect x="80" y="24" width="8" height="8" fill="#F2F0FF"/><rect x="88" y="24" width="8" height="8" fill="#8E88A8"/><rect x="96" y="24" width="8" height="8" fill="#F2F0FF"/><rect x="104" y="24" width="8" height="8" fill="#8E88A8"/><rect x="80" y="32" width="8" height="8" fill="#8E88A8"/><rect x="88" y="32" width="8" height="8" fill="#F2F0FF"/><rect x="96" y="32" width="8" height="8" fill="#8E88A8"/><rect x="88" y="40" width="8" height="8" fill="#8E88A8"/><rect x="40" y="48" width="8" height="8" fill="#F2F0FF"/><rect x="128" y="48" width="8" height="8" fill="#FF8FB3"/><rect x="8" y="80" width="8" height="8" fill="#F2F0FF"/><rect x="160" y="88" width="8" height="8" fill="#FFD166"/><rect x="80" y="96" width="16" height="8" fill="#3DF2C8"/><rect x="80" y="104" width="16" height="8" fill="#5A3FD1"/><rect x="56" y="112" width="64" height="8" fill="#7C5CFF"/><rect x="48" y="120" width="8" height="8" fill="#A892FF"/><rect x="56" y="120" width="72" height="8" fill="#7C5CFF"/><rect x="48" y="128" width="80" height="8" fill="#7C5CFF"/><rect x="16" y="136" width="8" height="8" fill="#5A3FD1"/><rect x="40" y="136" width="96" height="8" fill="#7C5CFF"/><rect x="16" y="144" width="8" height="8" fill="#7C5CFF"/><rect x="40" y="144" width="24" height="8" fill="#7C5CFF"/><rect x="64" y="144" width="8" height="8" fill="#1B1530"/><rect x="72" y="144" width="32" height="8" fill="#7C5CFF"/><rect x="104" y="144" width="8" height="8" fill="#1B1530"/><rect x="112" y="144" width="24" height="8" fill="#7C5CFF"/><rect x="24" y="152" width="8" height="8" fill="#7C5CFF"/><rect x="40" y="152" width="16" height="8" fill="#7C5CFF"/><rect x="56" y="152" width="8" height="8" fill="#1B1530"/><rect x="64" y="152" width="8" height="8" fill="#7C5CFF"/><rect x="72" y="152" width="8" height="8" fill="#1B1530"/><rect x="80" y="152" width="16" height="8" fill="#7C5CFF"/><rect x="96" y="152" width="8" height="8" fill="#1B1530"/><rect x="104" y="152" width="8" height="8" fill="#7C5CFF"/><rect x="112" y="152" width="8" height="8" fill="#1B1530"/><rect x="120" y="152" width="16" height="8" fill="#7C5CFF"/><rect x="32" y="160" width="40" height="8" fill="#7C5CFF"/><rect x="72" y="160" width="32" height="8" fill="#1B1530"/><rect x="104" y="160" width="32" height="8" fill="#7C5CFF"/><rect x="40" y="168" width="8" height="8" fill="#5A3FD1"/><rect x="48" y="168" width="32" height="8" fill="#7C5CFF"/><rect x="80" y="168" width="16" height="8" fill="#1B1530"/><rect x="96" y="168" width="32" height="8" fill="#7C5CFF"/><rect x="128" y="168" width="8" height="8" fill="#5A3FD1"/><rect x="40" y="176" width="16" height="8" fill="#7C5CFF"/><rect x="64" y="176" width="16" height="8" fill="#7C5CFF"/><rect x="96" y="176" width="16" height="8" fill="#7C5CFF"/><rect x="120" y="176" width="16" height="8" fill="#7C5CFF"/><rect x="48" y="184" width="8" height="8" fill="#7C5CFF"/><rect x="64" y="184" width="16" height="8" fill="#7C5CFF"/><rect x="96" y="184" width="16" height="8" fill="#7C5CFF"/><rect x="120" y="184" width="8" height="8" fill="#7C5CFF"/></g><g class="f4"><rect x="88" y="8" width="8" height="8" fill="#8E88A8"/><rect x="80" y="16" width="8" height="8" fill="#8E88A8"/><rect x="88" y="16" width="8" height="8" fill="#F2F0FF"/><rect x="96" y="16" width="8" height="8" fill="#8E88A8"/><rect x="72" y="24" width="8" height="8" fill="#8E88A8"/><rect x="80" y="24" width="8" height="8" fill="#F2F0FF"/><rect x="88" y="24" width="8" height="8" fill="#8E88A8"/><rect x="96" y="24" width="8" height="8" fill="#F2F0FF"/><rect x="104" y="24" width="8" height="8" fill="#8E88A8"/><rect x="80" y="32" width="8" height="8" fill="#8E88A8"/><rect x="88" y="32" width="8" height="8" fill="#F2F0FF"/><rect x="96" y="32" width="8" height="8" fill="#8E88A8"/><rect x="48" y="40" width="8" height="8" fill="#FFD166"/><rect x="88" y="40" width="8" height="8" fill="#8E88A8"/><rect x="120" y="48" width="8" height="8" fill="#3DF2C8"/><rect x="160" y="80" width="8" height="8" fill="#F2F0FF"/><rect x="8" y="88" width="8" height="8" fill="#FF8FB3"/><rect x="72" y="104" width="16" height="8" fill="#3DF2C8"/><rect x="72" y="112" width="16" height="8" fill="#5A3FD1"/><rect x="48" y="120" width="64" height="8" fill="#7C5CFF"/><rect x="40" y="128" width="8" height="8" fill="#A892FF"/><rect x="48" y="128" width="72" height="8" fill="#7C5CFF"/><rect x="40" y="136" width="80" height="8" fill="#7C5CFF"/><rect x="32" y="144" width="96" height="8" fill="#7C5CFF"/><rect x="144" y="144" width="8" height="8" fill="#5A3FD1"/><rect x="32" y="152" width="24" height="8" fill="#7C5CFF"/><rect x="56" y="152" width="8" height="8" fill="#1B1530"/><rect x="64" y="152" width="32" height="8" fill="#7C5CFF"/><rect x="96" y="152" width="8" height="8" fill="#1B1530"/><rect x="104" y="152" width="24" height="8" fill="#7C5CFF"/><rect x="144" y="152" width="8" height="8" fill="#7C5CFF"/><rect x="32" y="160" width="16" height="8" fill="#7C5CFF"/><rect x="48" y="160" width="8" height="8" fill="#1B1530"/><rect x="56" y="160" width="8" height="8" fill="#7C5CFF"/><rect x="64" y="160" width="8" height="8" fill="#1B1530"/><rect x="72" y="160" width="16" height="8" fill="#7C5CFF"/><rect x="88" y="160" width="8" height="8" fill="#1B1530"/><rect x="96" y="160" width="8" height="8" fill="#7C5CFF"/><rect x="104" y="160" width="8" height="8" fill="#1B1530"/><rect x="112" y="160" width="16" height="8" fill="#7C5CFF"/><rect x="136" y="160" width="8" height="8" fill="#7C5CFF"/><rect x="32" y="168" width="32" height="8" fill="#7C5CFF"/><rect x="64" y="168" width="32" height="8" fill="#1B1530"/><rect x="96" y="168" width="40" height="8" fill="#7C5CFF"/><rect x="32" y="176" width="8" height="8" fill="#5A3FD1"/><rect x="40" y="176" width="32" height="8" fill="#7C5CFF"/><rect x="72" y="176" width="16" height="8" fill="#1B1530"/><rect x="88" y="176" width="32" height="8" fill="#7C5CFF"/><rect x="120" y="176" width="8" height="8" fill="#5A3FD1"/><rect x="32" y="184" width="16" height="8" fill="#7C5CFF"/><rect x="56" y="184" width="16" height="8" fill="#7C5CFF"/><rect x="88" y="184" width="16" height="8" fill="#7C5CFF"/><rect x="112" y="184" width="16" height="8" fill="#7C5CFF"/><rect x="32" y="192" width="8" height="8" fill="#7C5CFF"/><rect x="48" y="192" width="16" height="8" fill="#7C5CFF"/><rect x="96" y="192" width="16" height="8" fill="#7C5CFF"/><rect x="120" y="192" width="8" height="8" fill="#7C5CFF"/></g><g class="f5"><rect x="88" y="8" width="8" height="8" fill="#8E88A8"/><rect x="80" y="16" width="8" height="8" fill="#8E88A8"/><rect x="88" y="16" width="8" height="8" fill="#F2F0FF"/><rect x="96" y="16" width="8" height="8" fill="#8E88A8"/><rect x="72" y="24" width="8" height="8" fill="#8E88A8"/><rect x="80" y="24" width="8" height="8" fill="#F2F0FF"/><rect x="88" y="24" width="8" height="8" fill="#8E88A8"/><rect x="96" y="24" width="8" height="8" fill="#F2F0FF"/><rect x="104" y="24" width="8" height="8" fill="#8E88A8"/><rect x="80" y="32" width="8" height="8" fill="#8E88A8"/><rect x="88" y="32" width="8" height="8" fill="#F2F0FF"/><rect x="96" y="32" width="8" height="8" fill="#8E88A8"/><rect x="88" y="40" width="8" height="8" fill="#8E88A8"/><rect x="56" y="48" width="8" height="8" fill="#FF8FB3"/><rect x="112" y="48" width="8" height="8" fill="#F2F0FF"/><rect x="160" y="72" width="8" height="8" fill="#3DF2C8"/><rect x="8" y="96" width="8" height="8" fill="#FFD166"/><rect x="80" y="96" width="16" height="8" fill="#3DF2C8"/><rect x="80" y="104" width="16" height="8" fill="#5A3FD1"/><rect x="56" y="112" width="64" height="8" fill="#7C5CFF"/><rect x="48" y="120" width="8" height="8" fill="#A892FF"/><rect x="56" y="120" width="72" height="8" fill="#7C5CFF"/><rect x="48" y="128" width="80" height="8" fill="#7C5CFF"/><rect x="16" y="136" width="8" height="8" fill="#5A3FD1"/><rect x="40" y="136" width="96" height="8" fill="#7C5CFF"/><rect x="16" y="144" width="8" height="8" fill="#7C5CFF"/><rect x="40" y="144" width="24" height="8" fill="#7C5CFF"/><rect x="64" y="144" width="8" height="8" fill="#1B1530"/><rect x="72" y="144" width="32" height="8" fill="#7C5CFF"/><rect x="104" y="144" width="8" height="8" fill="#1B1530"/><rect x="112" y="144" width="24" height="8" fill="#7C5CFF"/><rect x="24" y="152" width="8" height="8" fill="#7C5CFF"/><rect x="40" y="152" width="16" height="8" fill="#7C5CFF"/><rect x="56" y="152" width="8" height="8" fill="#1B1530"/><rect x="64" y="152" width="8" height="8" fill="#7C5CFF"/><rect x="72" y="152" width="8" height="8" fill="#1B1530"/><rect x="80" y="152" width="16" height="8" fill="#7C5CFF"/><rect x="96" y="152" width="8" height="8" fill="#1B1530"/><rect x="104" y="152" width="8" height="8" fill="#7C5CFF"/><rect x="112" y="152" width="8" height="8" fill="#1B1530"/><rect x="120" y="152" width="16" height="8" fill="#7C5CFF"/><rect x="32" y="160" width="40" height="8" fill="#7C5CFF"/><rect x="72" y="160" width="32" height="8" fill="#1B1530"/><rect x="104" y="160" width="32" height="8" fill="#7C5CFF"/><rect x="40" y="168" width="8" height="8" fill="#5A3FD1"/><rect x="48" y="168" width="32" height="8" fill="#7C5CFF"/><rect x="80" y="168" width="16" height="8" fill="#1B1530"/><rect x="96" y="168" width="32" height="8" fill="#7C5CFF"/><rect x="128" y="168" width="8" height="8" fill="#5A3FD1"/><rect x="40" y="176" width="16" height="8" fill="#7C5CFF"/><rect x="64" y="176" width="16" height="8" fill="#7C5CFF"/><rect x="96" y="176" width="16" height="8" fill="#7C5CFF"/><rect x="120" y="176" width="16" height="8" fill="#7C5CFF"/><rect x="48" y="184" width="8" height="8" fill="#7C5CFF"/><rect x="64" y="184" width="16" height="8" fill="#7C5CFF"/><rect x="96" y="184" width="16" height="8" fill="#7C5CFF"/><rect x="120" y="184" width="8" height="8" fill="#7C5CFF"/></g><g class="f6"><rect x="88" y="8" width="8" height="8" fill="#8E88A8"/><rect x="80" y="16" width="8" height="8" fill="#8E88A8"/><rect x="88" y="16" width="8" height="8" fill="#F2F0FF"/><rect x="96" y="16" width="8" height="8" fill="#8E88A8"/><rect x="72" y="24" width="8" height="8" fill="#8E88A8"/><rect x="80" y="24" width="8" height="8" fill="#F2F0FF"/><rect x="88" y="24" width="8" height="8" fill="#8E88A8"/><rect x="96" y="24" width="8" height="8" fill="#F2F0FF"/><rect x="104" y="24" width="8" height="8" fill="#8E88A8"/><rect x="80" y="32" width="8" height="8" fill="#8E88A8"/><rect x="88" y="32" width="8" height="8" fill="#F2F0FF"/><rect x="96" y="32" width="8" height="8" fill="#8E88A8"/><rect x="40" y="40" width="8" height="8" fill="#3DF2C8"/><rect x="88" y="40" width="8" height="8" fill="#8E88A8"/><rect x="128" y="48" width="8" height="8" fill="#FFD166"/><rect x="8" y="80" width="8" height="8" fill="#3DF2C8"/><rect x="160" y="88" width="8" height="8" fill="#FF8FB3"/><rect x="88" y="104" width="16" height="8" fill="#3DF2C8"/><rect x="88" y="112" width="16" height="8" fill="#5A3FD1"/><rect x="64" y="120" width="64" height="8" fill="#7C5CFF"/><rect x="56" y="128" width="8" height="8" fill="#A892FF"/><rect x="64" y="128" width="72" height="8" fill="#7C5CFF"/><rect x="56" y="136" width="80" height="8" fill="#7C5CFF"/><rect x="48" y="144" width="96" height="8" fill="#7C5CFF"/><rect x="160" y="144" width="8" height="8" fill="#5A3FD1"/><rect x="48" y="152" width="24" height="8" fill="#7C5CFF"/><rect x="72" y="152" width="8" height="8" fill="#1B1530"/><rect x="80" y="152" width="32" height="8" fill="#7C5CFF"/><rect x="112" y="152" width="8" height="8" fill="#1B1530"/><rect x="120" y="152" width="24" height="8" fill="#7C5CFF"/><rect x="160" y="152" width="8" height="8" fill="#7C5CFF"/><rect x="48" y="160" width="16" height="8" fill="#7C5CFF"/><rect x="64" y="160" width="8" height="8" fill="#1B1530"/><rect x="72" y="160" width="8" height="8" fill="#7C5CFF"/><rect x="80" y="160" width="8" height="8" fill="#1B1530"/><rect x="88" y="160" width="16" height="8" fill="#7C5CFF"/><rect x="104" y="160" width="8" height="8" fill="#1B1530"/><rect x="112" y="160" width="8" height="8" fill="#7C5CFF"/><rect x="120" y="160" width="8" height="8" fill="#1B1530"/><rect x="128" y="160" width="16" height="8" fill="#7C5CFF"/><rect x="152" y="160" width="8" height="8" fill="#7C5CFF"/><rect x="48" y="168" width="32" height="8" fill="#7C5CFF"/><rect x="80" y="168" width="32" height="8" fill="#1B1530"/><rect x="112" y="168" width="40" height="8" fill="#7C5CFF"/><rect x="48" y="176" width="8" height="8" fill="#5A3FD1"/><rect x="56" y="176" width="32" height="8" fill="#7C5CFF"/><rect x="88" y="176" width="16" height="8" fill="#1B1530"/><rect x="104" y="176" width="32" height="8" fill="#7C5CFF"/><rect x="136" y="176" width="8" height="8" fill="#5A3FD1"/><rect x="48" y="184" width="16" height="8" fill="#7C5CFF"/><rect x="72" y="184" width="16" height="8" fill="#7C5CFF"/><rect x="104" y="184" width="16" height="8" fill="#7C5CFF"/><rect x="128" y="184" width="16" height="8" fill="#7C5CFF"/><rect x="48" y="192" width="8" height="8" fill="#7C5CFF"/><rect x="64" y="192" width="16" height="8" fill="#7C5CFF"/><rect x="112" y="192" width="16" height="8" fill="#7C5CFF"/><rect x="136" y="192" width="8" height="8" fill="#7C5CFF"/></g><g class="f7"><rect x="88" y="8" width="8" height="8" fill="#8E88A8"/><rect x="80" y="16" width="8" height="8" fill="#8E88A8"/><rect x="88" y="16" width="8" height="8" fill="#F2F0FF"/><rect x="96" y="16" width="8" height="8" fill="#8E88A8"/><rect x="72" y="24" width="8" height="8" fill="#8E88A8"/><rect x="80" y="24" width="8" height="8" fill="#F2F0FF"/><rect x="88" y="24" width="8" height="8" fill="#8E88A8"/><rect x="96" y="24" width="8" height="8" fill="#F2F0FF"/><rect x="104" y="24" width="8" height="8" fill="#8E88A8"/><rect x="80" y="32" width="8" height="8" fill="#8E88A8"/><rect x="88" y="32" width="8" height="8" fill="#F2F0FF"/><rect x="96" y="32" width="8" height="8" fill="#8E88A8"/><rect x="88" y="40" width="8" height="8" fill="#8E88A8"/><rect x="48" y="48" width="8" height="8" fill="#F2F0FF"/><rect x="120" y="48" width="8" height="8" fill="#FF8FB3"/><rect x="160" y="80" width="8" height="8" fill="#FFD166"/><rect x="8" y="88" width="8" height="8" fill="#F2F0FF"/><rect x="80" y="96" width="16" height="8" fill="#3DF2C8"/><rect x="80" y="104" width="16" height="8" fill="#5A3FD1"/><rect x="56" y="112" width="64" height="8" fill="#7C5CFF"/><rect x="48" y="120" width="8" height="8" fill="#A892FF"/><rect x="56" y="120" width="72" height="8" fill="#7C5CFF"/><rect x="48" y="128" width="80" height="8" fill="#7C5CFF"/><rect x="16" y="136" width="8" height="8" fill="#5A3FD1"/><rect x="40" y="136" width="96" height="8" fill="#7C5CFF"/><rect x="16" y="144" width="8" height="8" fill="#7C5CFF"/><rect x="40" y="144" width="24" height="8" fill="#7C5CFF"/><rect x="64" y="144" width="8" height="8" fill="#1B1530"/><rect x="72" y="144" width="32" height="8" fill="#7C5CFF"/><rect x="104" y="144" width="8" height="8" fill="#1B1530"/><rect x="112" y="144" width="24" height="8" fill="#7C5CFF"/><rect x="24" y="152" width="8" height="8" fill="#7C5CFF"/><rect x="40" y="152" width="16" height="8" fill="#7C5CFF"/><rect x="56" y="152" width="8" height="8" fill="#1B1530"/><rect x="64" y="152" width="8" height="8" fill="#7C5CFF"/><rect x="72" y="152" width="8" height="8" fill="#1B1530"/><rect x="80" y="152" width="16" height="8" fill="#7C5CFF"/><rect x="96" y="152" width="8" height="8" fill="#1B1530"/><rect x="104" y="152" width="8" height="8" fill="#7C5CFF"/><rect x="112" y="152" width="8" height="8" fill="#1B1530"/><rect x="120" y="152" width="16" height="8" fill="#7C5CFF"/><rect x="32" y="160" width="40" height="8" fill="#7C5CFF"/><rect x="72" y="160" width="32" height="8" fill="#1B1530"/><rect x="104" y="160" width="32" height="8" fill="#7C5CFF"/><rect x="40" y="168" width="8" height="8" fill="#5A3FD1"/><rect x="48" y="168" width="32" height="8" fill="#7C5CFF"/><rect x="80" y="168" width="16" height="8" fill="#1B1530"/><rect x="96" y="168" width="32" height="8" fill="#7C5CFF"/><rect x="128" y="168" width="8" height="8" fill="#5A3FD1"/><rect x="40" y="176" width="16" height="8" fill="#7C5CFF"/><rect x="64" y="176" width="16" height="8" fill="#7C5CFF"/><rect x="96" y="176" width="16" height="8" fill="#7C5CFF"/><rect x="120" y="176" width="16" height="8" fill="#7C5CFF"/><rect x="48" y="184" width="8" height="8" fill="#7C5CFF"/><rect x="64" y="184" width="16" height="8" fill="#7C5CFF"/><rect x="96" y="184" width="16" height="8" fill="#7C5CFF"/><rect x="120" y="184" width="8" height="8" fill="#7C5CFF"/></g></svg>
