<svg xmlns="http://www.w3.org/2000/svg" viewBox="0 0 200 216" width="200" height="216" shape-rendering="crispEdges"><style>@keyframes f0{0%{visibility:visible}25.000%{visibility:hidden}100%{visibility:hidden}}.f0{animation:f0 880ms steps(1,end) infinite}@keyframes f1{0%{visibility:hidden}25.000%{visibility:visible}50.000%{visibility:hidden}100%{visibility:hidden}}.f1{animation:f1 880ms steps(1,end) infinite}@keyframes f2{0%{visibility:hidden}50.000%{visibility:visible}75.000%{visibility:hidden}100%{visibility:hidden}}.f2{animation:f2 880ms steps(1,end) infinite}@keyframes f3{0%{visibility:hidden}75.000%{visibility:visible}100%{visibility:visible}}.f3{animation:f3 880ms steps(1,end) infinite}</style><g class="f0"><rect x="136" y="0" width="24" height="8" fill="#F2F0FF"/><rect x="128" y="8" width="40" height="8" fill="#F2F0FF"/><rect x="120" y="16" width="56" height="8" fill="#F2F0FF"/><rect x="128" y="24" width="40" height="8" fill="#F2F0FF"/><rect x="168" y="64" width="8" height="8" fill="#3DF2C8"/><rect x="160" y="72" width="24" height="8" fill="#3DF2C8"/><rect x="152" y="80" width="8" height="8" fill="#3DF2C8"/><rect x="168" y="80" width="8" height="8" fill="#3DF2C8"/><rect x="184" y="80" width="8" height="8" fill="#3DF2C8"/><rect x="168" y="88" width="8" height="8" fill="#3DF2C8"/><rect x="168" y="96" width="8" height="8" fill="#3DF2C8"/><rect x="48" y="112" width="16" height="8" fill="#3DF2C8"/><rect x="48" y="120" width="16" height="8" fill="#5A3FD1"/><rect x="24" y="128" width="64" height="8" fill="#7C5CFF"/><rect x="16" y="136" width="8" height="8" fill="#A892FF"/><rect x="24" y="136" width="72" height="8" fill="#7C5CFF"/><rect x="120" y="136" width="32" height="8" fill="#F2F0FF"/><rect x="152" y="136" width="8" height="8" fill="#8E88A8"/><rect x="16" y="144" width="80" height="8" fill="#7C5CFF"/><rect x="120" y="144" width="8" height="8" fill="#F2F0FF"/><rect x="128" y="144" width="24" height="8" fill="#2E2850"/><rect x="152" y="144" width="16" height="8" fill="#F2F0FF"/><rect x="8" y="152" width="24" height="8" fill="#7C5CFF"/><rect x="32" y="152" width="8" height="8" fill="#1B1530"/><rect x="40" y="152" width="32" height="8" fill="#7C5CFF"/><rect x="72" y="152" width="8" height="8" fill="#1B1530"/><rect x="80" y="152" width="24" height="8" fill="#7C5CFF"/><rect x="120" y="152" width="48" height="8" fill="#F2F0FF"/><rect x="8" y="160" width="24" height="8" fill="#7C5CFF"/><rect x="32" y="160" width="8" height="8" fill="#1B1530"/><rect x="40" y="160" width="32" height="8" fill="#7C5CFF"/><rect x="72" y="160" width="8" height="8" fill="#1B1530"/><rect x="80" y="160" width="24" height="8" fill="#7C5CFF"/><rect x="120" y="160" width="8" height="8" fill="#F2F0FF"/><rect x="128" y="160" width="32" height="8" fill="#2E2850"/><rect x="160" y="160" width="8" height="8" fill="#F2F0FF"/><rect x="8" y="168" width="96" height="8" fill="#7C5CFF"/><rect x="120" y="168" width="48" height="8" fill="#F2F0FF"/><rect x="8" y="176" width="40" height="8" fill="#7C5CFF"/><rect x="48" y="176" width="8" height="8" fill="#1B1530"/><rect x="56" y="176" width="64" height="8" fill="#7C5CFF"/><rect x="120" y="176" width="8" height="8" fill="#F2F0FF"/><rect x="128" y="176" width="24" height="8" fill="#2E2850"/><rect x="152" y="176" width="16" height="8" fill="#F2F0FF"/><rect x="8" y="184" width="8" height="8" fill="#5A3FD1"/><rect x="16" y="184" width="80" height="8" fill="#7C5CFF"/><rect x="96" y="184" width="8" height="8" fill="#5A3FD1"/><rect x="120" y="184" width="48" height="8" fill="#F2F0FF"/><rect x="8" y="192" width="16" height="8" fill="#7C5CFF"/><rect x="32" y="192" width="16" height="8" fill="#7C5CFF"/><rect x="64" y="192" width="16" height="8" fill="#7C5CFF"/><rect x="88" y="192" width="16" height="8" fill="#7C5CFF"/><rect x="8" y="200" width="8" height="8" fill="#7C5CFF"/><rect x="24" y="200" width="16" height="8" fill="#7C5CFF"/><rect x="72" y="200" width="16" height="8" fill="#7C5CFF"/><rect x="96" y="200" width="8" height="8" fill="#7C5CFF"/></g><g class="f1"><rect x="136" y="0" width="24" height="8" fill="#F2F0FF"/><rect x="128" y="8" width="40" height="8" fill="#F2F0FF"/><rect x="120" y="16" width="56" height="8" fill="#F2F0FF"/><rect x="128" y="24" width="40" height="8" fill="#F2F0FF"/><rect x="168" y="56" width="8" height="8" fill="#3DF2C8"/><rect x="160" y="64" width="24" height="8" fill="#3DF2C8"/><rect x="152" y="72" width="8" height="8" fill="#3DF2C8"/><rect x="168" y="72" width="8" height="8" fill="#3DF2C8"/><rect x="184" y="72" width="8" height="8" fill="#3DF2C8"/><rect x="168" y="80" width="8" height="8" fill="#3DF2C8"/><rect x="168" y="88" width="8" height="8" fill="#3DF2C8"/><rect x="48" y="112" width="16" height="8" fill="#3DF2C8"/><rect x="48" y="120" width="16" height="8" fill="#5A3FD1"/><rect x="24" y="128" width="64" height="8" fill="#7C5CFF"/><rect x="120" y="128" width="32" height="8" fill="#F2F0FF"/><rect x="152" y="128" width="8" height="8" fill="#8E88A8"/><rect x="16" y="136" width="8" height="8" fill="#A892FF"/><rect x="24" y="136" width="72" height="8" fill="#7C5CFF"/><rect x="120" y="136" width="8" height="8" fill="#F2F0FF"/><rect x="128" y="136" width="24" height="8" fill="#2E2850"/><rect x="152" y="136" width="16" height="8" fill="#F2F0FF"/><rect x="16" y="144" width="80" height="8" fill="#7C5CFF"/><rect x="120" y="144" width="48" height="8" fill="#F2F0FF"/><rect x="8" y="152" width="24" height="8" fill="#7C5CFF"/><rect x="32" y="152" width="8" height="8" fill="#1B1530"/><rect x="40" y="152" width="32" height="8" fill="#7C5CFF"/><rect x="72" y="152" width="8" height="8" fill="#1B1530"/><rect x="80" y="152" width="24" height="8" fill="#7C5CFF"/><rect x="120" y="152" width="8" height="8" fill="#F2F0FF"/><rect x="128" y="152" width="32" height="8" fill="#2E2850"/><rect x="160" y="152" width="8" height="8" fill="#F2F0FF"/><rect x="8" y="160" width="24" height="8" fill="#7C5CFF"/><rect x="32" y="160" width="8" height="8" fill="#1B1530"/><rect x="40" y="160" width="32" height="8" fill="#7C5CFF"/><rect x="72" y="160" width="8" height="8" fill="#1B1530"/><rect x="80" y="160" width="24" height="8" fill="#7C5CFF"/><rect x="120" y="160" width="48" height="8" fill="#F2F0FF"/><rect x="8" y="168" width="96" height="8" fill="#7C5CFF"/><rect x="120" y="168" width="8" height="8" fill="#F2F0FF"/><rect x="128" y="168" width="24" height="8" fill="#2E2850"/><rect x="152" y="168" width="16" height="8" fill="#F2F0FF"/><rect x="8" y="176" width="40" height="8" fill="#7C5CFF"/><rect x="48" y="176" width="8" height="8" fill="#1B1530"/><rect x="56" y="176" width="64" height="8" fill="#7C5CFF"/><rect x="120" y="176" width="48" height="8" fill="#F2F0FF"/><rect x="8" y="184" width="8" height="8" fill="#5A3FD1"/><rect x="16" y="184" width="80" height="8" fill="#7C5CFF"/><rect x="96" y="184" width="8" height="8" fill="#5A3FD1"/><rect x="8" y="192" width="16" height="8" fill="#7C5CFF"/><rect x="32" y="192" width="16" height="8" fill="#7C5CFF"/><rect x="64" y="192" width="16" height="8" fill="#7C5CFF"/><rect x="88" y="192" width="16" height="8" fill="#7C5CFF"/><rect x="16" y="200" width="8" height="8" fill="#7C5CFF"/><rect x="32" y="200" width="16" height="8" fill="#7C5CFF"/><rect x="64" y="200" width="16" height="8" fill="#7C5CFF"/><rect x="88" y="200" width="8" height="8" fill="#7C5CFF"/></g><g class="f2"><rect x="136" y="0" width="24" height="8" fill="#F2F0FF"/><rect x="128" y="8" width="40" height="8" fill="#F2F0FF"/><rect x="120" y="16" width="56" height="8" fill="#F2F0FF"/><rect x="128" y="24" width="40" height="8" fill="#F2F0FF"/><rect x="168" y="48" width="8" height="8" fill="#3DF2C8"/><rect x="160" y="56" width="24" height="8" fill="#3DF2C8"/><rect x="152" y="64" width="8" height="8" fill="#3DF2C8"/><rect x="168" y="64" width="8" height="8" fill="#3DF2C8"/><rect x="184" y="64" width="8" height="8" fill="#3DF2C8"/><rect x="168" y="72" width="8" height="8" fill="#3DF2C8"/><rect x="168" y="80" width="8" height="8" fill="#3DF2C8"/><rect x="48" y="112" width="16" height="8" fill="#3DF2C8"/><rect x="48" y="120" width="16" height="8" fill="#5A3FD1"/><rect x="120" y="120" width="32" height="8" fill="#F2F0FF"/><rect x="152" y="120" width="8" height="8" fill="#8E88A8"/><rect x="24" y="128" width="64" height="8" fill="#7C5CFF"/><rect x="120" y="128" width="8" height="8" fill="#F2F0FF"/><rect x="128" y="128" width="24" height="8" fill="#2E2850"/><rect x="152" y="128" width="16" height="8" fill="#F2F0FF"/><rect x="16" y="136" width="8" height="8" fill="#A892FF"/><rect x="24" y="136" width="72" height="8" fill="#7C5CFF"/><rect x="120" y="136" width="48" height="8" fill="#F2F0FF"/><rect x="16" y="144" width="80" height="8" fill="#7C5CFF"/><rect x="120" y="144" width="8" height="8" fill="#F2F0FF"/><rect x="128" y="144" width="32" height="8" fill="#2E2850"/><rect x="160" y="144" width="8" height="8" fill="#F2F0FF"/><rect x="8" y="152" width="24" height="8" fill="#7C5CFF"/><rect x="32" y="152" width="8" height="8" fill="#1B1530"/><rect x="40" y="152" width="32" height="8" fill="#7C5CFF"/><rect x="72" y="152" width="8" height="8" fill="#1B1530"/><rect x="80" y="152" width="24" height="8" fill="#7C5CFF"/><rect x="120" y="152" width="48" height="8" fill="#F2F0FF"/><rect x="8" y="160" width="24" height="8" fill="#7C5CFF"/><rect x="32" y="160" width="8" height="8" fill="#1B1530"/><rect x="40" y="160" width="32" height="8" fill="#7C5CFF"/><rect x="72" y="160" width="8" height="8" fill="#1B1530"/><rect x="80" y="160" width="24" height="8" fill="#7C5CFF"/><rect x="120" y="160" width="8" height="8" fill="#F2F0FF"/><rect x="128" y="160" width="24" height="8" fill="#2E2850"/><rect x="152" y="160" width="16" height="8" fill="#F2F0FF"/><rect x="8" y="168" width="96" height="8" fill="#7C5CFF"/><rect x="120" y="168" width="48" height="8" fill="#F2F0FF"/><rect x="8" y="176" width="40" height="8" fill="#7C5CFF"/><rect x="48" y="176" width="8" height="8" fill="#1B1530"/><rect x="56" y="176" width="64" height="8" fill="#7C5CFF"/><rect x="120" y="176" width="8" height="8" fill="#5A3FD1"/><rect x="8" y="184" width="8" height="8" fill="#5A3FD1"/><rect x="16" y="184" width="80" height="8" fill="#7C5CFF"/><rect x="96" y="184" width="8" height="8" fill="#5A3FD1"/><rect x="8" y="192" width="16" height="8" fill="#7C5CFF"/><rect x="32" y="192" width="16" height="8" fill="#7C5CFF"/><rect x="64" y="192" width="16" height="8" fill="#7C5CFF"/><rect x="88" y="192" width="16" height="8" fill="#7C5CFF"/><rect x="8" y="200" width="8" height="8" fill="#7C5CFF"/><rect x="24" y="200" width="16" height="8" fill="#7C5CFF"/><rect x="72" y="200" width="16" height="8" fill="#7C5CFF"/><rect x="96" y="200" width="8" height="8" fill="#7C5CFF"/></g><g class="f3"><rect x="136" y="0" width="24" height="8" fill="#F2F0FF"/><rect x="128" y="8" width="40" height="8" fill="#F2F0FF"/><rect x="120" y="16" width="56" height="8" fill="#F2F0FF"/><rect x="128" y="24" width="40" height="8" fill="#F2F0FF"/><rect x="168" y="40" width="8" height="8" fill="#3DF2C8"/><rect x="160" y="48" width="24" height="8" fill="#3DF2C8"/><rect x="152" y="56" width="8" height="8" fill="#3DF2C8"/><rect x="168" y="56" width="8" height="8" fill="#3DF2C8"/><rect x="184" y="56" width="8" height="8" fill="#3DF2C8"/><rect x="168" y="64" width="8" height="8" fill="#3DF2C8"/><rect x="168" y="72" width="8" height="8" fill="#3DF2C8"/><rect x="48" y="112" width="16" height="8" fill="#3DF2C8"/><rect x="120" y="112" width="32" height="8" fill="#F2F0FF"/><rect x="152" y="112" width="8" height="8" fill="#8E88A8"/><rect x="48" y="120" width="16" height="8" fill="#5A3FD1"/><rect x="120" y="120" width="8" height="8" fill="#F2F0FF"/><rect x="128" y="120" width="24" height="8" fill="#2E2850"/><rect x="152" y="120" width="16" height="8" fill="#F2F0FF"/><rect x="24" y="128" width="64" height="8" fill="#7C5CFF"/><rect x="120" y="128" width="48" height="8" fill="#F2F0FF"/><rect x="16" y="136" width="8" height="8" fill="#A892FF"/><rect x="24" y="136" width="72" height="8" fill="#7C5CFF"/><rect x="120" y="136" width="8" height="8" fill="#F2F0FF"/><rect x="128" y="136" width="32" height="8" fill="#2E2850"/><rect x="160" y="136" width="8" height="8" fill="#F2F0FF"/><rect x="16" y="144" width="80" height="8" fill="#7C5CFF"/><rect x="120" y="144" width="48" height="8" fill="#F2F0FF"/><rect x="8" y="152" width="24" height="8" fill="#7C5CFF"/><rect x="32" y="152" width="8" height="8" fill="#1B1530"/><rect x="40" y="152" width="32" height="8" fill="#7C5CFF"/><rect x="72" y="152" width="8" height="8" fill="#1B1530"/><rect x="80" y="152" width="24" height="8" fill="#7C5CFF"/><rect x="120" y="152" width="8" height="8" fill="#F2F0FF"/><rect x="128" y="152" width="24" height="8" fill="#2E2850"/><rect x="152" y="152" width="16" height="8" fill="#F2F0FF"/><rect x="8" y="160" width="24" height="8" fill="#7C5CFF"/><rect x="32" y="160" width="8" height="8" fill="#1B1530"/><rect x="40" y="160" width="32" height="8" fill="#7C5CFF"/><rect x="72" y="160" width="8" height="8" fill="#1B1530"/><rect x="80" y="160" width="24" height="8" fill="#7C5CFF"/><rect x="120" y="160" width="48" height="8" fill="#F2F0FF"/><rect x="8" y="168" width="96" height="8" fill="#7C5CFF"/><rect x="8" y="176" width="40" height="8" fill="#7C5CFF"/><rect x="48" y="176" width="8" height="8" fill="#1B1530"/><rect x="56" y="176" width="64" height="8" fill="#7C5CFF"/><rect x="120" y="176" width="8" height="8" fill="#5A3FD1"/><rect x="8" y="184" width="8" height="8" fill="#5A3FD1"/><rect x="16" y="184" width="80" height="8" fill="#7C5CFF"/><rect x="96" y="184" width="8" height="8" fill="#5A3FD1"/><rect x="8" y="192" width="16" height="8" fill="#7C5CFF"/><rect x="32" y="192" width="16" height="8" fill="#7C5CFF"/><rect x="64" y="192" width="16" height="8" fill="#7C5CFF"/><rect x="88" y="192" width="16" height="8" fill="#7C5CFF"/><rect x="16" y="200" width="8" height="8" fill="#7C5CFF"/><rect x="32" y="200" width="16" height="8" fill="#7C5CFF"/><rect x="64" y="200" width="16" height="8" fill="#7C5CFF"/><rect x="88" y="200" width="8" height="8" fill="#7C5CFF"/></g></svg>
