<svg xmlns="http://www.w3.org/2000/svg" viewBox="0 0 240 208" width="240" height="208" shape-rendering="crispEdges"><style>@keyframes f0{0%{visibility:visible}16.667%{visibility:hidden}100%{visibility:hidden}}.f0{animation:f0 1500ms steps(1,end) infinite}@keyframes f1{0%{visibility:hidden}16.667%{visibility:visible}33.333%{visibility:hidden}100%{visibility:hidden}}.f1{animation:f1 1500ms steps(1,end) infinite}@keyframes f2{0%{visibility:hidden}33.333%{visibility:visible}50.000%{visibility:hidden}100%{visibility:hidden}}.f2{animation:f2 1500ms steps(1,end) infinite}@keyframes f3{0%{visibility:hidden}50.000%{visibility:visible}66.667%{visibility:hidden}100%{visibility:hidden}}.f3{animation:f3 1500ms steps(1,end) infinite}@keyframes f4{0%{visibility:hidden}66.667%{visibility:visible}83.333%{visibility:hidden}100%{visibility:hidden}}.f4{animation:f4 1500ms steps(1,end) infinite}@keyframes f5{0%{visibility:hidden}83.333%{visibility:visible}100%{visibility:visible}}.f5{animation:f5 1500ms steps(1,end) infinite}</style><g class="f0"><rect x="104" y="8" width="8" height="8" fill="#5AA9FF"/><rect x="48" y="16" width="8" height="8" fill="#3DF2C8"/><rect x="184" y="24" width="8" height="8" fill="#FF8FB3"/><rect x="128" y="32" width="8" height="8" fill="#FFD166"/><rect x="72" y="40" width="8" height="8" fill="#4ADE80"/><rect x="208" y="48" width="8" height="8" fill="#FF5C5C"/><rect x="152" y="56" width="8" height="8" fill="#5AA9FF"/><rect x="96" y="64" width="8" height="8" fill="#3DF2C8"/><rect x="40" y="72" width="8" height="8" fill="#FF8FB3"/><rect x="176" y="80" width="8" height="8" fill="#FFD166"/><rect x="120" y="88" width="8" height="8" fill="#4ADE80"/><rect x="200" y="88" width="24" height="8" fill="#FF8FB3"/><rect x="64" y="96" width="8" height="8" fill="#FF5C5C"/><rect x="120" y="96" width="16" height="8" fill="#FF8FB3"/><rect x="192" y="96" width="8" height="8" fill="#FF8FB3"/><rect x="200" y="96" width="8" height="8" fill="#F2F0FF"/><rect x="208" y="96" width="24" height="8" fill="#FF8FB3"/><rect x="120" y="104" width="16" height="8" fill="#FFD166"/><rect x="192" y="104" width="8" height="8" fill="#FF8FB3"/><rect x="200" y="104" width="8" height="8" fill="#5AA9FF"/><rect x="208" y="104" width="24" height="8" fill="#FF8FB3"/><rect x="112" y="112" width="8" height="8" fill="#FF9F43"/><rect x="120" y="112" width="8" height="8" fill="#FFD166"/><rect x="128" y="112" width="8" height="8" fill="#FF9F43"/><rect x="136" y="112" width="8" height="8" fill="#FFD166"/><rect x="144" y="112" width="8" height="8" fill="#3DF2C8"/><rect x="200" y="112" width="24" height="8" fill="#FF8FB3"/><rect x="88" y="120" width="8" height="8" fill="#FF8FB3"/><rect x="96" y="120" width="8" height="8" fill="#7C5CFF"/><rect x="104" y="120" width="8" height="8" fill="#FFD166"/><rect x="112" y="120" width="8" height="8" fill="#FF9F43"/><rect x="120" y="120" width="8" height="8" fill="#FFD166"/><rect x="128" y="120" width="8" height="8" fill="#FF9F43"/><rect x="136" y="120" width="8" height="8" fill="#FFD166"/><rect x="144" y="120" width="8" height="8" fill="#FF9F43"/><rect x="152" y="120" width="8" height="8" fill="#7C5CFF"/><rect x="208" y="120" width="8" height="8" fill="#FF8FB3"/><rect x="32" y="128" width="8" height="8" fill="#FFD166"/><rect x="88" y="128" width="8" height="8" fill="#A892FF"/><rect x="96" y="128" width="72" height="8" fill="#7C5CFF"/><rect x="208" y="128" width="8" height="8" fill="#8E88A8"/><rect x="88" y="136" width="80" height="8" fill="#7C5CFF"/><rect x="168" y="136" width="8" height="8" fill="#4ADE80"/><rect x="208" y="136" width="8" height="8" fill="#8E88A8"/><rect x="80" y="144" width="32" height="8" fill="#7C5CFF"/><rect x="112" y="144" width="8" height="8" fill="#FF5C5C"/><rect x="120" y="144" width="56" height="8" fill="#7C5CFF"/><rect x="176" y="144" width="8" height="8" fill="#5A3FD1"/><rect x="24" y="152" width="16" height="8" fill="#FF5C5C"/><rect x="56" y="152" width="8" height="8" fill="#5AA9FF"/><rect x="80" y="152" width="24" height="8" fill="#7C5CFF"/><rect x="104" y="152" width="8" height="8" fill="#1B1530"/><rect x="112" y="152" width="32" height="8" fill="#7C5CFF"/><rect x="144" y="152" width="8" height="8" fill="#1B1530"/><rect x="152" y="152" width="32" height="8" fill="#7C5CFF"/><rect x="16" y="160" width="8" height="8" fill="#FF5C5C"/><rect x="40" y="160" width="8" height="8" fill="#FF5C5C"/><rect x="80" y="160" width="16" height="8" fill="#7C5CFF"/><rect x="96" y="160" width="8" height="8" fill="#1B1530"/><rect x="104" y="160" width="8" height="8" fill="#7C5CFF"/><rect x="112" y="160" width="8" height="8" fill="#1B1530"/><rect x="120" y="160" width="16" height="8" fill="#7C5CFF"/><rect x="136" y="160" width="8" height="8" fill="#1B1530"/><rect x="144" y="160" width="8" height="8" fill="#7C5CFF"/><rect x="152" y="160" width="8" height="8" fill="#1B1530"/><rect x="160" y="160" width="24" height="8" fill="#7C5CFF"/><rect x="192" y="160" width="8" height="8" fill="#3DF2C8"/><rect x="8" y="168" width="16" height="8" fill="#5AA9FF"/><rect x="24" y="168" width="16" height="8" fill="#FF5C5C"/><rect x="40" y="168" width="16" height="8" fill="#5AA9FF"/><rect x="80" y="168" width="32" height="8" fill="#7C5CFF"/><rect x="112" y="168" width="8" height="8" fill="#1B1530"/><rect x="120" y="168" width="16" height="8" fill="#7C5CFF"/><rect x="136" y="168" width="8" height="8" fill="#FF8FB3"/><rect x="144" y="168" width="40" height="8" fill="#7C5CFF"/><rect x="8" y="176" width="16" height="8" fill="#5AA9FF"/><rect x="24" y="176" width="16" height="8" fill="#FF5C5C"/><rect x="40" y="176" width="16" height="8" fill="#5AA9FF"/><rect x="80" y="176" width="8" height="8" fill="#FFD166"/><rect x="88" y="176" width="32" height="8" fill="#7C5CFF"/><rect x="120" y="176" width="16" height="8" fill="#1B1530"/><rect x="136" y="176" width="32" height="8" fill="#7C5CFF"/><rect x="168" y="176" width="8" height="8" fill="#5A3FD1"/><rect x="8" y="184" width="16" height="8" fill="#5AA9FF"/><rect x="24" y="184" width="16" height="8" fill="#FF5C5C"/><rect x="40" y="184" width="16" height="8" fill="#5AA9FF"/><rect x="80" y="184" width="16" height="8" fill="#7C5CFF"/><rect x="104" y="184" width="16" height="8" fill="#7C5CFF"/><rect x="136" y="184" width="16" height="8" fill="#7C5CFF"/><rect x="160" y="184" width="16" height="8" fill="#7C5CFF"/><rect x="216" y="184" width="8" height="8" fill="#4ADE80"/><rect x="8" y="192" width="48" height="8" fill="#5AA9FF"/><rect x="80" y="192" width="8" height="8" fill="#7C5CFF"/><rect x="96" y="192" width="16" height="8" fill="#7C5CFF"/><rect x="144" y="192" width="16" height="8" fill="#7C5CFF"/><rect x="160" y="192" width="8" height="8" fill="#FF5C5C"/><rect x="168" y="192" width="8" height="8" fill="#7C5CFF"/></g><g class="f1"><rect x="216" y="8" width="8" height="8" fill="#4ADE80"/><rect x="160" y="16" width="8" height="8" fill="#FF5C5C"/><rect x="104" y="24" width="8" height="8" fill="#5AA9FF"/><rect x="48" y="32" width="8" height="8" fill="#3DF2C8"/><rect x="184" y="40" width="8" height="8" fill="#FF8FB3"/><rect x="128" y="48" width="8" height="8" fill="#FFD166"/><rect x="72" y="56" width="8" height="8" fill="#4ADE80"/><rect x="208" y="64" width="8" height="8" fill="#FF5C5C"/><rect x="152" y="72" width="8" height="8" fill="#5AA9FF"/><rect x="96" y="80" width="8" height="8" fill="#3DF2C8"/><rect x="200" y="80" width="24" height="8" fill="#FF8FB3"/><rect x="40" y="88" width="8" height="8" fill="#FF8FB3"/><rect x="192" y="88" width="8" height="8" fill="#FF8FB3"/><rect x="200" y="88" width="8" height="8" fill="#F2F0FF"/><rect x="208" y="88" width="24" height="8" fill="#FF8FB3"/><rect x="120" y="96" width="16" height="8" fill="#FF8FB3"/><rect x="176" y="96" width="8" height="8" fill="#FFD166"/><rect x="192" y="96" width="40" height="8" fill="#FF8FB3"/><rect x="120" y="104" width="8" height="8" fill="#4ADE80"/><rect x="128" y="104" width="8" height="8" fill="#FFD166"/><rect x="200" y="104" width="24" height="8" fill="#FF8FB3"/><rect x="64" y="112" width="8" height="8" fill="#FF5C5C"/><rect x="112" y="112" width="8" height="8" fill="#FF9F43"/><rect x="120" y="112" width="8" height="8" fill="#FFD166"/><rect x="128" y="112" width="8" height="8" fill="#FF9F43"/><rect x="136" y="112" width="8" height="8" fill="#FFD166"/><rect x="208" y="112" width="8" height="8" fill="#FF8FB3"/><rect x="96" y="120" width="8" height="8" fill="#7C5CFF"/><rect x="104" y="120" width="8" height="8" fill="#FFD166"/><rect x="112" y="120" width="8" height="8" fill="#FF9F43"/><rect x="120" y="120" width="8" height="8" fill="#FFD166"/><rect x="128" y="120" width="8" height="8" fill="#FF9F43"/><rect x="136" y="120" width="8" height="8" fill="#FFD166"/><rect x="144" y="120" width="8" height="8" fill="#FF9F43"/><rect x="152" y="120" width="8" height="8" fill="#7C5CFF"/><rect x="200" y="120" width="8" height="8" fill="#5AA9FF"/><rect x="208" y="120" width="8" height="8" fill="#8E88A8"/><rect x="88" y="128" width="8" height="8" fill="#A892FF"/><rect x="96" y="128" width="48" height="8" fill="#7C5CFF"/><rect x="144" y="128" width="8" height="8" fill="#3DF2C8"/><rect x="152" y="128" width="16" height="8" fill="#7C5CFF"/><rect x="208" y="128" width="8" height="8" fill="#8E88A8"/><rect x="88" y="136" width="8" height="8" fill="#FF8FB3"/><rect x="96" y="136" width="72" height="8" fill="#7C5CFF"/><rect x="32" y="144" width="8" height="8" fill="#FFD166"/><rect x="80" y="144" width="96" height="8" fill="#7C5CFF"/><rect x="176" y="144" width="8" height="8" fill="#5A3FD1"/><rect x="24" y="152" width="16" height="8" fill="#FF5C5C"/><rect x="80" y="152" width="24" height="8" fill="#7C5CFF"/><rect x="104" y="152" width="8" height="8" fill="#1B1530"/><rect x="112" y="152" width="32" height="8" fill="#7C5CFF"/><rect x="144" y="152" width="8" height="8" fill="#1B1530"/><rect x="152" y="152" width="16" height="8" fill="#7C5CFF"/><rect x="168" y="152" width="8" height="8" fill="#4ADE80"/><rect x="176" y="152" width="8" height="8" fill="#7C5CFF"/><rect x="16" y="160" width="8" height="8" fill="#FF5C5C"/><rect x="40" y="160" width="8" height="8" fill="#FF5C5C"/><rect x="80" y="160" width="16" height="8" fill="#7C5CFF"/><rect x="96" y="160" width="8" height="8" fill="#1B1530"/><rect x="104" y="160" width="8" height="8" fill="#7C5CFF"/><rect x="112" y="160" width="8" height="8" fill="#FF5C5C"/><rect x="120" y="160" width="16" height="8" fill="#7C5CFF"/><rect x="136" y="160" width="8" height="8" fill="#1B1530"/><rect x="144" y="160" width="8" height="8" fill="#7C5CFF"/><rect x="152" y="160" width="8" height="8" fill="#1B1530"/><rect x="160" y="160" width="24" height="8" fill="#7C5CFF"/><rect x="8" y="168" width="16" height="8" fill="#5AA9FF"/><rect x="24" y="168" width="16" height="8" fill="#FF5C5C"/><rect x="40" y="168" width="24" height="8" fill="#5AA9FF"/><rect x="80" y="168" width="32" height="8" fill="#7C5CFF"/><rect x="112" y="168" width="8" height="8" fill="#1B1530"/><rect x="120" y="168" width="16" height="8" fill="#7C5CFF"/><rect x="136" y="168" width="8" height="8" fill="#1B1530"/><rect x="144" y="168" width="40" height="8" fill="#7C5CFF"/><rect x="8" y="176" width="16" height="8" fill="#5AA9FF"/><rect x="24" y="176" width="16" height="8" fill="#FF5C5C"/><rect x="40" y="176" width="16" height="8" fill="#5AA9FF"/><rect x="80" y="176" width="8" height="8" fill="#5A3FD1"/><rect x="88" y="176" width="32" height="8" fill="#7C5CFF"/><rect x="120" y="176" width="16" height="8" fill="#1B1530"/><rect x="136" y="176" width="32" height="8" fill="#7C5CFF"/><rect x="168" y="176" width="8" height="8" fill="#5A3FD1"/><rect x="192" y="176" width="8" height="8" fill="#3DF2C8"/><rect x="8" y="184" width="16" height="8" fill="#5AA9FF"/><rect x="24" y="184" width="16" height="8" fill="#FF5C5C"/><rect x="40" y="184" width="16" height="8" fill="#5AA9FF"/><rect x="80" y="184" width="16" height="8" fill="#7C5CFF"/><rect x="104" y="184" width="16" height="8" fill="#7C5CFF"/><rect x="136" y="184" width="8" height="8" fill="#FF8FB3"/><rect x="144" y="184" width="8" height="8" fill="#7C5CFF"/><rect x="160" y="184" width="16" height="8" fill="#7C5CFF"/><rect x="8" y="192" width="48" height="8" fill="#5AA9FF"/><rect x="80" y="192" width="8" height="8" fill="#FFD166"/><rect x="88" y="192" width="8" height="8" fill="#7C5CFF"/><rect x="104" y="192" width="16" height="8" fill="#7C5CFF"/><rect x="136" y="192" width="16" height="8" fill="#7C5CFF"/><rect x="160" y="192" width="8" height="8" fill="#7C5CFF"/></g><g class="f2"><rect x="136" y="8" width="8" height="8" fill="#FF8FB3"/><rect x="80" y="16" width="8" height="8" fill="#FFD166"/><rect x="216" y="24" width="8" height="8" fill="#4ADE80"/><rect x="160" y="32" width="8" height="8" fill="#FF5C5C"/><rect x="104" y="40" width="8" height="8" fill="#5AA9FF"/><rect x="48" y="48" width="8" height="8" fill="#3DF2C8"/><rect x="184" y="56" width="8" height="8" fill="#FF8FB3"/><rect x="128" y="64" width="8" height="8" fill="#FFD166"/><rect x="72" y="72" width="8" height="8" fill="#4ADE80"/><rect x="208" y="80" width="8" height="8" fill="#FF5C5C"/><rect x="152" y="88" width="8" height="8" fill="#5AA9FF"/><rect x="200" y="88" width="24" height="8" fill="#FF8FB3"/><rect x="96" y="96" width="8" height="8" fill="#3DF2C8"/><rect x="120" y="96" width="16" height="8" fill="#FF8FB3"/><rect x="192" y="96" width="8" height="8" fill="#FF8FB3"/><rect x="200" y="96" width="8" height="8" fill="#F2F0FF"/><rect x="208" y="96" width="24" height="8" fill="#FF8FB3"/><rect x="40" y="104" width="8" height="8" fill="#FF8FB3"/><rect x="120" y="104" width="16" height="8" fill="#FFD166"/><rect x="192" y="104" width="40" height="8" fill="#FF8FB3"/><rect x="112" y="112" width="8" height="8" fill="#FF9F43"/><rect x="120" y="112" width="8" height="8" fill="#FFD166"/><rect x="128" y="112" width="8" height="8" fill="#FF9F43"/><rect x="136" y="112" width="8" height="8" fill="#FFD166"/><rect x="176" y="112" width="8" height="8" fill="#FFD166"/><rect x="200" y="112" width="24" height="8" fill="#FF8FB3"/><rect x="96" y="120" width="8" height="8" fill="#7C5CFF"/><rect x="104" y="120" width="8" height="8" fill="#FFD166"/><rect x="112" y="120" width="8" height="8" fill="#FF9F43"/><rect x="120" y="120" width="8" height="8" fill="#4ADE80"/><rect x="128" y="120" width="8" height="8" fill="#FF9F43"/><rect x="136" y="120" width="8" height="8" fill="#FFD166"/><rect x="144" y="120" width="8" height="8" fill="#FF9F43"/><rect x="152" y="120" width="8" height="8" fill="#7C5CFF"/><rect x="208" y="120" width="8" height="8" fill="#FF8FB3"/><rect x="64" y="128" width="8" height="8" fill="#FF5C5C"/><rect x="88" y="128" width="8" height="8" fill="#A892FF"/><rect x="96" y="128" width="72" height="8" fill="#7C5CFF"/><rect x="208" y="128" width="8" height="8" fill="#8E88A8"/><rect x="88" y="136" width="80" height="8" fill="#7C5CFF"/><rect x="200" y="136" width="8" height="8" fill="#5AA9FF"/><rect x="208" y="136" width="8" height="8" fill="#8E88A8"/><rect x="80" y="144" width="64" height="8" fill="#7C5CFF"/><rect x="144" y="144" width="8" height="8" fill="#3DF2C8"/><rect x="152" y="144" width="24" height="8" fill="#7C5CFF"/><rect x="176" y="144" width="8" height="8" fill="#5A3FD1"/><rect x="24" y="152" width="16" height="8" fill="#FF5C5C"/><rect x="80" y="152" width="8" height="8" fill="#7C5CFF"/><rect x="88" y="152" width="8" height="8" fill="#FF8FB3"/><rect x="96" y="152" width="8" height="8" fill="#7C5CFF"/><rect x="104" y="152" width="8" height="8" fill="#1B1530"/><rect x="112" y="152" width="32" height="8" fill="#7C5CFF"/><rect x="144" y="152" width="8" height="8" fill="#1B1530"/><rect x="152" y="152" width="32" height="8" fill="#7C5CFF"/><rect x="16" y="160" width="8" height="8" fill="#FF5C5C"/><rect x="32" y="160" width="8" height="8" fill="#FFD166"/><rect x="40" y="160" width="8" height="8" fill="#FF5C5C"/><rect x="80" y="160" width="16" height="8" fill="#7C5CFF"/><rect x="96" y="160" width="8" height="8" fill="#1B1530"/><rect x="104" y="160" width="8" height="8" fill="#7C5CFF"/><rect x="112" y="160" width="8" height="8" fill="#1B1530"/><rect x="120" y="160" width="16" height="8" fill="#7C5CFF"/><rect x="136" y="160" width="8" height="8" fill="#1B1530"/><rect x="144" y="160" width="8" height="8" fill="#7C5CFF"/><rect x="152" y="160" width="8" height="8" fill="#1B1530"/><rect x="160" y="160" width="24" height="8" fill="#7C5CFF"/><rect x="8" y="168" width="16" height="8" fill="#5AA9FF"/><rect x="24" y="168" width="16" height="8" fill="#FF5C5C"/><rect x="40" y="168" width="16" height="8" fill="#5AA9FF"/><rect x="80" y="168" width="32" height="8" fill="#7C5CFF"/><rect x="112" y="168" width="8" height="8" fill="#1B1530"/><rect x="120" y="168" width="16" height="8" fill="#7C5CFF"/><rect x="136" y="168" width="8" height="8" fill="#1B1530"/><rect x="144" y="168" width="24" height="8" fill="#7C5CFF"/><rect x="168" y="168" width="8" height="8" fill="#4ADE80"/><rect x="176" y="168" width="8" height="8" fill="#7C5CFF"/><rect x="8" y="176" width="16" height="8" fill="#5AA9FF"/><rect x="24" y="176" width="16" height="8" fill="#FF5C5C"/><rect x="40" y="176" width="16" height="8" fill="#5AA9FF"/><rect x="80" y="176" width="8" height="8" fill="#5A3FD1"/><rect x="88" y="176" width="24" height="8" fill="#7C5CFF"/><rect x="112" y="176" width="8" height="8" fill="#FF5C5C"/><rect x="120" y="176" width="16" height="8" fill="#1B1530"/><rect x="136" y="176" width="32" height="8" fill="#7C5CFF"/><rect x="168" y="176" width="8" height="8" fill="#5A3FD1"/><rect x="8" y="184" width="16" height="8" fill="#5AA9FF"/><rect x="24" y="184" width="16" height="8" fill="#FF5C5C"/><rect x="40" y="184" width="24" height="8" fill="#5AA9FF"/><rect x="80" y="184" width="16" height="8" fill="#7C5CFF"/><rect x="104" y="184" width="16" height="8" fill="#7C5CFF"/><rect x="136" y="184" width="16" height="8" fill="#7C5CFF"/><rect x="160" y="184" width="16" height="8" fill="#7C5CFF"/><rect x="8" y="192" width="48" height="8" fill="#5AA9FF"/><rect x="80" y="192" width="8" height="8" fill="#7C5CFF"/><rect x="96" y="192" width="16" height="8" fill="#7C5CFF"/><rect x="144" y="192" width="16" height="8" fill="#7C5CFF"/><rect x="168" y="192" width="8" height="8" fill="#7C5CFF"/><rect x="192" y="192" width="8" height="8" fill="#3DF2C8"/></g><g class="f3"><rect x="56" y="8" width="8" height="8" fill="#5AA9FF"/><rect x="192" y="16" width="8" height="8" fill="#3DF2C8"/><rect x="136" y="24" width="8" height="8" fill="#FF8FB3"/><rect x="80" y="32" width="8" height="8" fill="#FFD166"/><rect x="216" y="40" width="8" height="8" fill="#4ADE80"/><rect x="160" y="48" width="8" height="8" fill="#FF5C5C"/><rect x="104" y="56" width="8" height="8" fill="#5AA9FF"/><rect x="48" y="64" width="8" height="8" fill="#3DF2C8"/><rect x="184" y="72" width="8" height="8" fill="#FF8FB3"/><rect x="128" y="80" width="8" height="8" fill="#FFD166"/><rect x="200" y="80" width="24" height="8" fill="#FF8FB3"/><rect x="72" y="88" width="8" height="8" fill="#4ADE80"/><rect x="192" y="88" width="8" height="8" fill="#FF8FB3"/><rect x="200" y="88" width="8" height="8" fill="#F2F0FF"/><rect x="208" y="88" width="24" height="8" fill="#FF8FB3"/><rect x="120" y="96" width="16" height="8" fill="#FF8FB3"/><rect x="192" y="96" width="16" height="8" fill="#FF8FB3"/><rect x="208" y="96" width="8" height="8" fill="#FF5C5C"/><rect x="216" y="96" width="16" height="8" fill="#FF8FB3"/><rect x="120" y="104" width="16" height="8" fill="#FFD166"/><rect x="152" y="104" width="8" height="8" fill="#5AA9FF"/><rect x="200" y="104" width="24" height="8" fill="#FF8FB3"/><rect x="96" y="112" width="8" height="8" fill="#3DF2C8"/><rect x="112" y="112" width="8" height="8" fill="#FF9F43"/><rect x="120" y="112" width="8" height="8" fill="#FFD166"/><rect x="128" y="112" width="8" height="8" fill="#FF9F43"/><rect x="136" y="112" width="8" height="8" fill="#FFD166"/><rect x="208" y="112" width="8" height="8" fill="#FF8FB3"/><rect x="40" y="120" width="8" height="8" fill="#FF8FB3"/><rect x="96" y="120" width="8" height="8" fill="#7C5CFF"/><rect x="104" y="120" width="8" height="8" fill="#FFD166"/><rect x="112" y="120" width="8" height="8" fill="#FF9F43"/><rect x="120" y="120" width="8" height="8" fill="#FFD166"/><rect x="128" y="120" width="8" height="8" fill="#FF9F43"/><rect x="136" y="120" width="8" height="8" fill="#FFD166"/><rect x="144" y="120" width="8" height="8" fill="#FF9F43"/><rect x="152" y="120" width="8" height="8" fill="#7C5CFF"/><rect x="208" y="120" width="8" height="8" fill="#8E88A8"/><rect x="88" y="128" width="8" height="8" fill="#A892FF"/><rect x="96" y="128" width="72" height="8" fill="#7C5CFF"/><rect x="176" y="128" width="8" height="8" fill="#FFD166"/><rect x="208" y="128" width="8" height="8" fill="#8E88A8"/><rect x="88" y="136" width="32" height="8" fill="#7C5CFF"/><rect x="120" y="136" width="8" height="8" fill="#4ADE80"/><rect x="128" y="136" width="40" height="8" fill="#7C5CFF"/><rect x="64" y="144" width="8" height="8" fill="#FF5C5C"/><rect x="80" y="144" width="96" height="8" fill="#7C5CFF"/><rect x="176" y="144" width="8" height="8" fill="#5A3FD1"/><rect x="24" y="152" width="16" height="8" fill="#FF5C5C"/><rect x="80" y="152" width="24" height="8" fill="#7C5CFF"/><rect x="104" y="152" width="8" height="8" fill="#1B1530"/><rect x="112" y="152" width="32" height="8" fill="#7C5CFF"/><rect x="144" y="152" width="8" height="8" fill="#1B1530"/><rect x="152" y="152" width="32" height="8" fill="#7C5CFF"/><rect x="200" y="152" width="8" height="8" fill="#5AA9FF"/><rect x="16" y="160" width="8" height="8" fill="#FF5C5C"/><rect x="40" y="160" width="8" height="8" fill="#FF5C5C"/><rect x="80" y="160" width="16" height="8" fill="#7C5CFF"/><rect x="96" y="160" width="8" height="8" fill="#1B1530"/><rect x="104" y="160" width="8" height="8" fill="#7C5CFF"/><rect x="112" y="160" width="8" height="8" fill="#1B1530"/><rect x="120" y="160" width="16" height="8" fill="#7C5CFF"/><rect x="136" y="160" width="8" height="8" fill="#1B1530"/><rect x="144" y="160" width="8" height="8" fill="#3DF2C8"/><rect x="152" y="160" width="8" height="8" fill="#1B1530"/><rect x="160" y="160" width="24" height="8" fill="#7C5CFF"/><rect x="8" y="168" width="16" height="8" fill="#5AA9FF"/><rect x="24" y="168" width="16" height="8" fill="#FF5C5C"/><rect x="40" y="168" width="16" height="8" fill="#5AA9FF"/><rect x="80" y="168" width="8" height="8" fill="#7C5CFF"/><rect x="88" y="168" width="8" height="8" fill="#FF8FB3"/><rect x="96" y="168" width="16" height="8" fill="#7C5CFF"/><rect x="112" y="168" width="8" height="8" fill="#1B1530"/><rect x="120" y="168" width="16" height="8" fill="#7C5CFF"/><rect x="136" y="168" width="8" height="8" fill="#1B1530"/><rect x="144" y="168" width="40" height="8" fill="#7C5CFF"/><rect x="8" y="176" width="16" height="8" fill="#5AA9FF"/><rect x="24" y="176" width="8" height="8" fill="#FF5C5C"/><rect x="32" y="176" width="8" height="8" fill="#FFD166"/><rect x="40" y="176" width="16" height="8" fill="#5AA9FF"/><rect x="80" y="176" width="8" height="8" fill="#5A3FD1"/><rect x="88" y="176" width="32" height="8" fill="#7C5CFF"/><rect x="120" y="176" width="16" height="8" fill="#1B1530"/><rect x="136" y="176" width="32" height="8" fill="#7C5CFF"/><rect x="168" y="176" width="8" height="8" fill="#5A3FD1"/><rect x="8" y="184" width="16" height="8" fill="#5AA9FF"/><rect x="24" y="184" width="16" height="8" fill="#FF5C5C"/><rect x="40" y="184" width="16" height="8" fill="#5AA9FF"/><rect x="80" y="184" width="16" height="8" fill="#7C5CFF"/><rect x="104" y="184" width="16" height="8" fill="#7C5CFF"/><rect x="136" y="184" width="16" height="8" fill="#7C5CFF"/><rect x="160" y="184" width="8" height="8" fill="#7C5CFF"/><rect x="168" y="184" width="8" height="8" fill="#4ADE80"/><rect x="8" y="192" width="48" height="8" fill="#5AA9FF"/><rect x="88" y="192" width="8" height="8" fill="#7C5CFF"/><rect x="104" y="192" width="8" height="8" fill="#7C5CFF"/><rect x="112" y="192" width="8" height="8" fill="#FF5C5C"/><rect x="136" y="192" width="16" height="8" fill="#7C5CFF"/><rect x="160" y="192" width="8" height="8" fill="#7C5CFF"/></g><g class="f4"><rect x="168" y="8" width="8" height="8" fill="#4ADE80"/><rect x="112" y="16" width="8" height="8" fill="#FF5C5C"/><rect x="56" y="24" width="8" height="8" fill="#5AA9FF"/><rect x="192" y="32" width="8" height="8" fill="#3DF2C8"/><rect x="136" y="40" width="8" height="8" fill="#FF8FB3"/><rect x="80" y="48" width="8" height="8" fill="#FFD166"/><rect x="216" y="56" width="8" height="8" fill="#4ADE80"/><rect x="160" y="64" width="8" height="8" fill="#FF5C5C"/><rect x="104" y="72" width="8" height="8" fill="#5AA9FF"/><rect x="48" y="80" width="8" height="8" fill="#3DF2C8"/><rect x="184" y="88" width="8" height="8" fill="#FF8FB3"/><rect x="200" y="88" width="24" height="8" fill="#FF8FB3"/><rect x="120" y="96" width="8" height="8" fill="#FF8FB3"/><rect x="128" y="96" width="8" height="8" fill="#FFD166"/><rect x="192" y="96" width="8" height="8" fill="#FF8FB3"/><rect x="200" y="96" width="8" height="8" fill="#F2F0FF"/><rect x="208" y="96" width="24" height="8" fill="#FF8FB3"/><rect x="72" y="104" width="8" height="8" fill="#4ADE80"/><rect x="120" y="104" width="16" height="8" fill="#FFD166"/><rect x="192" y="104" width="40" height="8" fill="#FF8FB3"/><rect x="112" y="112" width="8" height="8" fill="#FF9F43"/><rect x="120" y="112" width="8" height="8" fill="#FFD166"/><rect x="128" y="112" width="8" height="8" fill="#FF9F43"/><rect x="136" y="112" width="8" height="8" fill="#FFD166"/><rect x="200" y="112" width="8" height="8" fill="#FF8FB3"/><rect x="208" y="112" width="8" height="8" fill="#FF5C5C"/><rect x="216" y="112" width="8" height="8" fill="#FF8FB3"/><rect x="96" y="120" width="8" height="8" fill="#7C5CFF"/><rect x="104" y="120" width="8" height="8" fill="#FFD166"/><rect x="112" y="120" width="8" height="8" fill="#FF9F43"/><rect x="120" y="120" width="8" height="8" fill="#FFD166"/><rect x="128" y="120" width="8" height="8" fill="#FF9F43"/><rect x="136" y="120" width="8" height="8" fill="#FFD166"/><rect x="144" y="120" width="8" height="8" fill="#FF9F43"/><rect x="152" y="120" width="8" height="8" fill="#5AA9FF"/><rect x="208" y="120" width="8" height="8" fill="#FF8FB3"/><rect x="88" y="128" width="8" height="8" fill="#A892FF"/><rect x="96" y="128" width="8" height="8" fill="#3DF2C8"/><rect x="104" y="128" width="64" height="8" fill="#7C5CFF"/><rect x="208" y="128" width="8" height="8" fill="#8E88A8"/><rect x="40" y="136" width="8" height="8" fill="#FF8FB3"/><rect x="88" y="136" width="80" height="8" fill="#7C5CFF"/><rect x="208" y="136" width="8" height="8" fill="#8E88A8"/><rect x="80" y="144" width="96" height="8" fill="#7C5CFF"/><rect x="176" y="144" width="8" height="8" fill="#FFD166"/><rect x="24" y="152" width="16" height="8" fill="#FF5C5C"/><rect x="80" y="152" width="24" height="8" fill="#7C5CFF"/><rect x="104" y="152" width="8" height="8" fill="#1B1530"/><rect x="112" y="152" width="8" height="8" fill="#7C5CFF"/><rect x="120" y="152" width="8" height="8" fill="#4ADE80"/><rect x="128" y="152" width="16" height="8" fill="#7C5CFF"/><rect x="144" y="152" width="8" height="8" fill="#1B1530"/><rect x="152" y="152" width="32" height="8" fill="#7C5CFF"/><rect x="16" y="160" width="8" height="8" fill="#FF5C5C"/><rect x="40" y="160" width="8" height="8" fill="#FF5C5C"/><rect x="64" y="160" width="8" height="8" fill="#FF5C5C"/><rect x="80" y="160" width="16" height="8" fill="#7C5CFF"/><rect x="96" y="160" width="8" height="8" fill="#1B1530"/><rect x="104" y="160" width="8" height="8" fill="#7C5CFF"/><rect x="112" y="160" width="8" height="8" fill="#1B1530"/><rect x="120" y="160" width="16" height="8" fill="#7C5CFF"/><rect x="136" y="160" width="8" height="8" fill="#1B1530"/><rect x="144" y="160" width="8" height="8" fill="#7C5CFF"/><rect x="152" y="160" width="8" height="8" fill="#1B1530"/><rect x="160" y="160" width="24" height="8" fill="#7C5CFF"/><rect x="8" y="168" width="16" height="8" fill="#5AA9FF"/><rect x="24" y="168" width="16" height="8" fill="#FF5C5C"/><rect x="40" y="168" width="16" height="8" fill="#5AA9FF"/><rect x="80" y="168" width="32" height="8" fill="#7C5CFF"/><rect x="112" y="168" width="8" height="8" fill="#1B1530"/><rect x="120" y="168" width="16" height="8" fill="#7C5CFF"/><rect x="136" y="168" width="8" height="8" fill="#1B1530"/><rect x="144" y="168" width="40" height="8" fill="#7C5CFF"/><rect x="200" y="168" width="8" height="8" fill="#5AA9FF"/><rect x="8" y="176" width="16" height="8" fill="#5AA9FF"/><rect x="24" y="176" width="16" height="8" fill="#FF5C5C"/><rect x="40" y="176" width="16" height="8" fill="#5AA9FF"/><rect x="80" y="176" width="8" height="8" fill="#5A3FD1"/><rect x="88" y="176" width="32" height="8" fill="#7C5CFF"/><rect x="120" y="176" width="16" height="8" fill="#1B1530"/><rect x="136" y="176" width="8" height="8" fill="#7C5CFF"/><rect x="144" y="176" width="8" height="8" fill="#3DF2C8"/><rect x="152" y="176" width="16" height="8" fill="#7C5CFF"/><rect x="168" y="176" width="8" height="8" fill="#5A3FD1"/><rect x="8" y="184" width="16" height="8" fill="#5AA9FF"/><rect x="24" y="184" width="16" height="8" fill="#FF5C5C"/><rect x="40" y="184" width="16" height="8" fill="#5AA9FF"/><rect x="80" y="184" width="8" height="8" fill="#7C5CFF"/><rect x="88" y="184" width="8" height="8" fill="#FF8FB3"/><rect x="104" y="184" width="16" height="8" fill="#7C5CFF"/><rect x="136" y="184" width="16" height="8" fill="#7C5CFF"/><rect x="160" y="184" width="16" height="8" fill="#7C5CFF"/><rect x="8" y="192" width="24" height="8" fill="#5AA9FF"/><rect x="32" y="192" width="8" height="8" fill="#FFD166"/><rect x="40" y="192" width="16" height="8" fill="#5AA9FF"/><rect x="80" y="192" width="8" height="8" fill="#7C5CFF"/><rect x="96" y="192" width="16" height="8" fill="#7C5CFF"/><rect x="144" y="192" width="16" height="8" fill="#7C5CFF"/><rect x="168" y="192" width="8" height="8" fill="#7C5CFF"/></g><g class="f5"><rect x="88" y="8" width="8" height="8" fill="#FF8FB3"/><rect x="32" y="16" width="8" height="8" fill="#FFD166"/><rect x="168" y="24" width="8" height="8" fill="#4ADE80"/><rect x="112" y="32" width="8" height="8" fill="#FF5C5C"/><rect x="56" y="40" width="8" height="8" fill="#5AA9FF"/><rect x="192" y="48" width="8" height="8" fill="#3DF2C8"/><rect x="136" y="56" width="8" height="8" fill="#FF8FB3"/><rect x="80" y="64" width="8" height="8" fill="#FFD166"/><rect x="216" y="72" width="8" height="8" fill="#4ADE80"/><rect x="160" y="80" width="8" height="8" fill="#FF5C5C"/><rect x="200" y="80" width="24" height="8" fill="#FF8FB3"/><rect x="104" y="88" width="8" height="8" fill="#5AA9FF"/><rect x="192" y="88" width="8" height="8" fill="#FF8FB3"/><rect x="200" y="88" width="8" height="8" fill="#F2F0FF"/><rect x="208" y="88" width="24" height="8" fill="#FF8FB3"/><rect x="48" y="96" width="8" height="8" fill="#3DF2C8"/><rect x="120" y="96" width="16" height="8" fill="#FF8FB3"/><rect x="192" y="96" width="40" height="8" fill="#FF8FB3"/><rect x="120" y="104" width="16" height="8" fill="#FFD166"/><rect x="184" y="104" width="8" height="8" fill="#FF8FB3"/><rect x="200" y="104" width="24" height="8" fill="#FF8FB3"/><rect x="112" y="112" width="8" height="8" fill="#FF9F43"/><rect x="120" y="112" width="24" height="8" fill="#FFD166"/><rect x="208" y="112" width="8" height="8" fill="#FF8FB3"/><rect x="72" y="120" width="8" height="8" fill="#4ADE80"/><rect x="96" y="120" width="8" height="8" fill="#7C5CFF"/><rect x="104" y="120" width="8" height="8" fill="#FFD166"/><rect x="112" y="120" width="8" height="8" fill="#FF9F43"/><rect x="120" y="120" width="8" height="8" fill="#FFD166"/><rect x="128" y="120" width="8" height="8" fill="#FF9F43"/><rect x="136" y="120" width="8" height="8" fill="#FFD166"/><rect x="144" y="120" width="8" height="8" fill="#FF9F43"/><rect x="152" y="120" width="8" height="8" fill="#7C5CFF"/><rect x="208" y="120" width="8" height="8" fill="#8E88A8"/><rect x="88" y="128" width="8" height="8" fill="#A892FF"/><rect x="96" y="128" width="72" height="8" fill="#7C5CFF"/><rect x="208" y="128" width="8" height="8" fill="#FF5C5C"/><rect x="88" y="136" width="64" height="8" fill="#7C5CFF"/><rect x="152" y="136" width="8" height="8" fill="#5AA9FF"/><rect x="160" y="136" width="8" height="8" fill="#7C5CFF"/><rect x="80" y="144" width="16" height="8" fill="#7C5CFF"/><rect x="96" y="144" width="8" height="8" fill="#3DF2C8"/><rect x="104" y="144" width="72" height="8" fill="#7C5CFF"/><rect x="176" y="144" width="8" height="8" fill="#5A3FD1"/><rect x="24" y="152" width="16" height="8" fill="#FF5C5C"/><rect x="40" y="152" width="8" height="8" fill="#FF8FB3"/><rect x="80" y="152" width="24" height="8" fill="#7C5CFF"/><rect x="104" y="152" width="8" height="8" fill="#1B1530"/><rect x="112" y="152" width="32" height="8" fill="#7C5CFF"/><rect x="144" y="152" width="8" height="8" fill="#1B1530"/><rect x="152" y="152" width="32" height="8" fill="#7C5CFF"/><rect x="16" y="160" width="8" height="8" fill="#FF5C5C"/><rect x="40" y="160" width="8" height="8" fill="#FF5C5C"/><rect x="80" y="160" width="16" height="8" fill="#7C5CFF"/><rect x="96" y="160" width="8" height="8" fill="#1B1530"/><rect x="104" y="160" width="8" height="8" fill="#7C5CFF"/><rect x="112" y="160" width="8" height="8" fill="#1B1530"/><rect x="120" y="160" width="16" height="8" fill="#7C5CFF"/><rect x="136" y="160" width="8" height="8" fill="#1B1530"/><rect x="144" y="160" width="8" height="8" fill="#7C5CFF"/><rect x="152" y="160" width="8" height="8" fill="#1B1530"/><rect x="160" y="160" width="16" height="8" fill="#7C5CFF"/><rect x="176" y="160" width="8" height="8" fill="#FFD166"/><rect x="8" y="168" width="16" height="8" fill="#5AA9FF"/><rect x="24" y="168" width="16" height="8" fill="#FF5C5C"/><rect x="40" y="168" width="16" height="8" fill="#5AA9FF"/><rect x="80" y="168" width="32" height="8" fill="#7C5CFF"/><rect x="112" y="168" width="8" height="8" fill="#1B1530"/><rect x="120" y="168" width="8" height="8" fill="#4ADE80"/><rect x="128" y="168" width="8" height="8" fill="#7C5CFF"/><rect x="136" y="168" width="8" height="8" fill="#1B1530"/><rect x="144" y="168" width="40" height="8" fill="#7C5CFF"/><rect x="8" y="176" width="16" height="8" fill="#5AA9FF"/><rect x="24" y="176" width="16" height="8" fill="#FF5C5C"/><rect x="40" y="176" width="16" height="8" fill="#5AA9FF"/><rect x="64" y="176" width="8" height="8" fill="#FF5C5C"/><rect x="80" y="176" width="8" height="8" fill="#5A3FD1"/><rect x="88" y="176" width="32" height="8" fill="#7C5CFF"/><rect x="120" y="176" width="16" height="8" fill="#1B1530"/><rect x="136" y="176" width="32" height="8" fill="#7C5CFF"/><rect x="168" y="176" width="8" height="8" fill="#5A3FD1"/><rect x="8" y="184" width="16" height="8" fill="#5AA9FF"/><rect x="24" y="184" width="16" height="8" fill="#FF5C5C"/><rect x="40" y="184" width="16" height="8" fill="#5AA9FF"/><rect x="80" y="184" width="16" height="8" fill="#7C5CFF"/><rect x="104" y="184" width="16" height="8" fill="#7C5CFF"/><rect x="136" y="184" width="16" height="8" fill="#7C5CFF"/><rect x="160" y="184" width="16" height="8" fill="#7C5CFF"/><rect x="200" y="184" width="8" height="8" fill="#5AA9FF"/><rect x="8" y="192" width="48" height="8" fill="#5AA9FF"/><rect x="88" y="192" width="8" height="8" fill="#7C5CFF"/><rect x="104" y="192" width="16" height="8" fill="#7C5CFF"/><rect x="136" y="192" width="8" height="8" fill="#7C5CFF"/><rect x="144" y="192" width="8" height="8" fill="#3DF2C8"/><rect x="160" y="192" width="8" height="8" fill="#7C5CFF"/></g></svg>
