<svg xmlns="http://www.w3.org/2000/svg" viewBox="0 0 136 208" width="136" height="208" shape-rendering="crispEdges"><style>@keyframes f0{0%{visibility:visible}33.333%{visibility:hidden}100%{visibility:hidden}}.f0{animation:f0 1200ms steps(1,end) infinite}@keyframes f1{0%{visibility:hidden}33.333%{visibility:visible}66.667%{visibility:hidden}100%{visibility:hidden}}.f1{animation:f1 1200ms steps(1,end) infinite}@keyframes f2{0%{visibility:hidden}66.667%{visibility:visible}100%{visibility:visible}}.f2{animation:f2 1200ms steps(1,end) infinite}</style><g class="f0"><rect x="80" y="8" width="40" height="8" fill="#F2F0FF"/><rect x="72" y="16" width="56" height="8" fill="#F2F0FF"/><rect x="72" y="24" width="56" height="8" fill="#F2F0FF"/><rect x="80" y="32" width="40" height="8" fill="#F2F0FF"/><rect x="72" y="40" width="8" height="8" fill="#F2F0FF"/><rect x="104" y="40" width="8" height="8" fill="#F2F0FF"/><rect x="48" y="104" width="16" height="8" fill="#3DF2C8"/><rect x="48" y="112" width="16" height="8" fill="#5A3FD1"/><rect x="24" y="120" width="64" height="8" fill="#7C5CFF"/><rect x="16" y="128" width="8" height="8" fill="#A892FF"/><rect x="24" y="128" width="72" height="8" fill="#7C5CFF"/><rect x="16" y="136" width="80" height="8" fill="#7C5CFF"/><rect x="8" y="144" width="24" height="8" fill="#7C5CFF"/><rect x="32" y="144" width="8" height="8" fill="#1B1530"/><rect x="40" y="144" width="32" height="8" fill="#7C5CFF"/><rect x="72" y="144" width="8" height="8" fill="#1B1530"/><rect x="80" y="144" width="24" height="8" fill="#7C5CFF"/><rect x="8" y="152" width="24" height="8" fill="#7C5CFF"/><rect x="32" y="152" width="8" height="8" fill="#1B1530"/><rect x="40" y="152" width="32" height="8" fill="#7C5CFF"/><rect x="72" y="152" width="8" height="8" fill="#1B1530"/><rect x="80" y="152" width="24" height="8" fill="#7C5CFF"/><rect x="8" y="160" width="96" height="8" fill="#7C5CFF"/><rect x="8" y="168" width="40" height="8" fill="#7C5CFF"/><rect x="48" y="168" width="8" height="8" fill="#1B1530"/><rect x="56" y="168" width="48" height="8" fill="#7C5CFF"/><rect x="8" y="176" width="8" height="8" fill="#5A3FD1"/><rect x="16" y="176" width="80" height="8" fill="#7C5CFF"/><rect x="96" y="176" width="8" height="8" fill="#5A3FD1"/><rect x="8" y="184" width="16" height="8" fill="#7C5CFF"/><rect x="32" y="184" width="16" height="8" fill="#7C5CFF"/><rect x="64" y="184" width="16" height="8" fill="#7C5CFF"/><rect x="88" y="184" width="16" height="8" fill="#7C5CFF"/><rect x="8" y="192" width="8" height="8" fill="#7C5CFF"/><rect x="24" y="192" width="16" height="8" fill="#7C5CFF"/><rect x="72" y="192" width="16" height="8" fill="#7C5CFF"/><rect x="96" y="192" width="8" height="8" fill="#7C5CFF"/></g><g class="f1"><rect x="80" y="8" width="40" height="8" fill="#F2F0FF"/><rect x="72" y="16" width="24" height="8" fill="#F2F0FF"/><rect x="96" y="16" width="8" height="8" fill="#FFD166"/><rect x="104" y="16" width="8" height="8" fill="#F2F0FF"/><rect x="112" y="16" width="8" height="8" fill="#FFD166"/><rect x="120" y="16" width="8" height="8" fill="#F2F0FF"/><rect x="72" y="24" width="16" height="8" fill="#F2F0FF"/><rect x="88" y="24" width="40" height="8" fill="#FFD166"/><rect x="80" y="32" width="8" height="8" fill="#F2F0FF"/><rect x="88" y="32" width="16" height="8" fill="#FFD166"/><rect x="104" y="32" width="8" height="8" fill="#0A0714"/><rect x="112" y="32" width="16" height="8" fill="#FFD166"/><rect x="72" y="40" width="8" height="8" fill="#F2F0FF"/><rect x="88" y="40" width="40" height="8" fill="#FFD166"/><rect x="96" y="48" width="8" height="8" fill="#FFD166"/><rect x="112" y="48" width="8" height="8" fill="#FFD166"/><rect x="48" y="104" width="16" height="8" fill="#3DF2C8"/><rect x="48" y="112" width="16" height="8" fill="#5A3FD1"/><rect x="24" y="120" width="64" height="8" fill="#7C5CFF"/><rect x="16" y="128" width="8" height="8" fill="#A892FF"/><rect x="24" y="128" width="72" height="8" fill="#7C5CFF"/><rect x="16" y="136" width="80" height="8" fill="#7C5CFF"/><rect x="8" y="144" width="96" height="8" fill="#7C5CFF"/><rect x="8" y="152" width="32" height="8" fill="#7C5CFF"/><rect x="40" y="152" width="8" height="8" fill="#1B1530"/><rect x="48" y="152" width="32" height="8" fill="#7C5CFF"/><rect x="80" y="152" width="8" height="8" fill="#1B1530"/><rect x="88" y="152" width="16" height="8" fill="#7C5CFF"/><rect x="8" y="160" width="32" height="8" fill="#7C5CFF"/><rect x="40" y="160" width="8" height="8" fill="#1B1530"/><rect x="48" y="160" width="32" height="8" fill="#7C5CFF"/><rect x="80" y="160" width="8" height="8" fill="#1B1530"/><rect x="88" y="160" width="16" height="8" fill="#7C5CFF"/><rect x="8" y="168" width="40" height="8" fill="#7C5CFF"/><rect x="48" y="168" width="8" height="8" fill="#1B1530"/><rect x="56" y="168" width="48" height="8" fill="#7C5CFF"/><rect x="8" y="176" width="8" height="8" fill="#5A3FD1"/><rect x="16" y="176" width="80" height="8" fill="#7C5CFF"/><rect x="96" y="176" width="8" height="8" fill="#5A3FD1"/><rect x="8" y="184" width="16" height="8" fill="#7C5CFF"/><rect x="32" y="184" width="16" height="8" fill="#7C5CFF"/><rect x="64" y="184" width="16" height="8" fill="#7C5CFF"/><rect x="88" y="184" width="16" height="8" fill="#7C5CFF"/><rect x="16" y="192" width="8" height="8" fill="#7C5CFF"/><rect x="32" y="192" width="16" height="8" fill="#7C5CFF"/><rect x="64" y="192" width="16" height="8" fill="#7C5CFF"/><rect x="88" y="192" width="8" height="8" fill="#7C5CFF"/></g><g class="f2"><rect x="80" y="8" width="40" height="8" fill="#F2F0FF"/><rect x="72" y="16" width="48" height="8" fill="#F2F0FF"/><rect x="120" y="16" width="8" height="8" fill="#4ADE80"/><rect x="72" y="24" width="40" height="8" fill="#F2F0FF"/><rect x="112" y="24" width="8" height="8" fill="#4ADE80"/><rect x="120" y="24" width="8" height="8" fill="#F2F0FF"/><rect x="80" y="32" width="8" height="8" fill="#F2F0FF"/><rect x="88" y="32" width="8" height="8" fill="#4ADE80"/><rect x="96" y="32" width="8" height="8" fill="#F2F0FF"/><rect x="104" y="32" width="8" height="8" fill="#4ADE80"/><rect x="112" y="32" width="8" height="8" fill="#F2F0FF"/><rect x="72" y="40" width="8" height="8" fill="#F2F0FF"/><rect x="96" y="40" width="8" height="8" fill="#4ADE80"/><rect x="48" y="104" width="16" height="8" fill="#3DF2C8"/><rect x="48" y="112" width="16" height="8" fill="#5A3FD1"/><rect x="24" y="120" width="64" height="8" fill="#7C5CFF"/><rect x="16" y="128" width="8" height="8" fill="#A892FF"/><rect x="24" y="128" width="72" height="8" fill="#7C5CFF"/><rect x="16" y="136" width="80" height="8" fill="#7C5CFF"/><rect x="8" y="144" width="96" height="8" fill="#7C5CFF"/><rect x="8" y="152" width="16" height="8" fill="#7C5CFF"/><rect x="24" y="152" width="8" height="8" fill="#1B1530"/><rect x="32" y="152" width="32" height="8" fill="#7C5CFF"/><rect x="64" y="152" width="8" height="8" fill="#1B1530"/><rect x="72" y="152" width="32" height="8" fill="#7C5CFF"/><rect x="8" y="160" width="16" height="8" fill="#7C5CFF"/><rect x="24" y="160" width="8" height="8" fill="#1B1530"/><rect x="32" y="160" width="32" height="8" fill="#7C5CFF"/><rect x="64" y="160" width="8" height="8" fill="#1B1530"/><rect x="72" y="160" width="32" height="8" fill="#7C5CFF"/><rect x="8" y="168" width="40" height="8" fill="#7C5CFF"/><rect x="48" y="168" width="8" height="8" fill="#1B1530"/><rect x="56" y="168" width="48" height="8" fill="#7C5CFF"/><rect x="8" y="176" width="8" height="8" fill="#5A3FD1"/><rect x="16" y="176" width="80" height="8" fill="#7C5CFF"/><rect x="96" y="176" width="8" height="8" fill="#5A3FD1"/><rect x="8" y="184" width="16" height="8" fill="#7C5CFF"/><rect x="32" y="184" width="16" height="8" fill="#7C5CFF"/><rect x="64" y="184" width="16" height="8" fill="#7C5CFF"/><rect x="88" y="184" width="16" height="8" fill="#7C5CFF"/><rect x="8" y="192" width="8" height="8" fill="#7C5CFF"/><rect x="24" y="192" width="16" height="8" fill="#7C5CFF"/><rect x="72" y="192" width="16" height="8" fill="#7C5CFF"/><rect x="96" y="192" width="8" height="8" fill="#7C5CFF"/></g></svg>
