<svg xmlns="http://www.w3.org/2000/svg" viewBox="0 0 256 208" width="256" height="208" shape-rendering="crispEdges"><style>@keyframes f0{0%{visibility:visible}14.286%{visibility:hidden}100%{visibility:hidden}}.f0{animation:f0 1400ms steps(1,end) infinite}@keyframes f1{0%{visibility:hidden}14.286%{visibility:visible}28.571%{visibility:hidden}100%{visibility:hidden}}.f1{animation:f1 1400ms steps(1,end) infinite}@keyframes f2{0%{visibility:hidden}28.571%{visibility:visible}42.857%{visibility:hidden}100%{visibility:hidden}}.f2{animation:f2 1400ms steps(1,end) infinite}@keyframes f3{0%{visibility:hidden}42.857%{visibility:visible}57.143%{visibility:hidden}100%{visibility:hidden}}.f3{animation:f3 1400ms steps(1,end) infinite}@keyframes f4{0%{visibility:hidden}57.143%{visibility:visible}78.571%{visibility:hidden}100%{visibility:hidden}}.f4{animation:f4 1400ms steps(1,end) infinite}@keyframes f5{0%{visibility:hidden}78.571%{visibility:visible}100%{visibility:visible}}.f5{animation:f5 1400ms steps(1,end) infinite}</style><g class="f0"><rect x="96" y="104" width="16" height="8" fill="#3DF2C8"/><rect x="96" y="112" width="16" height="8" fill="#5A3FD1"/><rect x="200" y="112" width="8" height="8" fill="#3DF2C8"/><rect x="72" y="120" width="64" height="8" fill="#7C5CFF"/><rect x="200" y="120" width="8" height="8" fill="#3DF2C8"/><rect x="64" y="128" width="8" height="8" fill="#A892FF"/><rect x="72" y="128" width="72" height="8" fill="#7C5CFF"/><rect x="200" y="128" width="8" height="8" fill="#3DF2C8"/><rect x="64" y="136" width="80" height="8" fill="#7C5CFF"/><rect x="200" y="136" width="8" height="8" fill="#3DF2C8"/><rect x="56" y="144" width="96" height="8" fill="#7C5CFF"/><rect x="200" y="144" width="8" height="8" fill="#3DF2C8"/><rect x="56" y="152" width="32" height="8" fill="#7C5CFF"/><rect x="88" y="152" width="8" height="8" fill="#1B1530"/><rect x="96" y="152" width="32" height="8" fill="#7C5CFF"/><rect x="128" y="152" width="8" height="8" fill="#1B1530"/><rect x="136" y="152" width="16" height="8" fill="#7C5CFF"/><rect x="200" y="152" width="8" height="8" fill="#3DF2C8"/><rect x="56" y="160" width="32" height="8" fill="#7C5CFF"/><rect x="88" y="160" width="8" height="8" fill="#1B1530"/><rect x="96" y="160" width="32" height="8" fill="#7C5CFF"/><rect x="128" y="160" width="8" height="8" fill="#1B1530"/><rect x="136" y="160" width="16" height="8" fill="#7C5CFF"/><rect x="200" y="160" width="8" height="8" fill="#3DF2C8"/><rect x="56" y="168" width="40" height="8" fill="#7C5CFF"/><rect x="96" y="168" width="16" height="8" fill="#1B1530"/><rect x="112" y="168" width="40" height="8" fill="#7C5CFF"/><rect x="200" y="168" width="8" height="8" fill="#3DF2C8"/><rect x="56" y="176" width="8" height="8" fill="#5A3FD1"/><rect x="64" y="176" width="80" height="8" fill="#7C5CFF"/><rect x="144" y="176" width="8" height="8" fill="#5A3FD1"/><rect x="200" y="176" width="8" height="8" fill="#3DF2C8"/><rect x="56" y="184" width="16" height="8" fill="#7C5CFF"/><rect x="80" y="184" width="16" height="8" fill="#7C5CFF"/><rect x="112" y="184" width="16" height="8" fill="#7C5CFF"/><rect x="136" y="184" width="16" height="8" fill="#7C5CFF"/><rect x="200" y="184" width="8" height="8" fill="#3DF2C8"/><rect x="56" y="192" width="8" height="8" fill="#7C5CFF"/><rect x="72" y="192" width="16" height="8" fill="#7C5CFF"/><rect x="120" y="192" width="16" height="8" fill="#7C5CFF"/><rect x="144" y="192" width="8" height="8" fill="#7C5CFF"/></g><g class="f1"><rect x="96" y="104" width="16" height="8" fill="#3DF2C8"/><rect x="96" y="112" width="16" height="8" fill="#5A3FD1"/><rect x="200" y="112" width="8" height="8" fill="#3DF2C8"/><rect x="72" y="120" width="64" height="8" fill="#7C5CFF"/><rect x="200" y="120" width="8" height="8" fill="#3DF2C8"/><rect x="64" y="128" width="8" height="8" fill="#A892FF"/><rect x="72" y="128" width="72" height="8" fill="#7C5CFF"/><rect x="200" y="128" width="8" height="8" fill="#3DF2C8"/><rect x="208" y="128" width="8" height="8" fill="#FF8FB3"/><rect x="64" y="136" width="80" height="8" fill="#7C5CFF"/><rect x="200" y="136" width="8" height="8" fill="#3DF2C8"/><rect x="216" y="136" width="8" height="8" fill="#FF8FB3"/><rect x="56" y="144" width="96" height="8" fill="#7C5CFF"/><rect x="200" y="144" width="8" height="8" fill="#3DF2C8"/><rect x="224" y="144" width="16" height="8" fill="#FF8FB3"/><rect x="56" y="152" width="32" height="8" fill="#7C5CFF"/><rect x="88" y="152" width="8" height="8" fill="#1B1530"/><rect x="96" y="152" width="32" height="8" fill="#7C5CFF"/><rect x="128" y="152" width="8" height="8" fill="#1B1530"/><rect x="136" y="152" width="16" height="8" fill="#7C5CFF"/><rect x="200" y="152" width="8" height="8" fill="#3DF2C8"/><rect x="240" y="152" width="8" height="8" fill="#FF8FB3"/><rect x="56" y="160" width="32" height="8" fill="#7C5CFF"/><rect x="88" y="160" width="8" height="8" fill="#1B1530"/><rect x="96" y="160" width="32" height="8" fill="#7C5CFF"/><rect x="128" y="160" width="8" height="8" fill="#1B1530"/><rect x="136" y="160" width="16" height="8" fill="#7C5CFF"/><rect x="200" y="160" width="8" height="8" fill="#3DF2C8"/><rect x="240" y="160" width="8" height="8" fill="#FF8FB3"/><rect x="56" y="168" width="40" height="8" fill="#7C5CFF"/><rect x="96" y="168" width="16" height="8" fill="#1B1530"/><rect x="112" y="168" width="40" height="8" fill="#7C5CFF"/><rect x="200" y="168" width="8" height="8" fill="#3DF2C8"/><rect x="56" y="176" width="8" height="8" fill="#5A3FD1"/><rect x="64" y="176" width="80" height="8" fill="#7C5CFF"/><rect x="144" y="176" width="8" height="8" fill="#5A3FD1"/><rect x="200" y="176" width="8" height="8" fill="#3DF2C8"/><rect x="56" y="184" width="16" height="8" fill="#7C5CFF"/><rect x="80" y="184" width="16" height="8" fill="#7C5CFF"/><rect x="112" y="184" width="16" height="8" fill="#7C5CFF"/><rect x="136" y="184" width="16" height="8" fill="#7C5CFF"/><rect x="200" y="184" width="8" height="8" fill="#3DF2C8"/><rect x="64" y="192" width="8" height="8" fill="#7C5CFF"/><rect x="80" y="192" width="16" height="8" fill="#7C5CFF"/><rect x="112" y="192" width="16" height="8" fill="#7C5CFF"/><rect x="136" y="192" width="8" height="8" fill="#7C5CFF"/></g><g class="f2"><rect x="96" y="104" width="16" height="8" fill="#3DF2C8"/><rect x="96" y="112" width="16" height="8" fill="#5A3FD1"/><rect x="200" y="112" width="8" height="8" fill="#3DF2C8"/><rect x="72" y="120" width="64" height="8" fill="#7C5CFF"/><rect x="200" y="120" width="8" height="8" fill="#3DF2C8"/><rect x="64" y="128" width="8" height="8" fill="#A892FF"/><rect x="72" y="128" width="72" height="8" fill="#7C5CFF"/><rect x="200" y="128" width="8" height="8" fill="#3DF2C8"/><rect x="208" y="128" width="8" height="8" fill="#FF8FB3"/><rect x="64" y="136" width="80" height="8" fill="#7C5CFF"/><rect x="200" y="136" width="8" height="8" fill="#3DF2C8"/><rect x="216" y="136" width="8" height="8" fill="#FF8FB3"/><rect x="56" y="144" width="96" height="8" fill="#7C5CFF"/><rect x="200" y="144" width="8" height="8" fill="#3DF2C8"/><rect x="224" y="144" width="16" height="8" fill="#FF8FB3"/><rect x="56" y="152" width="32" height="8" fill="#7C5CFF"/><rect x="88" y="152" width="8" height="8" fill="#1B1530"/><rect x="96" y="152" width="32" height="8" fill="#7C5CFF"/><rect x="128" y="152" width="8" height="8" fill="#1B1530"/><rect x="136" y="152" width="16" height="8" fill="#7C5CFF"/><rect x="200" y="152" width="8" height="8" fill="#3DF2C8"/><rect x="240" y="152" width="8" height="8" fill="#FFD166"/><rect x="56" y="160" width="32" height="8" fill="#7C5CFF"/><rect x="88" y="160" width="8" height="8" fill="#1B1530"/><rect x="96" y="160" width="32" height="8" fill="#7C5CFF"/><rect x="128" y="160" width="8" height="8" fill="#1B1530"/><rect x="136" y="160" width="16" height="8" fill="#7C5CFF"/><rect x="200" y="160" width="8" height="8" fill="#3DF2C8"/><rect x="240" y="160" width="8" height="8" fill="#FFD166"/><rect x="56" y="168" width="40" height="8" fill="#7C5CFF"/><rect x="96" y="168" width="16" height="8" fill="#1B1530"/><rect x="112" y="168" width="40" height="8" fill="#7C5CFF"/><rect x="200" y="168" width="8" height="8" fill="#3DF2C8"/><rect x="56" y="176" width="8" height="8" fill="#5A3FD1"/><rect x="64" y="176" width="80" height="8" fill="#7C5CFF"/><rect x="144" y="176" width="8" height="8" fill="#5A3FD1"/><rect x="200" y="176" width="8" height="8" fill="#3DF2C8"/><rect x="56" y="184" width="16" height="8" fill="#7C5CFF"/><rect x="80" y="184" width="16" height="8" fill="#7C5CFF"/><rect x="112" y="184" width="16" height="8" fill="#7C5CFF"/><rect x="136" y="184" width="16" height="8" fill="#7C5CFF"/><rect x="200" y="184" width="8" height="8" fill="#3DF2C8"/><rect x="56" y="192" width="8" height="8" fill="#7C5CFF"/><rect x="72" y="192" width="16" height="8" fill="#7C5CFF"/><rect x="120" y="192" width="16" height="8" fill="#7C5CFF"/><rect x="144" y="192" width="8" height="8" fill="#7C5CFF"/></g><g class="f3"><rect x="96" y="104" width="16" height="8" fill="#3DF2C8"/><rect x="96" y="112" width="16" height="8" fill="#5A3FD1"/><rect x="200" y="112" width="8" height="8" fill="#3DF2C8"/><rect x="72" y="120" width="64" height="8" fill="#7C5CFF"/><rect x="200" y="120" width="8" height="8" fill="#3DF2C8"/><rect x="64" y="128" width="8" height="8" fill="#A892FF"/><rect x="72" y="128" width="72" height="8" fill="#7C5CFF"/><rect x="200" y="128" width="8" height="8" fill="#3DF2C8"/><rect x="208" y="128" width="8" height="8" fill="#FF8FB3"/><rect x="64" y="136" width="80" height="8" fill="#7C5CFF"/><rect x="200" y="136" width="8" height="8" fill="#3DF2C8"/><rect x="216" y="136" width="8" height="8" fill="#FF8FB3"/><rect x="56" y="144" width="96" height="8" fill="#7C5CFF"/><rect x="200" y="144" width="8" height="8" fill="#3DF2C8"/><rect x="224" y="144" width="16" height="8" fill="#FF8FB3"/><rect x="56" y="152" width="32" height="8" fill="#7C5CFF"/><rect x="88" y="152" width="8" height="8" fill="#1B1530"/><rect x="96" y="152" width="32" height="8" fill="#7C5CFF"/><rect x="128" y="152" width="8" height="8" fill="#1B1530"/><rect x="136" y="152" width="16" height="8" fill="#7C5CFF"/><rect x="200" y="152" width="8" height="8" fill="#3DF2C8"/><rect x="240" y="152" width="8" height="8" fill="#FFD166"/><rect x="56" y="160" width="32" height="8" fill="#7C5CFF"/><rect x="88" y="160" width="8" height="8" fill="#1B1530"/><rect x="96" y="160" width="32" height="8" fill="#7C5CFF"/><rect x="128" y="160" width="8" height="8" fill="#1B1530"/><rect x="136" y="160" width="16" height="8" fill="#7C5CFF"/><rect x="200" y="160" width="8" height="8" fill="#3DF2C8"/><rect x="240" y="160" width="8" height="8" fill="#FFD166"/><rect x="56" y="168" width="40" height="8" fill="#7C5CFF"/><rect x="96" y="168" width="16" height="8" fill="#1B1530"/><rect x="112" y="168" width="40" height="8" fill="#7C5CFF"/><rect x="200" y="168" width="8" height="8" fill="#3DF2C8"/><rect x="232" y="168" width="8" height="8" fill="#FF8FB3"/><rect x="56" y="176" width="8" height="8" fill="#5A3FD1"/><rect x="64" y="176" width="80" height="8" fill="#7C5CFF"/><rect x="144" y="176" width="8" height="8" fill="#5A3FD1"/><rect x="200" y="176" width="8" height="8" fill="#FFD166"/><rect x="208" y="176" width="24" height="8" fill="#FF8FB3"/><rect x="56" y="184" width="16" height="8" fill="#7C5CFF"/><rect x="80" y="184" width="16" height="8" fill="#7C5CFF"/><rect x="112" y="184" width="16" height="8" fill="#7C5CFF"/><rect x="136" y="184" width="16" height="8" fill="#7C5CFF"/><rect x="200" y="184" width="8" height="8" fill="#3DF2C8"/><rect x="64" y="192" width="8" height="8" fill="#7C5CFF"/><rect x="80" y="192" width="16" height="8" fill="#7C5CFF"/><rect x="112" y="192" width="16" height="8" fill="#7C5CFF"/><rect x="136" y="192" width="8" height="8" fill="#7C5CFF"/></g><g class="f4"><rect x="72" y="8" width="8" height="8" fill="#3DF2C8"/><rect x="16" y="16" width="8" height="8" fill="#FF8FB3"/><rect x="152" y="24" width="8" height="8" fill="#FFD166"/><rect x="96" y="32" width="8" height="8" fill="#4ADE80"/><rect x="40" y="40" width="8" height="8" fill="#FF5C5C"/><rect x="176" y="48" width="8" height="8" fill="#5AA9FF"/><rect x="120" y="56" width="8" height="8" fill="#3DF2C8"/><rect x="64" y="64" width="8" height="8" fill="#FF8FB3"/><rect x="8" y="72" width="8" height="8" fill="#FFD166"/><rect x="144" y="80" width="8" height="8" fill="#4ADE80"/><rect x="88" y="88" width="8" height="8" fill="#FF5C5C"/><rect x="32" y="96" width="8" height="8" fill="#5AA9FF"/><rect x="96" y="104" width="16" height="8" fill="#3DF2C8"/><rect x="168" y="104" width="8" height="8" fill="#3DF2C8"/><rect x="96" y="112" width="16" height="8" fill="#5A3FD1"/><rect x="112" y="112" width="8" height="8" fill="#FF8FB3"/><rect x="200" y="112" width="8" height="8" fill="#3DF2C8"/><rect x="56" y="120" width="8" height="8" fill="#FFD166"/><rect x="72" y="120" width="64" height="8" fill="#7C5CFF"/><rect x="200" y="120" width="8" height="8" fill="#3DF2C8"/><rect x="64" y="128" width="8" height="8" fill="#A892FF"/><rect x="72" y="128" width="72" height="8" fill="#7C5CFF"/><rect x="192" y="128" width="8" height="8" fill="#4ADE80"/><rect x="200" y="128" width="8" height="8" fill="#3DF2C8"/><rect x="208" y="128" width="8" height="8" fill="#FF8FB3"/><rect x="64" y="136" width="72" height="8" fill="#7C5CFF"/><rect x="136" y="136" width="8" height="8" fill="#FF5C5C"/><rect x="200" y="136" width="8" height="8" fill="#3DF2C8"/><rect x="216" y="136" width="8" height="8" fill="#FF8FB3"/><rect x="32" y="144" width="8" height="8" fill="#5A3FD1"/><rect x="56" y="144" width="24" height="8" fill="#7C5CFF"/><rect x="80" y="144" width="8" height="8" fill="#5AA9FF"/><rect x="88" y="144" width="32" height="8" fill="#7C5CFF"/><rect x="120" y="144" width="8" height="8" fill="#FFD166"/><rect x="128" y="144" width="24" height="8" fill="#7C5CFF"/><rect x="168" y="144" width="8" height="8" fill="#5A3FD1"/><rect x="200" y="144" width="8" height="8" fill="#3DF2C8"/><rect x="224" y="144" width="16" height="8" fill="#FF8FB3"/><rect x="24" y="152" width="8" height="8" fill="#3DF2C8"/><rect x="32" y="152" width="8" height="8" fill="#7C5CFF"/><rect x="56" y="152" width="16" height="8" fill="#7C5CFF"/><rect x="72" y="152" width="24" height="8" fill="#FFD166"/><rect x="96" y="152" width="16" height="8" fill="#7C5CFF"/><rect x="112" y="152" width="24" height="8" fill="#FFD166"/><rect x="136" y="152" width="16" height="8" fill="#7C5CFF"/><rect x="168" y="152" width="8" height="8" fill="#7C5CFF"/><rect x="200" y="152" width="8" height="8" fill="#3DF2C8"/><rect x="240" y="152" width="8" height="8" fill="#FFD166"/><rect x="40" y="160" width="8" height="8" fill="#7C5CFF"/><rect x="56" y="160" width="24" height="8" fill="#7C5CFF"/><rect x="80" y="160" width="8" height="8" fill="#FFD166"/><rect x="88" y="160" width="32" height="8" fill="#7C5CFF"/><rect x="120" y="160" width="8" height="8" fill="#FFD166"/><rect x="128" y="160" width="24" height="8" fill="#7C5CFF"/><rect x="160" y="160" width="8" height="8" fill="#FF8FB3"/><rect x="200" y="160" width="8" height="8" fill="#3DF2C8"/><rect x="240" y="160" width="8" height="8" fill="#FFD166"/><rect x="48" y="168" width="40" height="8" fill="#7C5CFF"/><rect x="88" y="168" width="16" height="8" fill="#1B1530"/><rect x="104" y="168" width="8" height="8" fill="#FFD166"/><rect x="112" y="168" width="8" height="8" fill="#1B1530"/><rect x="120" y="168" width="40" height="8" fill="#7C5CFF"/><rect x="200" y="168" width="8" height="8" fill="#3DF2C8"/><rect x="232" y="168" width="8" height="8" fill="#FF8FB3"/><rect x="48" y="176" width="8" height="8" fill="#4ADE80"/><rect x="56" y="176" width="8" height="8" fill="#5A3FD1"/><rect x="64" y="176" width="32" height="8" fill="#7C5CFF"/><rect x="96" y="176" width="16" height="8" fill="#1B1530"/><rect x="112" y="176" width="32" height="8" fill="#7C5CFF"/><rect x="144" y="176" width="8" height="8" fill="#5A3FD1"/><rect x="200" y="176" width="8" height="8" fill="#FFD166"/><rect x="208" y="176" width="24" height="8" fill="#FF8FB3"/><rect x="56" y="184" width="16" height="8" fill="#7C5CFF"/><rect x="80" y="184" width="16" height="8" fill="#7C5CFF"/><rect x="112" y="184" width="16" height="8" fill="#7C5CFF"/><rect x="136" y="184" width="16" height="8" fill="#7C5CFF"/><rect x="184" y="184" width="8" height="8" fill="#FF5C5C"/><rect x="200" y="184" width="8" height="8" fill="#3DF2C8"/><rect x="56" y="192" width="8" height="8" fill="#7C5CFF"/><rect x="72" y="192" width="16" height="8" fill="#7C5CFF"/><rect x="120" y="192" width="8" height="8" fill="#7C5CFF"/><rect x="128" y="192" width="8" height="8" fill="#5AA9FF"/><rect x="144" y="192" width="8" height="8" fill="#7C5CFF"/></g><g class="f5"><rect x="104" y="8" width="8" height="8" fill="#FFD166"/><rect x="48" y="16" width="8" height="8" fill="#4ADE80"/><rect x="184" y="24" width="8" height="8" fill="#FF5C5C"/><rect x="128" y="32" width="8" height="8" fill="#5AA9FF"/><rect x="72" y="40" width="8" height="8" fill="#3DF2C8"/><rect x="16" y="48" width="8" height="8" fill="#FF8FB3"/><rect x="152" y="56" width="8" height="8" fill="#FFD166"/><rect x="96" y="64" width="8" height="8" fill="#4ADE80"/><rect x="40" y="72" width="8" height="8" fill="#FF5C5C"/><rect x="176" y="80" width="8" height="8" fill="#5AA9FF"/><rect x="120" y="88" width="8" height="8" fill="#3DF2C8"/><rect x="64" y="96" width="8" height="8" fill="#FF8FB3"/><rect x="96" y="96" width="16" height="8" fill="#3DF2C8"/><rect x="8" y="104" width="8" height="8" fill="#FFD166"/><rect x="96" y="104" width="16" height="8" fill="#5A3FD1"/><rect x="72" y="112" width="64" height="8" fill="#7C5CFF"/><rect x="144" y="112" width="8" height="8" fill="#4ADE80"/><rect x="200" y="112" width="8" height="8" fill="#3DF2C8"/><rect x="64" y="120" width="8" height="8" fill="#A892FF"/><rect x="72" y="120" width="16" height="8" fill="#7C5CFF"/><rect x="88" y="120" width="8" height="8" fill="#FF5C5C"/><rect x="96" y="120" width="48" height="8" fill="#7C5CFF"/><rect x="200" y="120" width="8" height="8" fill="#3DF2C8"/><rect x="32" y="128" width="8" height="8" fill="#5AA9FF"/><rect x="64" y="128" width="80" height="8" fill="#7C5CFF"/><rect x="200" y="128" width="8" height="8" fill="#3DF2C8"/><rect x="208" y="128" width="8" height="8" fill="#FF8FB3"/><rect x="32" y="136" width="8" height="8" fill="#5A3FD1"/><rect x="56" y="136" width="96" height="8" fill="#7C5CFF"/><rect x="168" y="136" width="8" height="8" fill="#3DF2C8"/><rect x="200" y="136" width="8" height="8" fill="#3DF2C8"/><rect x="216" y="136" width="8" height="8" fill="#FF8FB3"/><rect x="32" y="144" width="8" height="8" fill="#7C5CFF"/><rect x="56" y="144" width="24" height="8" fill="#7C5CFF"/><rect x="80" y="144" width="8" height="8" fill="#1B1530"/><rect x="88" y="144" width="24" height="8" fill="#7C5CFF"/><rect x="112" y="144" width="8" height="8" fill="#FF8FB3"/><rect x="120" y="144" width="8" height="8" fill="#1B1530"/><rect x="128" y="144" width="24" height="8" fill="#7C5CFF"/><rect x="168" y="144" width="8" height="8" fill="#7C5CFF"/><rect x="200" y="144" width="8" height="8" fill="#3DF2C8"/><rect x="224" y="144" width="16" height="8" fill="#FF8FB3"/><rect x="40" y="152" width="8" height="8" fill="#7C5CFF"/><rect x="56" y="152" width="8" height="8" fill="#FFD166"/><rect x="64" y="152" width="8" height="8" fill="#7C5CFF"/><rect x="72" y="152" width="8" height="8" fill="#1B1530"/><rect x="80" y="152" width="8" height="8" fill="#7C5CFF"/><rect x="88" y="152" width="8" height="8" fill="#1B1530"/><rect x="96" y="152" width="16" height="8" fill="#7C5CFF"/><rect x="112" y="152" width="8" height="8" fill="#1B1530"/><rect x="120" y="152" width="8" height="8" fill="#7C5CFF"/><rect x="128" y="152" width="8" height="8" fill="#1B1530"/><rect x="136" y="152" width="16" height="8" fill="#7C5CFF"/><rect x="160" y="152" width="8" height="8" fill="#7C5CFF"/><rect x="200" y="152" width="8" height="8" fill="#3DF2C8"/><rect x="240" y="152" width="8" height="8" fill="#FFD166"/><rect x="48" y="160" width="40" height="8" fill="#7C5CFF"/><rect x="88" y="160" width="32" height="8" fill="#1B1530"/><rect x="120" y="160" width="40" height="8" fill="#7C5CFF"/><rect x="192" y="160" width="8" height="8" fill="#4ADE80"/><rect x="200" y="160" width="8" height="8" fill="#3DF2C8"/><rect x="240" y="160" width="8" height="8" fill="#FFD166"/><rect x="56" y="168" width="8" height="8" fill="#5A3FD1"/><rect x="64" y="168" width="32" height="8" fill="#7C5CFF"/><rect x="96" y="168" width="16" height="8" fill="#1B1530"/><rect x="112" y="168" width="24" height="8" fill="#7C5CFF"/><rect x="136" y="168" width="8" height="8" fill="#FF5C5C"/><rect x="144" y="168" width="8" height="8" fill="#5A3FD1"/><rect x="200" y="168" width="8" height="8" fill="#3DF2C8"/><rect x="232" y="168" width="8" height="8" fill="#FF8FB3"/><rect x="56" y="176" width="16" height="8" fill="#7C5CFF"/><rect x="80" y="176" width="8" height="8" fill="#5AA9FF"/><rect x="88" y="176" width="8" height="8" fill="#7C5CFF"/><rect x="112" y="176" width="16" height="8" fill="#7C5CFF"/><rect x="136" y="176" width="16" height="8" fill="#7C5CFF"/><rect x="200" y="176" width="8" height="8" fill="#FFD166"/><rect x="208" y="176" width="24" height="8" fill="#FF8FB3"/><rect x="24" y="184" width="8" height="8" fill="#3DF2C8"/><rect x="64" y="184" width="8" height="8" fill="#7C5CFF"/><rect x="80" y="184" width="16" height="8" fill="#7C5CFF"/><rect x="112" y="184" width="16" height="8" fill="#7C5CFF"/><rect x="136" y="184" width="8" height="8" fill="#7C5CFF"/><rect x="200" y="184" width="8" height="8" fill="#3DF2C8"/><rect x="160" y="192" width="8" height="8" fill="#FF8FB3"/></g></svg>
