<svg xmlns="http://www.w3.org/2000/svg" viewBox="0 0 176 216" width="176" height="216" shape-rendering="crispEdges"><style>@keyframes f0{0%{visibility:visible}25.000%{visibility:hidden}100%{visibility:hidden}}.f0{animation:f0 2000ms steps(1,end) infinite}@keyframes f1{0%{visibility:hidden}25.000%{visibility:visible}50.000%{visibility:hidden}100%{visibility:hidden}}.f1{animation:f1 2000ms steps(1,end) infinite}@keyframes f2{0%{visibility:hidden}50.000%{visibility:visible}75.000%{visibility:hidden}100%{visibility:hidden}}.f2{animation:f2 2000ms steps(1,end) infinite}@keyframes f3{0%{visibility:hidden}75.000%{visibility:visible}100%{visibility:visible}}.f3{animation:f3 2000ms steps(1,end) infinite}</style><g class="f0"><rect x="56" y="0" width="8" height="8" fill="#F2F0FF"/><rect x="72" y="8" width="8" height="8" fill="#FFD166"/><rect x="8" y="16" width="8" height="8" fill="#FFD166"/><rect x="136" y="24" width="8" height="8" fill="#FFD166"/><rect x="88" y="32" width="8" height="8" fill="#FFD166"/><rect x="40" y="40" width="8" height="8" fill="#F2F0FF"/><rect x="144" y="40" width="24" height="8" fill="#FFD166"/><rect x="104" y="48" width="8" height="8" fill="#F2F0FF"/><rect x="136" y="48" width="16" height="8" fill="#FFD166"/><rect x="24" y="56" width="8" height="8" fill="#F2F0FF"/><rect x="136" y="56" width="8" height="8" fill="#FFD166"/><rect x="136" y="64" width="16" height="8" fill="#FFD166"/><rect x="144" y="72" width="24" height="8" fill="#FFD166"/><rect x="72" y="112" width="16" height="8" fill="#3DF2C8"/><rect x="72" y="120" width="16" height="8" fill="#5A3FD1"/><rect x="48" y="128" width="64" height="8" fill="#7C5CFF"/><rect x="40" y="136" width="8" height="8" fill="#A892FF"/><rect x="48" y="136" width="72" height="8" fill="#7C5CFF"/><rect x="40" y="144" width="80" height="8" fill="#7C5CFF"/><rect x="32" y="152" width="24" height="8" fill="#7C5CFF"/><rect x="56" y="152" width="8" height="8" fill="#1B1530"/><rect x="64" y="152" width="32" height="8" fill="#7C5CFF"/><rect x="96" y="152" width="8" height="8" fill="#1B1530"/><rect x="104" y="152" width="24" height="8" fill="#7C5CFF"/><rect x="32" y="160" width="24" height="8" fill="#7C5CFF"/><rect x="56" y="160" width="8" height="8" fill="#1B1530"/><rect x="64" y="160" width="32" height="8" fill="#7C5CFF"/><rect x="96" y="160" width="8" height="8" fill="#1B1530"/><rect x="104" y="160" width="24" height="8" fill="#7C5CFF"/><rect x="32" y="168" width="96" height="8" fill="#7C5CFF"/><rect x="32" y="176" width="40" height="8" fill="#7C5CFF"/><rect x="72" y="176" width="8" height="8" fill="#1B1530"/><rect x="80" y="176" width="48" height="8" fill="#7C5CFF"/><rect x="32" y="184" width="8" height="8" fill="#5A3FD1"/><rect x="40" y="184" width="80" height="8" fill="#7C5CFF"/><rect x="120" y="184" width="8" height="8" fill="#5A3FD1"/><rect x="32" y="192" width="16" height="8" fill="#7C5CFF"/><rect x="56" y="192" width="16" height="8" fill="#7C5CFF"/><rect x="88" y="192" width="16" height="8" fill="#7C5CFF"/><rect x="112" y="192" width="16" height="8" fill="#7C5CFF"/><rect x="32" y="200" width="8" height="8" fill="#7C5CFF"/><rect x="48" y="200" width="16" height="8" fill="#7C5CFF"/><rect x="96" y="200" width="16" height="8" fill="#7C5CFF"/><rect x="120" y="200" width="8" height="8" fill="#7C5CFF"/></g><g class="f1"><rect x="56" y="0" width="8" height="8" fill="#FFD166"/><rect x="72" y="8" width="8" height="8" fill="#F2F0FF"/><rect x="8" y="16" width="8" height="8" fill="#F2F0FF"/><rect x="136" y="24" width="8" height="8" fill="#F2F0FF"/><rect x="88" y="32" width="8" height="8" fill="#F2F0FF"/><rect x="40" y="40" width="8" height="8" fill="#FFD166"/><rect x="144" y="40" width="24" height="8" fill="#FFD166"/><rect x="104" y="48" width="8" height="8" fill="#FFD166"/><rect x="136" y="48" width="16" height="8" fill="#FFD166"/><rect x="24" y="56" width="8" height="8" fill="#FFD166"/><rect x="136" y="56" width="8" height="8" fill="#FFD166"/><rect x="136" y="64" width="16" height="8" fill="#FFD166"/><rect x="144" y="72" width="24" height="8" fill="#FFD166"/><rect x="72" y="112" width="16" height="8" fill="#3DF2C8"/><rect x="72" y="120" width="16" height="8" fill="#5A3FD1"/><rect x="48" y="128" width="64" height="8" fill="#7C5CFF"/><rect x="40" y="136" width="8" height="8" fill="#A892FF"/><rect x="48" y="136" width="72" height="8" fill="#7C5CFF"/><rect x="40" y="144" width="80" height="8" fill="#7C5CFF"/><rect x="32" y="152" width="24" height="8" fill="#7C5CFF"/><rect x="56" y="152" width="8" height="8" fill="#1B1530"/><rect x="64" y="152" width="32" height="8" fill="#7C5CFF"/><rect x="96" y="152" width="8" height="8" fill="#1B1530"/><rect x="104" y="152" width="24" height="8" fill="#7C5CFF"/><rect x="32" y="160" width="24" height="8" fill="#7C5CFF"/><rect x="56" y="160" width="8" height="8" fill="#1B1530"/><rect x="64" y="160" width="32" height="8" fill="#7C5CFF"/><rect x="96" y="160" width="8" height="8" fill="#1B1530"/><rect x="104" y="160" width="24" height="8" fill="#7C5CFF"/><rect x="32" y="168" width="96" height="8" fill="#7C5CFF"/><rect x="32" y="176" width="40" height="8" fill="#7C5CFF"/><rect x="72" y="176" width="8" height="8" fill="#1B1530"/><rect x="80" y="176" width="48" height="8" fill="#7C5CFF"/><rect x="32" y="184" width="8" height="8" fill="#5A3FD1"/><rect x="40" y="184" width="80" height="8" fill="#7C5CFF"/><rect x="120" y="184" width="8" height="8" fill="#5A3FD1"/><rect x="32" y="192" width="16" height="8" fill="#7C5CFF"/><rect x="56" y="192" width="16" height="8" fill="#7C5CFF"/><rect x="88" y="192" width="16" height="8" fill="#7C5CFF"/><rect x="112" y="192" width="16" height="8" fill="#7C5CFF"/><rect x="40" y="200" width="8" height="8" fill="#7C5CFF"/><rect x="56" y="200" width="16" height="8" fill="#7C5CFF"/><rect x="88" y="200" width="16" height="8" fill="#7C5CFF"/><rect x="112" y="200" width="8" height="8" fill="#7C5CFF"/></g><g class="f2"><rect x="56" y="0" width="8" height="8" fill="#F2F0FF"/><rect x="72" y="8" width="8" height="8" fill="#FFD166"/><rect x="8" y="16" width="8" height="8" fill="#FFD166"/><rect x="136" y="24" width="8" height="8" fill="#FFD166"/><rect x="88" y="32" width="8" height="8" fill="#FFD166"/><rect x="40" y="40" width="8" height="8" fill="#F2F0FF"/><rect x="144" y="40" width="24" height="8" fill="#FFD166"/><rect x="104" y="48" width="8" height="8" fill="#F2F0FF"/><rect x="136" y="48" width="16" height="8" fill="#FFD166"/><rect x="24" y="56" width="8" height="8" fill="#F2F0FF"/><rect x="136" y="56" width="8" height="8" fill="#FFD166"/><rect x="136" y="64" width="16" height="8" fill="#FFD166"/><rect x="144" y="72" width="24" height="8" fill="#FFD166"/><rect x="72" y="112" width="16" height="8" fill="#3DF2C8"/><rect x="72" y="120" width="16" height="8" fill="#5A3FD1"/><rect x="48" y="128" width="64" height="8" fill="#7C5CFF"/><rect x="40" y="136" width="8" height="8" fill="#A892FF"/><rect x="48" y="136" width="72" height="8" fill="#7C5CFF"/><rect x="40" y="144" width="80" height="8" fill="#7C5CFF"/><rect x="32" y="152" width="24" height="8" fill="#7C5CFF"/><rect x="56" y="152" width="8" height="8" fill="#1B1530"/><rect x="64" y="152" width="32" height="8" fill="#7C5CFF"/><rect x="96" y="152" width="8" height="8" fill="#1B1530"/><rect x="104" y="152" width="24" height="8" fill="#7C5CFF"/><rect x="32" y="160" width="24" height="8" fill="#7C5CFF"/><rect x="56" y="160" width="8" height="8" fill="#1B1530"/><rect x="64" y="160" width="32" height="8" fill="#7C5CFF"/><rect x="96" y="160" width="8" height="8" fill="#1B1530"/><rect x="104" y="160" width="24" height="8" fill="#7C5CFF"/><rect x="32" y="168" width="96" height="8" fill="#7C5CFF"/><rect x="32" y="176" width="40" height="8" fill="#7C5CFF"/><rect x="72" y="176" width="8" height="8" fill="#1B1530"/><rect x="80" y="176" width="48" height="8" fill="#7C5CFF"/><rect x="32" y="184" width="8" height="8" fill="#5A3FD1"/><rect x="40" y="184" width="80" height="8" fill="#7C5CFF"/><rect x="120" y="184" width="8" height="8" fill="#5A3FD1"/><rect x="32" y="192" width="16" height="8" fill="#7C5CFF"/><rect x="56" y="192" width="16" height="8" fill="#7C5CFF"/><rect x="88" y="192" width="16" height="8" fill="#7C5CFF"/><rect x="112" y="192" width="16" height="8" fill="#7C5CFF"/><rect x="32" y="200" width="8" height="8" fill="#7C5CFF"/><rect x="48" y="200" width="16" height="8" fill="#7C5CFF"/><rect x="96" y="200" width="16" height="8" fill="#7C5CFF"/><rect x="120" y="200" width="8" height="8" fill="#7C5CFF"/></g><g class="f3"><rect x="56" y="0" width="8" height="8" fill="#FFD166"/><rect x="72" y="8" width="8" height="8" fill="#F2F0FF"/><rect x="8" y="16" width="8" height="8" fill="#F2F0FF"/><rect x="136" y="24" width="8" height="8" fill="#F2F0FF"/><rect x="88" y="32" width="8" height="8" fill="#F2F0FF"/><rect x="40" y="40" width="8" height="8" fill="#FFD166"/><rect x="144" y="40" width="24" height="8" fill="#FFD166"/><rect x="104" y="48" width="8" height="8" fill="#FFD166"/><rect x="136" y="48" width="16" height="8" fill="#FFD166"/><rect x="24" y="56" width="8" height="8" fill="#FFD166"/><rect x="136" y="56" width="8" height="8" fill="#FFD166"/><rect x="136" y="64" width="16" height="8" fill="#FFD166"/><rect x="144" y="72" width="24" height="8" fill="#FFD166"/><rect x="72" y="112" width="16" height="8" fill="#3DF2C8"/><rect x="72" y="120" width="16" height="8" fill="#5A3FD1"/><rect x="48" y="128" width="64" height="8" fill="#7C5CFF"/><rect x="40" y="136" width="8" height="8" fill="#A892FF"/><rect x="48" y="136" width="72" height="8" fill="#7C5CFF"/><rect x="40" y="144" width="80" height="8" fill="#7C5CFF"/><rect x="32" y="152" width="24" height="8" fill="#7C5CFF"/><rect x="56" y="152" width="8" height="8" fill="#1B1530"/><rect x="64" y="152" width="32" height="8" fill="#7C5CFF"/><rect x="96" y="152" width="8" height="8" fill="#1B1530"/><rect x="104" y="152" width="24" height="8" fill="#7C5CFF"/><rect x="32" y="160" width="24" height="8" fill="#7C5CFF"/><rect x="56" y="160" width="8" height="8" fill="#1B1530"/><rect x="64" y="160" width="32" height="8" fill="#7C5CFF"/><rect x="96" y="160" width="8" height="8" fill="#1B1530"/><rect x="104" y="160" width="24" height="8" fill="#7C5CFF"/><rect x="32" y="168" width="96" height="8" fill="#7C5CFF"/><rect x="32" y="176" width="40" height="8" fill="#7C5CFF"/><rect x="72" y="176" width="8" height="8" fill="#1B1530"/><rect x="80" y="176" width="48" height="8" fill="#7C5CFF"/><rect x="32" y="184" width="8" height="8" fill="#5A3FD1"/><rect x="40" y="184" width="80" height="8" fill="#7C5CFF"/><rect x="120" y="184" width="8" height="8" fill="#5A3FD1"/><rect x="32" y="192" width="16" height="8" fill="#7C5CFF"/><rect x="56" y="192" width="16" height="8" fill="#7C5CFF"/><rect x="88" y="192" width="16" height="8" fill="#7C5CFF"/><rect x="112" y="192" width="16" height="8" fill="#7C5CFF"/><rect x="40" y="200" width="8" height="8" fill="#7C5CFF"/><rect x="56" y="200" width="16" height="8" fill="#7C5CFF"/><rect x="88" y="200" width="16" height="8" fill="#7C5CFF"/><rect x="112" y="200" width="8" height="8" fill="#7C5CFF"/></g></svg>
