<svg xmlns="http://www.w3.org/2000/svg" viewBox="0 0 224 136" width="224" height="136" shape-rendering="crispEdges"><style>@keyframes f0{0%{visibility:visible}27.273%{visibility:hidden}100%{visibility:hidden}}.f0{animation:f0 1650ms steps(1,end) infinite}@keyframes f1{0%{visibility:hidden}27.273%{visibility:visible}54.545%{visibility:hidden}100%{visibility:hidden}}.f1{animation:f1 1650ms steps(1,end) infinite}@keyframes f2{0%{visibility:hidden}54.545%{visibility:visible}81.818%{visibility:hidden}100%{visibility:hidden}}.f2{animation:f2 1650ms steps(1,end) infinite}@keyframes f3{0%{visibility:hidden}81.818%{visibility:visible}100%{visibility:visible}}.f3{animation:f3 1650ms steps(1,end) infinite}</style><g class="f0"><rect x="48" y="32" width="16" height="8" fill="#3DF2C8"/><rect x="48" y="40" width="16" height="8" fill="#5A3FD1"/><rect x="144" y="40" width="8" height="8" fill="#F2F0FF"/><rect x="176" y="40" width="8" height="8" fill="#F2F0FF"/><rect x="208" y="40" width="8" height="8" fill="#F2F0FF"/><rect x="24" y="48" width="64" height="8" fill="#7C5CFF"/><rect x="16" y="56" width="8" height="8" fill="#A892FF"/><rect x="24" y="56" width="72" height="8" fill="#7C5CFF"/><rect x="128" y="56" width="40" height="8" fill="#F2F0FF"/><rect x="16" y="64" width="80" height="8" fill="#7C5CFF"/><rect x="136" y="64" width="24" height="8" fill="#FFD166"/><rect x="8" y="72" width="96" height="8" fill="#7C5CFF"/><rect x="144" y="72" width="8" height="8" fill="#FFD166"/><rect x="8" y="80" width="32" height="8" fill="#7C5CFF"/><rect x="40" y="80" width="8" height="8" fill="#1B1530"/><rect x="48" y="80" width="32" height="8" fill="#7C5CFF"/><rect x="80" y="80" width="8" height="8" fill="#1B1530"/><rect x="88" y="80" width="16" height="8" fill="#7C5CFF"/><rect x="144" y="80" width="8" height="8" fill="#F2F0FF"/><rect x="8" y="88" width="32" height="8" fill="#7C5CFF"/><rect x="40" y="88" width="8" height="8" fill="#1B1530"/><rect x="48" y="88" width="32" height="8" fill="#7C5CFF"/><rect x="80" y="88" width="8" height="8" fill="#1B1530"/><rect x="88" y="88" width="16" height="8" fill="#7C5CFF"/><rect x="136" y="88" width="24" height="8" fill="#F2F0FF"/><rect x="8" y="96" width="40" height="8" fill="#7C5CFF"/><rect x="48" y="96" width="16" height="8" fill="#1B1530"/><rect x="64" y="96" width="40" height="8" fill="#7C5CFF"/><rect x="128" y="96" width="40" height="8" fill="#F2F0FF"/><rect x="8" y="104" width="8" height="8" fill="#5A3FD1"/><rect x="16" y="104" width="80" height="8" fill="#7C5CFF"/><rect x="96" y="104" width="8" height="8" fill="#5A3FD1"/><rect x="8" y="112" width="16" height="8" fill="#7C5CFF"/><rect x="32" y="112" width="16" height="8" fill="#7C5CFF"/><rect x="64" y="112" width="16" height="8" fill="#7C5CFF"/><rect x="88" y="112" width="16" height="8" fill="#7C5CFF"/><rect x="8" y="120" width="8" height="8" fill="#7C5CFF"/><rect x="24" y="120" width="16" height="8" fill="#7C5CFF"/><rect x="72" y="120" width="16" height="8" fill="#7C5CFF"/><rect x="96" y="120" width="8" height="8" fill="#7C5CFF"/></g><g class="f1"><rect x="48" y="32" width="16" height="8" fill="#3DF2C8"/><rect x="48" y="40" width="16" height="8" fill="#5A3FD1"/><rect x="144" y="40" width="8" height="8" fill="#F2F0FF"/><rect x="176" y="40" width="8" height="8" fill="#F2F0FF"/><rect x="208" y="40" width="8" height="8" fill="#F2F0FF"/><rect x="24" y="48" width="64" height="8" fill="#7C5CFF"/><rect x="16" y="56" width="8" height="8" fill="#A892FF"/><rect x="24" y="56" width="72" height="8" fill="#7C5CFF"/><rect x="128" y="56" width="40" height="8" fill="#F2F0FF"/><rect x="16" y="64" width="80" height="8" fill="#7C5CFF"/><rect x="136" y="64" width="24" height="8" fill="#F2F0FF"/><rect x="8" y="72" width="96" height="8" fill="#7C5CFF"/><rect x="144" y="72" width="8" height="8" fill="#F2F0FF"/><rect x="8" y="80" width="32" height="8" fill="#7C5CFF"/><rect x="40" y="80" width="8" height="8" fill="#1B1530"/><rect x="48" y="80" width="32" height="8" fill="#7C5CFF"/><rect x="80" y="80" width="8" height="8" fill="#1B1530"/><rect x="88" y="80" width="16" height="8" fill="#7C5CFF"/><rect x="144" y="80" width="8" height="8" fill="#FFD166"/><rect x="8" y="88" width="32" height="8" fill="#7C5CFF"/><rect x="40" y="88" width="8" height="8" fill="#1B1530"/><rect x="48" y="88" width="32" height="8" fill="#7C5CFF"/><rect x="80" y="88" width="8" height="8" fill="#1B1530"/><rect x="88" y="88" width="16" height="8" fill="#7C5CFF"/><rect x="136" y="88" width="24" height="8" fill="#FFD166"/><rect x="8" y="96" width="40" height="8" fill="#7C5CFF"/><rect x="48" y="96" width="16" height="8" fill="#1B1530"/><rect x="64" y="96" width="40" height="8" fill="#7C5CFF"/><rect x="128" y="96" width="40" height="8" fill="#F2F0FF"/><rect x="8" y="104" width="8" height="8" fill="#5A3FD1"/><rect x="16" y="104" width="80" height="8" fill="#7C5CFF"/><rect x="96" y="104" width="8" height="8" fill="#5A3FD1"/><rect x="8" y="112" width="16" height="8" fill="#7C5CFF"/><rect x="32" y="112" width="16" height="8" fill="#7C5CFF"/><rect x="64" y="112" width="16" height="8" fill="#7C5CFF"/><rect x="88" y="112" width="16" height="8" fill="#7C5CFF"/><rect x="16" y="120" width="8" height="8" fill="#7C5CFF"/><rect x="32" y="120" width="16" height="8" fill="#7C5CFF"/><rect x="64" y="120" width="16" height="8" fill="#7C5CFF"/><rect x="88" y="120" width="8" height="8" fill="#7C5CFF"/></g><g class="f2"><rect x="48" y="32" width="16" height="8" fill="#3DF2C8"/><rect x="48" y="40" width="16" height="8" fill="#5A3FD1"/><rect x="144" y="40" width="8" height="8" fill="#F2F0FF"/><rect x="176" y="40" width="8" height="8" fill="#F2F0FF"/><rect x="208" y="40" width="8" height="8" fill="#F2F0FF"/><rect x="24" y="48" width="64" height="8" fill="#7C5CFF"/><rect x="16" y="56" width="8" height="8" fill="#A892FF"/><rect x="24" y="56" width="72" height="8" fill="#7C5CFF"/><rect x="128" y="56" width="40" height="8" fill="#F2F0FF"/><rect x="16" y="64" width="80" height="8" fill="#7C5CFF"/><rect x="136" y="64" width="24" height="8" fill="#FFD166"/><rect x="8" y="72" width="96" height="8" fill="#7C5CFF"/><rect x="144" y="72" width="8" height="8" fill="#FFD166"/><rect x="8" y="80" width="32" height="8" fill="#7C5CFF"/><rect x="40" y="80" width="8" height="8" fill="#1B1530"/><rect x="48" y="80" width="32" height="8" fill="#7C5CFF"/><rect x="80" y="80" width="8" height="8" fill="#1B1530"/><rect x="88" y="80" width="16" height="8" fill="#7C5CFF"/><rect x="144" y="80" width="8" height="8" fill="#F2F0FF"/><rect x="8" y="88" width="32" height="8" fill="#7C5CFF"/><rect x="40" y="88" width="8" height="8" fill="#1B1530"/><rect x="48" y="88" width="32" height="8" fill="#7C5CFF"/><rect x="80" y="88" width="8" height="8" fill="#1B1530"/><rect x="88" y="88" width="16" height="8" fill="#7C5CFF"/><rect x="136" y="88" width="24" height="8" fill="#F2F0FF"/><rect x="8" y="96" width="40" height="8" fill="#7C5CFF"/><rect x="48" y="96" width="16" height="8" fill="#1B1530"/><rect x="64" y="96" width="40" height="8" fill="#7C5CFF"/><rect x="128" y="96" width="40" height="8" fill="#F2F0FF"/><rect x="8" y="104" width="8" height="8" fill="#5A3FD1"/><rect x="16" y="104" width="80" height="8" fill="#7C5CFF"/><rect x="96" y="104" width="8" height="8" fill="#5A3FD1"/><rect x="8" y="112" width="16" height="8" fill="#7C5CFF"/><rect x="32" y="112" width="16" height="8" fill="#7C5CFF"/><rect x="64" y="112" width="16" height="8" fill="#7C5CFF"/><rect x="88" y="112" width="16" height="8" fill="#7C5CFF"/><rect x="8" y="120" width="8" height="8" fill="#7C5CFF"/><rect x="24" y="120" width="16" height="8" fill="#7C5CFF"/><rect x="72" y="120" width="16" height="8" fill="#7C5CFF"/><rect x="96" y="120" width="8" height="8" fill="#7C5CFF"/></g><g class="f3"><rect x="176" y="8" width="8" height="8" fill="#FF5C5C"/><rect x="176" y="16" width="8" height="8" fill="#FF5C5C"/><rect x="176" y="24" width="8" height="8" fill="#FF5C5C"/><rect x="48" y="32" width="16" height="8" fill="#FF5C5C"/><rect x="48" y="40" width="16" height="8" fill="#5A3FD1"/><rect x="176" y="40" width="8" height="8" fill="#FF5C5C"/><rect x="24" y="48" width="64" height="8" fill="#7C5CFF"/><rect x="16" y="56" width="8" height="8" fill="#A892FF"/><rect x="24" y="56" width="72" height="8" fill="#7C5CFF"/><rect x="128" y="56" width="40" height="8" fill="#F2F0FF"/><rect x="16" y="64" width="80" height="8" fill="#7C5CFF"/><rect x="136" y="64" width="24" height="8" fill="#F2F0FF"/><rect x="8" y="72" width="16" height="8" fill="#7C5CFF"/><rect x="24" y="72" width="8" height="8" fill="#1B1530"/><rect x="32" y="72" width="8" height="8" fill="#7C5CFF"/><rect x="40" y="72" width="8" height="8" fill="#1B1530"/><rect x="48" y="72" width="16" height="8" fill="#7C5CFF"/><rect x="64" y="72" width="8" height="8" fill="#1B1530"/><rect x="72" y="72" width="8" height="8" fill="#7C5CFF"/><rect x="80" y="72" width="8" height="8" fill="#1B1530"/><rect x="88" y="72" width="16" height="8" fill="#7C5CFF"/><rect x="144" y="72" width="8" height="8" fill="#F2F0FF"/><rect x="8" y="80" width="24" height="8" fill="#7C5CFF"/><rect x="32" y="80" width="8" height="8" fill="#1B1530"/><rect x="40" y="80" width="32" height="8" fill="#7C5CFF"/><rect x="72" y="80" width="8" height="8" fill="#1B1530"/><rect x="80" y="80" width="24" height="8" fill="#7C5CFF"/><rect x="144" y="80" width="8" height="8" fill="#FFD166"/><rect x="8" y="88" width="16" height="8" fill="#7C5CFF"/><rect x="24" y="88" width="8" height="8" fill="#1B1530"/><rect x="32" y="88" width="8" height="8" fill="#7C5CFF"/><rect x="40" y="88" width="8" height="8" fill="#1B1530"/><rect x="48" y="88" width="16" height="8" fill="#7C5CFF"/><rect x="64" y="88" width="8" height="8" fill="#1B1530"/><rect x="72" y="88" width="8" height="8" fill="#7C5CFF"/><rect x="80" y="88" width="8" height="8" fill="#1B1530"/><rect x="88" y="88" width="16" height="8" fill="#7C5CFF"/><rect x="136" y="88" width="24" height="8" fill="#FFD166"/><rect x="8" y="96" width="40" height="8" fill="#7C5CFF"/><rect x="48" y="96" width="16" height="8" fill="#1B1530"/><rect x="64" y="96" width="40" height="8" fill="#7C5CFF"/><rect x="128" y="96" width="40" height="8" fill="#F2F0FF"/><rect x="8" y="104" width="8" height="8" fill="#5A3FD1"/><rect x="16" y="104" width="24" height="8" fill="#7C5CFF"/><rect x="40" y="104" width="8" height="8" fill="#1B1530"/><rect x="48" y="104" width="16" height="8" fill="#7C5CFF"/><rect x="64" y="104" width="8" height="8" fill="#1B1530"/><rect x="72" y="104" width="24" height="8" fill="#7C5CFF"/><rect x="96" y="104" width="8" height="8" fill="#5A3FD1"/><rect x="8" y="112" width="16" height="8" fill="#7C5CFF"/><rect x="32" y="112" width="16" height="8" fill="#7C5CFF"/><rect x="64" y="112" width="16" height="8" fill="#7C5CFF"/><rect x="88" y="112" width="16" height="8" fill="#7C5CFF"/><rect x="16" y="120" width="8" height="8" fill="#7C5CFF"/><rect x="32" y="120" width="16" height="8" fill="#7C5CFF"/><rect x="64" y="120" width="16" height="8" fill="#7C5CFF"/><rect x="88" y="120" width="8" height="8" fill="#7C5CFF"/></g></svg>
