<svg xmlns="http://www.w3.org/2000/svg" viewBox="0 0 224 112" width="224" height="112" shape-rendering="crispEdges"><style>@keyframes f0{0%{visibility:visible}12.500%{visibility:hidden}100%{visibility:hidden}}.f0{animation:f0 1040ms steps(1,end) infinite}@keyframes f1{0%{visibility:hidden}12.500%{visibility:visible}25.000%{visibility:hidden}100%{visibility:hidden}}.f1{animation:f1 1040ms steps(1,end) infinite}@keyframes f2{0%{visibility:hidden}25.000%{visibility:visible}37.500%{visibility:hidden}100%{visibility:hidden}}.f2{animation:f2 1040ms steps(1,end) infinite}@keyframes f3{0%{visibility:hidden}37.500%{visibility:visible}50.000%{visibility:hidden}100%{visibility:hidden}}.f3{animation:f3 1040ms steps(1,end) infinite}@keyframes f4{0%{visibility:hidden}50.000%{visibility:visible}62.500%{visibility:hidden}100%{visibility:hidden}}.f4{animation:f4 1040ms steps(1,end) infinite}@keyframes f5{0%{visibility:hidden}62.500%{visibility:visible}75.000%{visibility:hidden}100%{visibility:hidden}}.f5{animation:f5 1040ms steps(1,end) infinite}@keyframes f6{0%{visibility:hidden}75.000%{visibility:visible}87.500%{visibility:hidden}100%{visibility:hidden}}.f6{animation:f6 1040ms steps(1,end) infinite}@keyframes f7{0%{visibility:hidden}87.500%{visibility:visible}100%{visibility:visible}}.f7{animation:f7 1040ms steps(1,end) infinite}</style><g class="f0"><rect x="48" y="8" width="16" height="8" fill="#3DF2C8"/><rect x="48" y="16" width="16" height="8" fill="#5A3FD1"/><rect x="24" y="24" width="64" height="8" fill="#7C5CFF"/><rect x="16" y="32" width="8" height="8" fill="#A892FF"/><rect x="24" y="32" width="72" height="8" fill="#7C5CFF"/><rect x="16" y="40" width="80" height="8" fill="#7C5CFF"/><rect x="8" y="48" width="96" height="8" fill="#7C5CFF"/><rect x="8" y="56" width="32" height="8" fill="#7C5CFF"/><rect x="40" y="56" width="8" height="8" fill="#1B1530"/><rect x="48" y="56" width="32" height="8" fill="#7C5CFF"/><rect x="80" y="56" width="8" height="8" fill="#1B1530"/><rect x="88" y="56" width="16" height="8" fill="#7C5CFF"/><rect x="8" y="64" width="32" height="8" fill="#7C5CFF"/><rect x="40" y="64" width="8" height="8" fill="#1B1530"/><rect x="48" y="64" width="32" height="8" fill="#7C5CFF"/><rect x="80" y="64" width="8" height="8" fill="#1B1530"/><rect x="88" y="64" width="16" height="8" fill="#7C5CFF"/><rect x="8" y="72" width="40" height="8" fill="#7C5CFF"/><rect x="48" y="72" width="16" height="8" fill="#1B1530"/><rect x="64" y="72" width="40" height="8" fill="#7C5CFF"/><rect x="8" y="80" width="8" height="8" fill="#5A3FD1"/><rect x="16" y="80" width="80" height="8" fill="#7C5CFF"/><rect x="96" y="80" width="8" height="8" fill="#5A3FD1"/><rect x="8" y="88" width="16" height="8" fill="#7C5CFF"/><rect x="32" y="88" width="16" height="8" fill="#7C5CFF"/><rect x="64" y="88" width="16" height="8" fill="#7C5CFF"/><rect x="88" y="88" width="16" height="8" fill="#7C5CFF"/><rect x="8" y="96" width="8" height="8" fill="#7C5CFF"/><rect x="24" y="96" width="16" height="8" fill="#7C5CFF"/><rect x="72" y="96" width="16" height="8" fill="#7C5CFF"/><rect x="96" y="96" width="8" height="8" fill="#7C5CFF"/></g><g class="f1"><rect x="64" y="8" width="16" height="8" fill="#3DF2C8"/><rect x="64" y="16" width="16" height="8" fill="#5A3FD1"/><rect x="40" y="24" width="64" height="8" fill="#7C5CFF"/><rect x="32" y="32" width="8" height="8" fill="#A892FF"/><rect x="40" y="32" width="72" height="8" fill="#7C5CFF"/><rect x="32" y="40" width="80" height="8" fill="#7C5CFF"/><rect x="24" y="48" width="96" height="8" fill="#7C5CFF"/><rect x="24" y="56" width="32" height="8" fill="#7C5CFF"/><rect x="56" y="56" width="8" height="8" fill="#1B1530"/><rect x="64" y="56" width="32" height="8" fill="#7C5CFF"/><rect x="96" y="56" width="8" height="8" fill="#1B1530"/><rect x="104" y="56" width="16" height="8" fill="#7C5CFF"/><rect x="24" y="64" width="32" height="8" fill="#7C5CFF"/><rect x="56" y="64" width="8" height="8" fill="#1B1530"/><rect x="64" y="64" width="32" height="8" fill="#7C5CFF"/><rect x="96" y="64" width="8" height="8" fill="#1B1530"/><rect x="104" y="64" width="16" height="8" fill="#7C5CFF"/><rect x="24" y="72" width="40" height="8" fill="#7C5CFF"/><rect x="64" y="72" width="16" height="8" fill="#1B1530"/><rect x="80" y="72" width="40" height="8" fill="#7C5CFF"/><rect x="24" y="80" width="8" height="8" fill="#5A3FD1"/><rect x="32" y="80" width="80" height="8" fill="#7C5CFF"/><rect x="112" y="80" width="8" height="8" fill="#5A3FD1"/><rect x="24" y="88" width="16" height="8" fill="#7C5CFF"/><rect x="48" y="88" width="16" height="8" fill="#7C5CFF"/><rect x="80" y="88" width="16" height="8" fill="#7C5CFF"/><rect x="104" y="88" width="16" height="8" fill="#7C5CFF"/><rect x="32" y="96" width="8" height="8" fill="#7C5CFF"/><rect x="48" y="96" width="16" height="8" fill="#7C5CFF"/><rect x="80" y="96" width="16" height="8" fill="#7C5CFF"/><rect x="104" y="96" width="8" height="8" fill="#7C5CFF"/></g><g class="f2"><rect x="80" y="8" width="16" height="8" fill="#3DF2C8"/><rect x="80" y="16" width="16" height="8" fill="#5A3FD1"/><rect x="56" y="24" width="64" height="8" fill="#7C5CFF"/><rect x="48" y="32" width="8" height="8" fill="#A892FF"/><rect x="56" y="32" width="72" height="8" fill="#7C5CFF"/><rect x="48" y="40" width="80" height="8" fill="#7C5CFF"/><rect x="40" y="48" width="96" height="8" fill="#7C5CFF"/><rect x="40" y="56" width="32" height="8" fill="#7C5CFF"/><rect x="72" y="56" width="8" height="8" fill="#1B1530"/><rect x="80" y="56" width="32" height="8" fill="#7C5CFF"/><rect x="112" y="56" width="8" height="8" fill="#1B1530"/><rect x="120" y="56" width="16" height="8" fill="#7C5CFF"/><rect x="40" y="64" width="32" height="8" fill="#7C5CFF"/><rect x="72" y="64" width="8" height="8" fill="#1B1530"/><rect x="80" y="64" width="32" height="8" fill="#7C5CFF"/><rect x="112" y="64" width="8" height="8" fill="#1B1530"/><rect x="120" y="64" width="16" height="8" fill="#7C5CFF"/><rect x="40" y="72" width="40" height="8" fill="#7C5CFF"/><rect x="80" y="72" width="16" height="8" fill="#1B1530"/><rect x="96" y="72" width="40" height="8" fill="#7C5CFF"/><rect x="40" y="80" width="8" height="8" fill="#5A3FD1"/><rect x="48" y="80" width="80" height="8" fill="#7C5CFF"/><rect x="128" y="80" width="8" height="8" fill="#5A3FD1"/><rect x="40" y="88" width="16" height="8" fill="#7C5CFF"/><rect x="64" y="88" width="16" height="8" fill="#7C5CFF"/><rect x="96" y="88" width="16" height="8" fill="#7C5CFF"/><rect x="120" y="88" width="16" height="8" fill="#7C5CFF"/><rect x="40" y="96" width="8" height="8" fill="#7C5CFF"/><rect x="56" y="96" width="16" height="8" fill="#7C5CFF"/><rect x="104" y="96" width="16" height="8" fill="#7C5CFF"/><rect x="128" y="96" width="8" height="8" fill="#7C5CFF"/></g><g class="f3"><rect x="96" y="8" width="16" height="8" fill="#3DF2C8"/><rect x="96" y="16" width="16" height="8" fill="#5A3FD1"/><rect x="72" y="24" width="64" height="8" fill="#7C5CFF"/><rect x="64" y="32" width="8" height="8" fill="#A892FF"/><rect x="72" y="32" width="72" height="8" fill="#7C5CFF"/><rect x="64" y="40" width="80" height="8" fill="#7C5CFF"/><rect x="56" y="48" width="96" height="8" fill="#7C5CFF"/><rect x="56" y="56" width="32" height="8" fill="#7C5CFF"/><rect x="88" y="56" width="8" height="8" fill="#1B1530"/><rect x="96" y="56" width="32" height="8" fill="#7C5CFF"/><rect x="128" y="56" width="8" height="8" fill="#1B1530"/><rect x="136" y="56" width="16" height="8" fill="#7C5CFF"/><rect x="56" y="64" width="32" height="8" fill="#7C5CFF"/><rect x="88" y="64" width="8" height="8" fill="#1B1530"/><rect x="96" y="64" width="32" height="8" fill="#7C5CFF"/><rect x="128" y="64" width="8" height="8" fill="#1B1530"/><rect x="136" y="64" width="16" height="8" fill="#7C5CFF"/><rect x="56" y="72" width="40" height="8" fill="#7C5CFF"/><rect x="96" y="72" width="16" height="8" fill="#1B1530"/><rect x="112" y="72" width="40" height="8" fill="#7C5CFF"/><rect x="56" y="80" width="8" height="8" fill="#5A3FD1"/><rect x="64" y="80" width="80" height="8" fill="#7C5CFF"/><rect x="144" y="80" width="8" height="8" fill="#5A3FD1"/><rect x="56" y="88" width="16" height="8" fill="#7C5CFF"/><rect x="80" y="88" width="16" height="8" fill="#7C5CFF"/><rect x="112" y="88" width="16" height="8" fill="#7C5CFF"/><rect x="136" y="88" width="16" height="8" fill="#7C5CFF"/><rect x="64" y="96" width="8" height="8" fill="#7C5CFF"/><rect x="80" y="96" width="16" height="8" fill="#7C5CFF"/><rect x="112" y="96" width="16" height="8" fill="#7C5CFF"/><rect x="136" y="96" width="8" height="8" fill="#7C5CFF"/></g><g class="f4"><rect x="112" y="8" width="16" height="8" fill="#3DF2C8"/><rect x="112" y="16" width="16" height="8" fill="#5A3FD1"/><rect x="88" y="24" width="64" height="8" fill="#7C5CFF"/><rect x="80" y="32" width="8" height="8" fill="#A892FF"/><rect x="88" y="32" width="72" height="8" fill="#7C5CFF"/><rect x="80" y="40" width="80" height="8" fill="#7C5CFF"/><rect x="72" y="48" width="96" height="8" fill="#7C5CFF"/><rect x="72" y="56" width="32" height="8" fill="#7C5CFF"/><rect x="104" y="56" width="8" height="8" fill="#1B1530"/><rect x="112" y="56" width="32" height="8" fill="#7C5CFF"/><rect x="144" y="56" width="8" height="8" fill="#1B1530"/><rect x="152" y="56" width="16" height="8" fill="#7C5CFF"/><rect x="72" y="64" width="32" height="8" fill="#7C5CFF"/><rect x="104" y="64" width="8" height="8" fill="#1B1530"/><rect x="112" y="64" width="32" height="8" fill="#7C5CFF"/><rect x="144" y="64" width="8" height="8" fill="#1B1530"/><rect x="152" y="64" width="16" height="8" fill="#7C5CFF"/><rect x="72" y="72" width="40" height="8" fill="#7C5CFF"/><rect x="112" y="72" width="16" height="8" fill="#1B1530"/><rect x="128" y="72" width="40" height="8" fill="#7C5CFF"/><rect x="72" y="80" width="8" height="8" fill="#5A3FD1"/><rect x="80" y="80" width="80" height="8" fill="#7C5CFF"/><rect x="160" y="80" width="8" height="8" fill="#5A3FD1"/><rect x="72" y="88" width="16" height="8" fill="#7C5CFF"/><rect x="96" y="88" width="16" height="8" fill="#7C5CFF"/><rect x="128" y="88" width="16" height="8" fill="#7C5CFF"/><rect x="152" y="88" width="16" height="8" fill="#7C5CFF"/><rect x="72" y="96" width="8" height="8" fill="#7C5CFF"/><rect x="88" y="96" width="16" height="8" fill="#7C5CFF"/><rect x="136" y="96" width="16" height="8" fill="#7C5CFF"/><rect x="160" y="96" width="8" height="8" fill="#7C5CFF"/></g><g class="f5"><rect x="128" y="8" width="16" height="8" fill="#3DF2C8"/><rect x="128" y="16" width="16" height="8" fill="#5A3FD1"/><rect x="104" y="24" width="64" height="8" fill="#7C5CFF"/><rect x="96" y="32" width="8" height="8" fill="#A892FF"/><rect x="104" y="32" width="72" height="8" fill="#7C5CFF"/><rect x="96" y="40" width="80" height="8" fill="#7C5CFF"/><rect x="88" y="48" width="96" height="8" fill="#7C5CFF"/><rect x="88" y="56" width="32" height="8" fill="#7C5CFF"/><rect x="120" y="56" width="8" height="8" fill="#1B1530"/><rect x="128" y="56" width="32" height="8" fill="#7C5CFF"/><rect x="160" y="56" width="8" height="8" fill="#1B1530"/><rect x="168" y="56" width="16" height="8" fill="#7C5CFF"/><rect x="88" y="64" width="32" height="8" fill="#7C5CFF"/><rect x="120" y="64" width="8" height="8" fill="#1B1530"/><rect x="128" y="64" width="32" height="8" fill="#7C5CFF"/><rect x="160" y="64" width="8" height="8" fill="#1B1530"/><rect x="168" y="64" width="16" height="8" fill="#7C5CFF"/><rect x="88" y="72" width="40" height="8" fill="#7C5CFF"/><rect x="128" y="72" width="16" height="8" fill="#1B1530"/><rect x="144" y="72" width="40" height="8" fill="#7C5CFF"/><rect x="88" y="80" width="8" height="8" fill="#5A3FD1"/><rect x="96" y="80" width="80" height="8" fill="#7C5CFF"/><rect x="176" y="80" width="8" height="8" fill="#5A3FD1"/><rect x="88" y="88" width="16" height="8" fill="#7C5CFF"/><rect x="112" y="88" width="16" height="8" fill="#7C5CFF"/><rect x="144" y="88" width="16" height="8" fill="#7C5CFF"/><rect x="168" y="88" width="16" height="8" fill="#7C5CFF"/><rect x="96" y="96" width="8" height="8" fill="#7C5CFF"/><rect x="112" y="96" width="16" height="8" fill="#7C5CFF"/><rect x="144" y="96" width="16" height="8" fill="#7C5CFF"/><rect x="168" y="96" width="8" height="8" fill="#7C5CFF"/></g><g class="f6"><rect x="144" y="8" width="16" height="8" fill="#3DF2C8"/><rect x="144" y="16" width="16" height="8" fill="#5A3FD1"/><rect x="120" y="24" width="64" height="8" fill="#7C5CFF"/><rect x="112" y="32" width="8" height="8" fill="#A892FF"/><rect x="120" y="32" width="72" height="8" fill="#7C5CFF"/><rect x="112" y="40" width="80" height="8" fill="#7C5CFF"/><rect x="104" y="48" width="96" height="8" fill="#7C5CFF"/><rect x="104" y="56" width="32" height="8" fill="#7C5CFF"/><rect x="136" y="56" width="8" height="8" fill="#1B1530"/><rect x="144" y="56" width="32" height="8" fill="#7C5CFF"/><rect x="176" y="56" width="8" height="8" fill="#1B1530"/><rect x="184" y="56" width="16" height="8" fill="#7C5CFF"/><rect x="104" y="64" width="32" height="8" fill="#7C5CFF"/><rect x="136" y="64" width="8" height="8" fill="#1B1530"/><rect x="144" y="64" width="32" height="8" fill="#7C5CFF"/><rect x="176" y="64" width="8" height="8" fill="#1B1530"/><rect x="184" y="64" width="16" height="8" fill="#7C5CFF"/><rect x="104" y="72" width="40" height="8" fill="#7C5CFF"/><rect x="144" y="72" width="16" height="8" fill="#1B1530"/><rect x="160" y="72" width="40" height="8" fill="#7C5CFF"/><rect x="104" y="80" width="8" height="8" fill="#5A3FD1"/><rect x="112" y="80" width="80" height="8" fill="#7C5CFF"/><rect x="192" y="80" width="8" height="8" fill="#5A3FD1"/><rect x="104" y="88" width="16" height="8" fill="#7C5CFF"/><rect x="128" y="88" width="16" height="8" fill="#7C5CFF"/><rect x="160" y="88" width="16" height="8" fill="#7C5CFF"/><rect x="184" y="88" width="16" height="8" fill="#7C5CFF"/><rect x="104" y="96" width="8" height="8" fill="#7C5CFF"/><rect x="120" y="96" width="16" height="8" fill="#7C5CFF"/><rect x="168" y="96" width="16" height="8" fill="#7C5CFF"/><rect x="192" y="96" width="8" height="8" fill="#7C5CFF"/></g><g class="f7"><rect x="160" y="8" width="16" height="8" fill="#3DF2C8"/><rect x="160" y="16" width="16" height="8" fill="#5A3FD1"/><rect x="136" y="24" width="64" height="8" fill="#7C5CFF"/><rect x="128" y="32" width="8" height="8" fill="#A892FF"/><rect x="136" y="32" width="72" height="8" fill="#7C5CFF"/><rect x="128" y="40" width="80" height="8" fill="#7C5CFF"/><rect x="120" y="48" width="96" height="8" fill="#7C5CFF"/><rect x="120" y="56" width="32" height="8" fill="#7C5CFF"/><rect x="152" y="56" width="8" height="8" fill="#1B1530"/><rect x="160" y="56" width="32" height="8" fill="#7C5CFF"/><rect x="192" y="56" width="8" height="8" fill="#1B1530"/><rect x="200" y="56" width="16" height="8" fill="#7C5CFF"/><rect x="120" y="64" width="32" height="8" fill="#7C5CFF"/><rect x="152" y="64" width="8" height="8" fill="#1B1530"/><rect x="160" y="64" width="32" height="8" fill="#7C5CFF"/><rect x="192" y="64" width="8" height="8" fill="#1B1530"/><rect x="200" y="64" width="16" height="8" fill="#7C5CFF"/><rect x="120" y="72" width="40" height="8" fill="#7C5CFF"/><rect x="160" y="72" width="16" height="8" fill="#1B1530"/><rect x="176" y="72" width="40" height="8" fill="#7C5CFF"/><rect x="120" y="80" width="8" height="8" fill="#5A3FD1"/><rect x="128" y="80" width="80" height="8" fill="#7C5CFF"/><rect x="208" y="80" width="8" height="8" fill="#5A3FD1"/><rect x="120" y="88" width="16" height="8" fill="#7C5CFF"/><rect x="144" y="88" width="16" height="8" fill="#7C5CFF"/><rect x="176" y="88" width="16" height="8" fill="#7C5CFF"/><rect x="200" y="88" width="16" height="8" fill="#7C5CFF"/><rect x="128" y="96" width="8" height="8" fill="#7C5CFF"/><rect x="144" y="96" width="16" height="8" fill="#7C5CFF"/><rect x="176" y="96" width="16" height="8" fill="#7C5CFF"/><rect x="200" y="96" width="8" height="8" fill="#7C5CFF"/></g></svg>
